<?xml version="1.0" encoding="UTF-8"?>
<svg version="1.1" xmlns="http://www.w3.org/2000/svg" width="50" height="39">
<path d="M0 0 C8.91 0 17.82 0 27 0 C27 3.3 27 6.6 27 10 C34.59 10 42.18 10 50 10 C50 19.24 50 28.48 50 38 C40.43 38 30.86 38 21 38 C21 34.37 21 30.74 21 27 C14.07 27 7.14 27 0 27 C0 18.09 0 9.18 0 0 Z M2 2 C2 9.59 2 17.18 2 25 C9.59 25 17.18 25 25 25 C25 17.41 25 9.82 25 2 C17.41 2 9.82 2 2 2 Z " fill="#EE4138" transform="translate(0,0)"/>
<path d="M0 0 C8.91 0 17.82 0 27 0 C27 8.91 27 17.82 27 27 C18.09 27 9.18 27 0 27 C0 18.09 0 9.18 0 0 Z M2 2 C2 9.59 2 17.18 2 25 C9.59 25 17.18 25 25 25 C25 17.41 25 9.82 25 2 C17.41 2 9.82 2 2 2 Z " fill="#4269F8" transform="translate(0,0)"/>
<path d="M0 0 C1.134375 0.020625 2.26875 0.04125 3.4375 0.0625 C3.4375 1.0525 3.4375 2.0425 3.4375 3.0625 C2.7775 3.0625 2.1175 3.0625 1.4375 3.0625 C1.4375 6.0325 1.4375 9.0025 1.4375 12.0625 C0.4475 12.0625 -0.5425 12.0625 -1.5625 12.0625 C-1.5625 10.7425 -1.5625 9.4225 -1.5625 8.0625 C-2.2225 8.0625 -2.8825 8.0625 -3.5625 8.0625 C-3.8925 9.0525 -4.2225 10.0425 -4.5625 11.0625 C-6.875 11.3125 -6.875 11.3125 -9.5625 11.0625 C-11.375 9.0625 -11.375 9.0625 -12.5625 7.0625 C-11.6653125 7.5265625 -11.6653125 7.5265625 -10.75 8 C-8.47293228 9.16459704 -8.47293228 9.16459704 -5.5625 10.0625 C-5.5625 8.7425 -5.5625 7.4225 -5.5625 6.0625 C-6.5525 5.7325 -7.5425 5.4025 -8.5625 5.0625 C-7.9025 4.4025 -7.2425 3.7425 -6.5625 3.0625 C-7.8825 3.0625 -9.2025 3.0625 -10.5625 3.0625 C-10.5625 2.4025 -10.5625 1.7425 -10.5625 1.0625 C-9.1084375 1.0934375 -9.1084375 1.0934375 -7.625 1.125 C-3.88736045 1.04872164 -3.92115709 0.06879223 0 0 Z " fill="#F38A85" transform="translate(42.5625,17.9375)"/>
<path d="M0 0 C1.859375 0.1953125 1.859375 0.1953125 4 1 C5.265625 3.1796875 5.265625 3.1796875 6.25 5.875 C6.58515625 6.75929688 6.9203125 7.64359375 7.265625 8.5546875 C8 11 8 11 8 14 C6.68 13.67 5.36 13.34 4 13 C4 12.34 4 11.68 4 11 C2.35 11 0.7 11 -1 11 C-1.33 11.99 -1.66 12.98 -2 14 C-2.99 14 -3.98 14 -5 14 C-4.54636829 12.41531323 -4.08688548 10.83230076 -3.625 9.25 C-3.36976562 8.36828125 -3.11453125 7.4865625 -2.8515625 6.578125 C-2.0790066 4.23919428 -1.16374324 2.16557438 0 0 Z M1 5 C0.67 5.99 0.34 6.98 0 8 C0.99 7.67 1.98 7.34 3 7 C2.34 6.34 1.68 5.68 1 5 Z " fill="#4169FA" transform="translate(12,6)"/>
<path d="M0 0 C1.65 0 3.3 0 5 0 C4.01 0.495 4.01 0.495 3 1 C3 4.3 3 7.6 3 11 C2.34 11 1.68 11 1 11 C1 9.68 1 8.36 1 7 C0.34 7 -0.32 7 -1 7 C-1.33 7.99 -1.66 8.98 -2 10 C-4.3125 10.25 -4.3125 10.25 -7 10 C-8.8125 8 -8.8125 8 -10 6 C-9.1028125 6.4640625 -9.1028125 6.4640625 -8.1875 6.9375 C-5.91043228 8.10209704 -5.91043228 8.10209704 -3 9 C-3 7.68 -3 6.36 -3 5 C-1.68 5 -0.36 5 1 5 C0.67 3.35 0.34 1.7 0 0 Z " fill="#F9E0DF" transform="translate(40,19)"/>
<path d="M0 0 C1.98 0 3.96 0 6 0 C4.35 3.63 2.7 7.26 1 11 C0.67 11 0.34 11 0 11 C0 7.37 0 3.74 0 0 Z " fill="#CA2B22" transform="translate(21,27)"/>
<path d="M0 0 C1.98 0.495 1.98 0.495 4 1 C4 2.32 4 3.64 4 5 C2.0625 4.625 2.0625 4.625 0 4 C-0.33 3.34 -0.66 2.68 -1 2 C-0.67 1.34 -0.34 0.68 0 0 Z " fill="#EF5D55" transform="translate(33,23)"/>
</svg>
