<?xml version="1.0" encoding="UTF-8"?>
<svg version="1.1" xmlns="http://www.w3.org/2000/svg" width="50" height="39">
<path d="M0 0 C8.91 0 17.82 0 27 0 C27 3.3 27 6.6 27 10 C34.59 10 42.18 10 50 10 C50 19.24 50 28.48 50 38 C40.43 38 30.86 38 21 38 C21 34.37 21 30.74 21 27 C14.07 27 7.14 27 0 27 C0 18.09 0 9.18 0 0 Z M2 2 C2 9.59 2 17.18 2 25 C9.59 25 17.18 25 25 25 C25 17.41 25 9.82 25 2 C17.41 2 9.82 2 2 2 Z " fill="#EE4037" transform="translate(0,0)"/>
<path d="M0 0 C8.91 0 17.82 0 27 0 C27 8.91 27 17.82 27 27 C18.09 27 9.18 27 0 27 C0 18.09 0 9.18 0 0 Z M2 2 C2 9.59 2 17.18 2 25 C9.59 25 17.18 25 25 25 C25 17.41 25 9.82 25 2 C17.41 2 9.82 2 2 2 Z " fill="#4269F8" transform="translate(0,0)"/>
<path d="M0 0 C4.62 0 9.24 0 14 0 C14 0.66 14 1.32 14 2 C13.01 2 12.02 2 11 2 C11 5.3 11 8.6 11 12 C10.34 12 9.68 12 9 12 C9 10.35 9 8.7 9 7 C8.34 7 7.68 7 7 7 C6.67 8.32 6.34 9.64 6 11 C3.69 10.67 1.38 10.34 -1 10 C-1.33 8.68 -1.66 7.36 -2 6 C-0.02 6.66 1.96 7.32 4 8 C3.01 7.34 2.02 6.68 1 6 C1 4 1 4 2 3 C1.01 2.67 0.02 2.34 -1 2 C-0.67 1.34 -0.34 0.68 0 0 Z M7 2 C6.67 2.99 6.34 3.98 6 5 C6.99 5 7.98 5 9 5 C9 4.01 9 3.02 9 2 C8.34 2 7.68 2 7 2 Z " fill="#4169FB" transform="translate(8,8)"/>
<path d="M0 0 C0.99 0 1.98 0 3 0 C3.67305018 1.60149886 4.33822227 3.20631029 5 4.8125 C5.37125 5.70582031 5.7425 6.59914063 6.125 7.51953125 C7 10 7 10 7 13 C6.01 12.67 5.02 12.34 4 12 C4 11.34 4 10.68 4 10 C2.02 10 0.04 10 -2 10 C-2 10.99 -2 11.98 -2 13 C-2.99 13 -3.98 13 -5 13 C-4.54554036 11.58208592 -4.08625056 10.16571954 -3.625 8.75 C-3.24214844 7.56664062 -3.24214844 7.56664062 -2.8515625 6.359375 C-2.04826333 4.13372042 -1.10288338 2.09068328 0 0 Z " fill="#FDEAE9" transform="translate(35,18)"/>
<path d="M0 0 C1.98 0 3.96 0 6 0 C4.35 3.63 2.7 7.26 1 11 C0.67 11 0.34 11 0 11 C0 7.37 0 3.74 0 0 Z " fill="#CA2B22" transform="translate(21,27)"/>
<path d="M0 0 C1.74627478 2.61941217 2.38722388 4.03824877 3 7 C1.02 7 -0.96 7 -3 7 C-3 7.99 -3 8.98 -3 10 C-3.99 10 -4.98 10 -6 10 C-5.34 7.69 -4.68 5.38 -4 3 C-3.01 3 -2.02 3 -1 3 C-0.67 2.01 -0.34 1.02 0 0 Z " fill="#F6A6A2" transform="translate(36,21)"/>
</svg>
