<?xml version="1.0" encoding="UTF-8"?>
<svg version="1.1" xmlns="http://www.w3.org/2000/svg" width="360" height="360">
<path d="M0 0 C118.8 0 237.6 0 360 0 C360 118.8 360 237.6 360 360 C241.2 360 122.4 360 0 360 C0 241.2 0 122.4 0 0 Z " fill="#F8F8F8" transform="translate(0,0)"/>
<path d="M0 0 C2.22508592 -0.00960642 4.44920623 -0.04064066 6.67407227 -0.07226562 C19.87378473 -0.17080443 32.49144466 1.64555616 45.01196289 5.99023438 C45.7611499 6.24337402 46.51033691 6.49651367 47.28222656 6.75732422 C53.15965579 8.82387783 58.34039344 11.54506804 63.74243164 14.65039062 C66.94239489 16.30106875 69.9894475 17.32287103 73.44946289 18.30273438 C88.40461342 22.58591828 99.96363927 31.81931599 107.82446289 45.24023438 C111.71746256 52.39207991 115.60114467 59.85854351 114.82446289 68.24023438 C114.16446289 69.23023437 113.50446289 70.22023438 112.82446289 71.24023438 C110.91430664 71.53320312 110.91430664 71.53320312 108.76196289 71.42773438 C106.29414499 71.29481401 106.29414499 71.29481401 103.82446289 71.24023438 C104.18540039 72.25214844 104.54633789 73.2640625 104.91821289 74.30664062 C108.82172995 86.39387142 109.21053768 97.6528052 108.46313477 110.21118164 C108.10211742 119.67886158 109.94197561 124.86888674 115.82446289 132.24023438 C116.3489502 132.95163574 116.8734375 133.66303711 117.41381836 134.39599609 C118.85419938 136.34817309 120.33408128 138.26357804 121.82446289 140.17773438 C135.62612648 158.31026481 135.62612648 158.31026481 134.82446289 166.24023438 C131.21015196 172.26408592 126.45104456 174.325443 119.82446289 176.24023438 C117.12898803 176.75675854 114.5682749 177.03698904 111.82446289 177.24023438 C112.19700195 178.09746094 112.56954102 178.9546875 112.95336914 179.83789062 C117.8253096 191.612853 117.8253096 191.612853 115.82446289 197.24023438 C114.83446289 197.90023437 113.84446289 198.56023437 112.82446289 199.24023438 C112.69070453 201.46954038 112.95505428 203.53937084 113.20727539 205.75585938 C112.82446289 208.24023438 112.82446289 208.24023438 110.35180664 210.83398438 C106.5233377 215.08693751 107.195389 220.04519071 107.26196289 225.49023438 C107.33586946 234.1884687 106.89527272 242.42088493 101.03735352 249.35595703 C90.60578558 259.69284902 75.7228821 259.3834153 62.02172852 259.66992188 C55.73350352 259.90085898 51.30959923 260.76809739 46.67749023 265.37597656 C44.36350081 268.95275179 44.35955544 271.73549521 44.53930664 275.84179688 C44.55208145 276.5600766 44.56485626 277.27835632 44.57801819 278.0184021 C44.62008357 280.3016011 44.68850059 282.58284508 44.76196289 284.86523438 C44.8300202 287.15465335 44.89193876 289.44346184 44.93519592 291.73348999 C44.96244578 293.15509909 45.00409028 294.57652234 45.06175232 295.9972229 C45.15884245 300.75899316 45.15884245 300.75899316 43.65586853 302.9220829 C41.11546772 304.75053259 39.3616884 304.61769829 36.24487305 304.6211853 C34.50346039 304.63387451 34.50346039 304.63387451 32.72686768 304.64682007 C30.81451324 304.63771103 30.81451324 304.63771103 28.86352539 304.62841797 C27.50835751 304.63248272 26.15319294 304.63782405 24.79803467 304.64434814 C21.11622767 304.65803929 17.4346725 304.65271582 13.75286102 304.64321089 C9.90253513 304.63562354 6.05223102 304.64265732 2.2019043 304.64736938 C-4.26444374 304.65282965 -10.73068904 304.64562827 -17.19702148 304.63134766 C-24.67645438 304.61502056 -32.15564195 304.62030888 -39.63506889 304.63682687 C-46.05297892 304.65043408 -52.47081503 304.65236517 -58.88873482 304.64451087 C-62.72353258 304.63983011 -66.55821498 304.63922047 -70.39300537 304.64912033 C-73.99801892 304.65777666 -77.60271573 304.65179289 -81.20769501 304.63443756 C-83.16443952 304.62856842 -85.12121078 304.63749965 -87.07794189 304.64682007 C-88.23888367 304.6383606 -89.39982544 304.62990112 -90.59594727 304.6211853 C-92.1124437 304.61948869 -92.1124437 304.61948869 -93.65957642 304.6177578 C-96.17553711 304.24023438 -96.17553711 304.24023438 -97.99642944 302.87829018 C-99.92482871 300.19929343 -99.60069679 298.49606244 -99.17553711 295.24023438 C-98.0134763 291.94922431 -96.54925492 288.82724403 -95.05053711 285.67773438 C-94.63964844 284.79093994 -94.22875977 283.90414551 -93.80541992 282.99047852 C-92.60469948 280.40262978 -91.39051337 277.82141157 -90.17553711 275.24023438 C-89.08716738 272.88835496 -88.00686107 270.53286929 -86.92553711 268.17773438 C-85.57594118 265.25485257 -84.22091515 262.3357671 -82.83959961 259.42773438 C-76.69951176 246.32888029 -73.07222852 233.65676817 -72.86303711 219.17773438 C-72.8364502 218.08017822 -72.8364502 218.08017822 -72.80932617 216.96044922 C-72.82341951 206.41158249 -77.2295895 197.48000111 -81.80053711 188.17773438 C-82.33324219 187.08082275 -82.86594727 185.98391113 -83.41479492 184.85375977 C-87.47883272 176.53491575 -91.7591548 168.34746427 -96.13305664 160.18896484 C-111.07112015 132.26493136 -120.10538568 102.66660514 -110.69506836 71.16601562 C-105.82424671 55.55444332 -99.81138949 43.81112735 -88.17553711 32.24023438 C-87.35827148 31.42296875 -86.54100586 30.60570313 -85.69897461 29.76367188 C-67.9152655 12.90680102 -44.94687549 4.7867647 -21.17553711 1.24023438 C-20.09651123 1.0675 -19.01748535 0.89476563 -17.90576172 0.71679688 C-11.95163395 -0.04388494 -5.99283672 0.01556749 0 0 Z " fill="#2B2B2B" transform="translate(121.175537109375,27.759765625)"/>
<path d="M0 0 C84.15 0 168.3 0 255 0 C255 99 255 198 255 300 C250.05 300 245.1 300 240 300 C240 295.05 240 290.1 240 285 C236.04 285 232.08 285 228 285 C228.51949219 283.99582031 229.03898438 282.99164063 229.57421875 281.95703125 C246.00949145 249.87193716 252.38615066 215.86905828 241.8125 180.875 C235.84480301 162.4674993 224.20063131 137.36401675 207 127 C204.3015411 127.22197813 204.3015411 127.22197813 202 128 C201.22922233 130.31303454 201.22922233 130.31303454 201 133 C202.11040729 135.01990118 202.11040729 135.01990118 203.9375 136.75 C204.58589844 137.43964844 205.23429688 138.12929687 205.90234375 138.83984375 C206.59457031 139.55269531 207.28679687 140.26554688 208 141 C228.35228275 162.62182086 238.99979711 191.42892043 238.2890625 221.0859375 C236.92656253 239.5349236 232.70794407 255.68483514 224 272 C223.67 271.34 223.34 270.68 223 270 C218.71 270 214.42 270 210 270 C210 274.95 210 279.9 210 285 C205.05 285 200.1 285 195 285 C195 289.95 195 294.9 195 300 C190.05 300 185.1 300 180 300 C180 304.95 180 309.9 180 315 C175.05 315 170.1 315 165 315 C165 310.05 165 305.1 165 300 C160.05 300 155.1 300 150 300 C150 295.05 150 290.1 150 285 C154.95 285 159.9 285 165 285 C165 280.05 165 275.1 165 270 C169.95 270 174.9 270 180 270 C180 265.05 180 260.1 180 255 C184.95 255 189.9 255 195 255 C195 250.05 195 245.1 195 240 C197.97 240 200.94 240 204 240 C203.48575582 245.59150007 202.00832094 249.78208677 199.4375 254.75 C199.08179932 255.44665771 198.72609863 256.14331543 198.35961914 256.86108398 C194.25255083 264.70562964 189.47515083 271.79070335 183 277.875 C180.36161897 280.34192571 180.36161897 280.34192571 179.5 283.875 C179.7967124 285.97216394 179.7967124 285.97216394 181 287 C184.52471861 287.38559334 186.36104047 287.44759602 189.30859375 285.3828125 C206.70040522 266.93791886 217.46373386 243.40991071 217.3125 217.8125 C217.30404053 216.30139648 217.30404053 216.30139648 217.29541016 214.75976562 C216.88810604 189.54723752 206.3183364 168.60415352 189.43359375 150.203125 C187.13360078 147.67922104 187.13360078 147.67922104 183.6875 147.6875 C182.800625 147.790625 181.91375 147.89375 181 148 C180.06043563 150.72872422 180.06043563 150.72872422 180 154 C181.57281261 156.14642662 182.96706297 157.70602037 184.875 159.5 C195.86572346 170.67254879 205.79750159 185.64759726 206.0625 201.8125 C206.041875 202.864375 206.02125 203.91625 206 205 C205.67 205 205.34 205 205 205 C204.01 200.545 204.01 200.545 203 196 C200.36 195.67 197.72 195.34 195 195 C195 190.05 195 185.1 195 180 C190.05 180 185.1 180 180 180 C180 175.05 180 170.1 180 165 C175.05 165 170.1 165 165 165 C166.65 166.65 168.3 168.3 170 170 C171 171 172 172 173 173 C172.67 173.66 172.34 174.32 172 175 C171.55269531 174.55527344 171.10539063 174.11054688 170.64453125 173.65234375 C168.82329857 171.94760783 167.07229494 170.39152036 165 169 C162.14054182 168.94949548 162.14054182 168.94949548 160 170 C159.22464465 172.31524174 159.22464465 172.31524174 159 175 C160.15075083 176.98523443 160.15075083 176.98523443 162 178.6875 C173.32951072 190.85205434 178.7004676 203.51698647 178.25561523 220.12353516 C178.18865303 221.7498771 178.09722952 223.37518663 178 225 C175.27157939 226.36421031 173.39046682 225.87807211 170.375 225.5625 C168.60125 225.376875 166.8275 225.19125 165 225 C165 220.05 165 215.1 165 210 C160.05 210 155.1 210 150 210 C150 206.04 150 202.08 150 198 C149.34 197.67 148.68 197.34 148 197 C148.66 196.01 149.32 195.02 150 194 C150.66960434 188.79768936 149.02165177 185.47232995 146.3125 181.1875 C145.72432495 180.2294043 145.72432495 180.2294043 145.12426758 179.25195312 C141.30362335 173.18348311 136.97614627 167.51079753 132.51879883 161.89916992 C130.98105866 159.95477405 129.48731603 157.98308804 128 156 C126.81664062 154.47632813 126.81664062 154.47632813 125.609375 152.921875 C122.84957093 147.85065445 123.75806924 141.88913831 123.98361206 136.30477905 C124.44174487 124.37188137 123.77772636 113.69313757 119.99609375 102.26171875 C119 99 119 99 120 97 C120.33 97.33 120.66 97.66 121 98 C123.67058851 98.14115161 126.32432238 98.04247107 129 98 C130.94691192 94.10617617 129.98318947 90.10922777 129 86 C125.52330622 76.92496183 120.634821 68.12354666 114 61 C113.443125 60.39027344 112.88625 59.78054687 112.3125 59.15234375 C104.88630709 51.87019338 94.35911049 47.89431983 84.5390625 44.93359375 C81.64639049 43.8699805 78.94629104 42.5530747 76.18188477 41.19555664 C69.64121013 37.98633002 63.18741431 35.17807423 56.1875 33.125 C55.22166992 32.83906982 55.22166992 32.83906982 54.23632812 32.54736328 C43.28892886 29.50794715 32.53542111 28.69833885 21.22753906 28.79418945 C19.00313798 28.81247421 16.77915616 28.814698 14.5546875 28.81445312 C7.17555464 28.83320634 -0.13592328 29.0457794 -7.484375 29.7878418 C-9.98171576 29.99845798 -12.4937937 30 -15 30 C-15 25.05 -15 20.1 -15 15 C-10.05 15 -5.1 15 0 15 C0 10.05 0 5.1 0 0 Z " fill="#F7F7F7" transform="translate(105,0)"/>
<path d="M0 0 C5.51708466 0.13456304 7.56431008 2.24911707 11.16918945 5.99584961 C34.71857056 31.77486942 46.2118035 63.67658901 45.13623047 98.50244141 C43.9972751 119.38328975 37.04455881 140.30126601 26 158 C29.63 158.33 33.26 158.66 37 159 C37 163.95 37 168.9 37 174 C41.95 174 46.9 174 52 174 C52 193.8 52 213.6 52 234 C22.3 234 -7.4 234 -38 234 C-38 229.05 -38 224.1 -38 219 C-42.95 219 -47.9 219 -53 219 C-53 214.05 -53 209.1 -53 204 C-57.95 204 -62.9 204 -68 204 C-68 199.05 -68 194.1 -68 189 C-72.95 189 -77.9 189 -83 189 C-83 184.05 -83 179.1 -83 174 C-87.95 174 -92.9 174 -98 174 C-97.93489583 170.41927083 -97.86979167 166.83854167 -97.8046875 163.2578125 C-97.64358476 159.91406662 -97.64358476 159.91406662 -100 158 C-99.34773437 157.79246094 -98.69546875 157.58492187 -98.0234375 157.37109375 C-91.79316405 155.17487641 -87.36617227 152.83050399 -84 147 C-80.47587727 139.44710689 -80.58548854 132.53783136 -80.6484375 124.3125 C-80.54164607 117.53124417 -79.65751487 114.87156864 -75 110 C-74.54738624 107.62134489 -74.54738624 107.62134489 -74.9375 105.375 C-75.09375 103.03125 -75.09375 103.03125 -75 101 C-73.68671343 99.64691687 -72.35500919 98.31129922 -71 97 C-71.07471925 93.03987997 -71.96804387 89.88469498 -73.5625 86.3125 C-75 83 -75 83 -75 79 C-73.31970703 78.49339844 -73.31970703 78.49339844 -71.60546875 77.9765625 C-70.13273364 77.52629954 -68.66008169 77.07576447 -67.1875 76.625 C-66.44951172 76.40328125 -65.71152344 76.1815625 -64.95117188 75.953125 C-64.23896484 75.73398438 -63.52675781 75.51484375 -62.79296875 75.2890625 C-62.1383667 75.09006348 -61.48376465 74.89106445 -60.80932617 74.68603516 C-58.70644864 73.96584292 -58.70644864 73.96584292 -56 72 C-55.01 72 -54.02 72 -53 72 C-53 75.96 -53 79.92 -53 84 C-48.05 84 -43.1 84 -38 84 C-38 88.95 -38 93.9 -38 99 C-34.04 99 -30.08 99 -26 99 C-25.05657876 83.23438284 -27.44083118 69.4081372 -38 57 C-39.91146347 54.93107881 -41.81422184 52.87207701 -43.8125 50.88671875 C-45 49 -45 49 -44.8125 46.39453125 C-44 44 -44 44 -42 42 C-37.12135417 42.2168287 -34.56600568 43.74864188 -31 47 C-32.1725131 46.04882866 -33.33787015 45.08882991 -34.5 44.125 C-35.1496875 43.59132812 -35.799375 43.05765625 -36.46875 42.5078125 C-36.9740625 42.01023438 -37.479375 41.51265625 -38 41 C-38 40.34 -38 39.68 -38 39 C-33.05 39 -28.1 39 -23 39 C-23 43.95 -23 48.9 -23 54 C-18.05 54 -13.1 54 -8 54 C-8 58.95 -8 63.9 -8 69 C-5.36 69 -2.72 69 0 69 C0.66 70.65 1.32 72.3 2 74 C-1.3353502 55.80718073 -11.08560519 40.91439481 -24 28 C-23.43181818 22.43181818 -23.43181818 22.43181818 -22 21 C-18.60290834 20.64890393 -16.67693672 20.54630837 -13.796875 22.4765625 C6.59507513 43.88032695 15.55170216 67.61099485 15.2109375 97.1875 C14.64244559 118.91652427 5.14049613 138.76358053 -9 155 C-9.61101562 155.71800781 -10.22203125 156.43601562 -10.8515625 157.17578125 C-15.10199119 161.84750794 -15.10199119 161.84750794 -19.3125 162.5625 C-22 162 -22 162 -24 160 C-24.33984375 157.59375 -24.33984375 157.59375 -24 155 C-22.56640625 153.21875 -22.56640625 153.21875 -20.5625 151.5 C-10.10415352 141.63398465 -2.26008243 128.01835445 1 114 C-1.97 114 -4.94 114 -8 114 C-8 118.95 -8 123.9 -8 129 C-12.95 129 -17.9 129 -23 129 C-23 133.95 -23 138.9 -23 144 C-27.95 144 -32.9 144 -38 144 C-38 148.95 -38 153.9 -38 159 C-42.95 159 -47.9 159 -53 159 C-53 163.95 -53 168.9 -53 174 C-48.05 174 -43.1 174 -38 174 C-38 178.95 -38 183.9 -38 189 C-33.05 189 -28.1 189 -23 189 C-23 184.05 -23 179.1 -23 174 C-18.05 174 -13.1 174 -8 174 C-8 169.05 -8 164.1 -8 159 C-3.05 159 1.9 159 7 159 C7 154.05 7 149.1 7 144 C11.62 144 16.24 144 21 144 C34.87136812 117.8335556 37.99926574 87.28349681 29.5234375 58.76953125 C23.64568975 40.47687547 14.14125996 24.00228111 -0.25 11.03515625 C-2.30275343 8.64791398 -2.79089246 7.12131258 -3 4 C-1.5625 1.6875 -1.5625 1.6875 0 0 Z " fill="#F3F3F3" transform="translate(308,126)"/>
<path d="M0 0 C5.51708466 0.13456304 7.56431008 2.24911707 11.16918945 5.99584961 C34.71857056 31.77486942 46.2118035 63.67658901 45.13623047 98.50244141 C43.9972751 119.38328975 37.04455881 140.30126601 26 158 C29.63 158.33 33.26 158.66 37 159 C37 163.95 37 168.9 37 174 C41.95 174 46.9 174 52 174 C52 193.8 52 213.6 52 234 C42.1 234 32.2 234 22 234 C22 229.05 22 224.1 22 219 C17.05 219 12.1 219 7 219 C7 214.05 7 209.1 7 204 C2.05 204 -2.9 204 -8 204 C-8 199.05 -8 194.1 -8 189 C-12.95 189 -17.9 189 -23 189 C-23 184.05 -23 179.1 -23 174 C-18.05 174 -13.1 174 -8 174 C-8 169.05 -8 164.1 -8 159 C-3.05 159 1.9 159 7 159 C7 154.05 7 149.1 7 144 C11.62 144 16.24 144 21 144 C34.87136812 117.8335556 37.99926574 87.28349681 29.5234375 58.76953125 C23.64568975 40.47687547 14.14125996 24.00228111 -0.25 11.03515625 C-2.30275343 8.64791398 -2.79089246 7.12131258 -3 4 C-1.5625 1.6875 -1.5625 1.6875 0 0 Z " fill="#EEEEEE" transform="translate(308,126)"/>
<path d="M0 0 C5.80828606 0.5241624 8.60515579 5.03165842 12.203125 9.2890625 C30.05911984 31.22760582 36.48471569 56.45307901 34.00097656 84.578125 C31.62615771 103.14651999 22.35694723 120.33378441 10.203125 134.2890625 C9.59210938 135.00707031 8.98109375 135.72507812 8.3515625 136.46484375 C4.10113381 141.13657044 4.10113381 141.13657044 -0.109375 141.8515625 C-2.796875 141.2890625 -2.796875 141.2890625 -4.796875 139.2890625 C-5.13671875 136.8828125 -5.13671875 136.8828125 -4.796875 134.2890625 C-3.36328125 132.5078125 -3.36328125 132.5078125 -1.359375 130.7890625 C9.09897148 120.92304715 16.94304257 107.30741695 20.203125 93.2890625 C17.233125 93.2890625 14.263125 93.2890625 11.203125 93.2890625 C11.203125 98.2390625 11.203125 103.1890625 11.203125 108.2890625 C6.253125 108.2890625 1.303125 108.2890625 -3.796875 108.2890625 C-3.796875 113.2390625 -3.796875 118.1890625 -3.796875 123.2890625 C-8.746875 123.2890625 -13.696875 123.2890625 -18.796875 123.2890625 C-18.796875 121.2890625 -18.796875 121.2890625 -17.796875 120.2890625 C-18.56 120.3509375 -19.323125 120.4128125 -20.109375 120.4765625 C-22.796875 120.2890625 -22.796875 120.2890625 -24.671875 119.1640625 C-25.796875 117.2890625 -25.796875 117.2890625 -25.796875 114.4140625 C-24.55503478 110.53331182 -22.79509356 109.01471574 -19.796875 106.2890625 C-9.74462092 95.72130821 -6.36950073 82.84675836 -6.35766602 68.60791016 C-6.83380215 53.15068447 -13.79728325 40.91796724 -24.609375 30.17578125 C-25.796875 28.2890625 -25.796875 28.2890625 -25.609375 25.68359375 C-24.796875 23.2890625 -24.796875 23.2890625 -22.796875 21.2890625 C-17.91822917 21.5058912 -15.36288068 23.03770438 -11.796875 26.2890625 C-12.9693881 25.33789116 -14.13474515 24.37789241 -15.296875 23.4140625 C-15.9465625 22.88039062 -16.59625 22.34671875 -17.265625 21.796875 C-17.7709375 21.29929688 -18.27625 20.80171875 -18.796875 20.2890625 C-18.796875 19.6290625 -18.796875 18.9690625 -18.796875 18.2890625 C-13.846875 18.2890625 -8.896875 18.2890625 -3.796875 18.2890625 C-3.796875 23.2390625 -3.796875 28.1890625 -3.796875 33.2890625 C1.153125 33.2890625 6.103125 33.2890625 11.203125 33.2890625 C11.203125 38.2390625 11.203125 43.1890625 11.203125 48.2890625 C13.843125 48.2890625 16.483125 48.2890625 19.203125 48.2890625 C19.863125 49.9390625 20.523125 51.5890625 21.203125 53.2890625 C17.8677748 35.09624323 8.11751981 20.20345731 -4.796875 7.2890625 C-4.0962931 0.4233599 -4.0962931 0.4233599 0 0 Z " fill="#EFEFEF" transform="translate(288.796875,146.7109375)"/>
<path d="M0 0 C5.51708466 0.13456304 7.56431008 2.24911707 11.16918945 5.99584961 C34.71857056 31.77486942 46.2118035 63.67658901 45.13623047 98.50244141 C43.6519228 125.71474868 32.69933229 151.15888459 15.375 171.9375 C14.9318042 172.46956055 14.4886084 173.00162109 14.03198242 173.54980469 C10.9486632 177.1442563 7.7833451 180.17551923 4 183 C0.51856674 182.92087652 -0.53354744 182.46645256 -3 180 C-2.70475335 176.07835425 -1.5297243 174.0148409 1.125 171.1875 C1.75792969 170.49398437 2.39085937 169.80046875 3.04296875 169.0859375 C4.27194121 167.77601476 5.50335141 166.46837043 6.73828125 165.1640625 C25.67714264 144.52723423 35.02783005 115.65471182 34.27734375 87.88671875 C32.18551676 58.57167854 22.04259882 31.12171665 -0.25 11.03515625 C-2.30275343 8.64791398 -2.79089246 7.12131258 -3 4 C-1.5625 1.6875 -1.5625 1.6875 0 0 Z " fill="#2C2C2C" transform="translate(308,126)"/>
<path d="M0 0 C4.95 0 9.9 0 15 0 C15 3.96 15 7.92 15 12 C13.4325 12.804375 11.865 13.60875 10.25 14.4375 C-13.0756115 27.23668169 -26.78369491 45.50381941 -34.15234375 70.7421875 C-41.84651388 100.31332982 -34.97561442 129.90604822 -20.11303711 155.99731445 C-19.69417236 156.74198975 -19.27530762 157.48666504 -18.84375 158.25390625 C-18.27430664 159.23339233 -18.27430664 159.23339233 -17.69335938 160.23266602 C-17 162 -17 162 -18 165 C-21.96 165 -25.92 165 -30 165 C-30 160.05 -30 155.1 -30 150 C-34.95 150 -39.9 150 -45 150 C-45 115.35 -45 80.7 -45 45 C-40.05 45 -35.1 45 -30 45 C-30 40.05 -30 35.1 -30 30 C-25.05 30 -20.1 30 -15 30 C-15 25.05 -15 20.1 -15 15 C-10.05 15 -5.1 15 0 15 C0 10.05 0 5.1 0 0 Z " fill="#FBFBFB" transform="translate(45,30)"/>
<path d="M0 0 C5.80828606 0.5241624 8.60515579 5.03165842 12.203125 9.2890625 C30.05911984 31.22760582 36.48471569 56.45307901 34.00097656 84.578125 C31.62615771 103.14651999 22.35694723 120.33378441 10.203125 134.2890625 C9.59210938 135.00707031 8.98109375 135.72507812 8.3515625 136.46484375 C4.10113381 141.13657044 4.10113381 141.13657044 -0.109375 141.8515625 C-2.796875 141.2890625 -2.796875 141.2890625 -4.796875 139.2890625 C-5.13671875 136.8828125 -5.13671875 136.8828125 -4.796875 134.2890625 C-3.36328125 132.5078125 -3.36328125 132.5078125 -1.359375 130.7890625 C10.06219379 120.01437902 17.48285438 105.44235991 21.203125 90.2890625 C21.37158936 89.64211426 21.54005371 88.99516602 21.71362305 88.32861328 C23.08910537 82.72007646 23.55471801 77.42999856 23.515625 71.6640625 C23.51071045 70.79450928 23.5057959 69.92495605 23.50073242 69.02905273 C23.06098969 44.47787771 12.29314414 24.37908164 -4.796875 7.2890625 C-4.0962931 0.4233599 -4.0962931 0.4233599 0 0 Z " fill="#2B2B2B" transform="translate(288.796875,146.7109375)"/>
<path d="M0 0 C0.99 0 1.98 0 3 0 C6.14927491 7.30528524 8.53608694 14.4952724 10.25 22.25 C10.41274414 22.98138184 10.57548828 23.71276367 10.74316406 24.46630859 C15.38566931 46.41224902 14.4704937 74.09869344 3 94 C1.515 94.495 1.515 94.495 0 95 C0 91.7 0 88.4 0 85 C-4.29 85 -8.58 85 -13 85 C-12.47679611 78.72155328 -11.32995593 72.88723341 -9.71875 66.796875 C-4.98321081 48.36945076 -8.10591164 28.76586918 -14 11 C-13 10 -13 10 -10.05859375 9.90234375 C-8.26615234 9.91974609 -8.26615234 9.91974609 -6.4375 9.9375 C-4.64119141 9.95103516 -4.64119141 9.95103516 -2.80859375 9.96484375 C-1.88175781 9.97644531 -0.95492188 9.98804688 0 10 C0 6.7 0 3.4 0 0 Z " fill="#F7F7F7" transform="translate(330,170)"/>
<path d="M0 0 C4.95 0 9.9 0 15 0 C15 4.95 15 9.9 15 15 C19.95 15 24.9 15 30 15 C30 19.95 30 24.9 30 30 C34.95 30 39.9 30 45 30 C45 34.95 45 39.9 45 45 C36.7524957 46.04179002 36.7524957 46.04179002 32 45 C28.19051931 41.53471435 25.75124302 37.32193425 23 33 C21.48541127 31.0656755 19.92476225 29.1661992 18.3125 27.3125 C17.62800781 26.50425781 16.94351562 25.69601563 16.23828125 24.86328125 C13.50981885 22.59194344 11.49154388 22.29470828 8 22 C5.76454681 24.72875002 5.76454681 24.72875002 6.0625 27.375 C7.31734062 30.88855373 9.24910411 32.49362819 12 35 C19.11974294 41.73960224 25.67528608 49.66323862 29 59 C28 60 28 60 25.05859375 60.09765625 C20.02929688 60.04882812 20.02929688 60.04882812 15 60 C15 55.05 15 50.1 15 45 C10.05 45 5.1 45 0 45 C0 40.05 0 35.1 0 30 C-4.95 30 -9.9 30 -15 30 C-15 25.05 -15 20.1 -15 15 C-10.05 15 -5.1 15 0 15 C0 10.05 0 5.1 0 0 Z " fill="#EEEEEE" transform="translate(300,105)"/>
<path d="M0 0 C7.23088906 0 7.23088906 0 11 2 C13.66388474 2.29409882 13.66388474 2.29409882 16.60614014 2.24050903 C17.74754959 2.24325836 18.88895905 2.24600769 20.06495667 2.24884033 C21.31292526 2.24164978 22.56089386 2.23445923 23.84667969 2.22705078 C25.16399582 2.22734283 26.48131195 2.22763489 27.83854675 2.22793579 C31.44775352 2.2285096 35.05682735 2.21675074 38.66600323 2.20278788 C42.43897007 2.19028524 46.21193996 2.18911039 49.98492432 2.18673706 C57.1282211 2.18052092 64.27145667 2.16410829 71.4147265 2.14403808 C79.54766678 2.12168326 87.68061 2.1106867 95.81357336 2.10064721 C112.54241808 2.07974218 129.27120123 2.04456359 146 2 C146 2.33 146 2.66 146 3 C122.57 3 99.14 3 75 3 C75 6.96 75 10.92 75 15 C79.95 15 84.9 15 90 15 C90 19.95 90 24.9 90 30 C75.15 30 60.3 30 45 30 C45 21.09 45 12.18 45 3 C35.1 3.33 25.2 3.66 15 4 C15 7.63 15 11.26 15 15 C10.05 15 5.1 15 0 15 C0 10.05 0 5.1 0 0 Z " fill="#FFFFFF" transform="translate(15,330)"/>
<path d="M0 0 C4.29 0 8.58 0 13 0 C13 0.66 13 1.32 13 2 C13.99 2.33 14.98 2.66 16 3 C22.26618674 13.90780655 19.62028566 30.92581167 16.9765625 42.55078125 C15.45178522 47.93629462 13.32106414 52.9173298 11 58 C10.03952603 60.29077032 9.08128083 62.58247609 8.125 64.875 C-0.90423977 85.90423977 -0.90423977 85.90423977 -5 90 C-8.33618231 90.14257189 -11.65975606 90.04228157 -15 90 C-15 85.05 -15 80.1 -15 75 C-10.05 75 -5.1 75 0 75 C0 70.05 0 65.1 0 60 C-4.95 60 -9.9 60 -15 60 C-15 55.05 -15 50.1 -15 45 C-10.05 45 -5.1 45 0 45 C0 40.05 0 35.1 0 30 C4.95 30 9.9 30 15 30 C15 25.05 15 20.1 15 15 C10.05 15 5.1 15 0 15 C0 10.05 0 5.1 0 0 Z " fill="#EEEEEE" transform="translate(30,225)"/>
<path d="M0 0 C3.83319491 0.09050599 5.60754778 0.67036406 8.5625 3.15234375 C22.79783834 19.41804285 28.39635447 34.92308518 27.23706055 56.48510742 C25.73835012 72.38440315 17.99127458 86.24969706 6.9921875 97.63671875 C4.47535769 99.35901993 2.99196633 99.34939081 0 99 C-1.875 97.875 -1.875 97.875 -3 96 C-3 92.07629746 -2.38746474 90.43051638 0.25 87.5 C1.1575 86.675 2.065 85.85 3 85 C13.05225408 74.43224571 16.42737427 61.55769586 16.43920898 47.31884766 C15.96307285 31.86162197 8.99959175 19.62890474 -1.8125 8.88671875 C-3 7 -3 7 -2.8125 4.39453125 C-2 2 -2 2 0 0 Z " fill="#2C2C2C" transform="translate(266,168)"/>
<path d="M0 0 C4.95 0 9.9 0 15 0 C15 3.96 15 7.92 15 12 C13.4325 12.804375 11.865 13.60875 10.25 14.4375 C-9.52835724 25.29023961 -22.87880052 40.08175891 -31 61 C-37.93 60.505 -37.93 60.505 -45 60 C-45 55.05 -45 50.1 -45 45 C-40.05 45 -35.1 45 -30 45 C-30 40.05 -30 35.1 -30 30 C-25.05 30 -20.1 30 -15 30 C-15 25.05 -15 20.1 -15 15 C-10.05 15 -5.1 15 0 15 C0 10.05 0 5.1 0 0 Z " fill="#EDEDED" transform="translate(45,30)"/>
<path d="M0 0 C8.49609375 -0.09765625 8.49609375 -0.09765625 11 0 C12 1 12 1 12 4.6875 C11.12283281 11.80736359 7.50560742 17.87433526 4 24 C3.55785156 24.82113281 3.11570312 25.64226562 2.66015625 26.48828125 C1.21852839 28.6748232 0.33994843 29.80194641 -2 31 C-6.56056551 31.26185065 -10.43641659 30.69850766 -15 30 C-15 25.05 -15 20.1 -15 15 C-10.05 15 -5.1 15 0 15 C0 10.05 0 5.1 0 0 Z " fill="#EEEEEE" transform="translate(270,225)"/>
<path d="M0 0 C4.95 0 9.9 0 15 0 C15.43570312 1.01578125 15.87140625 2.0315625 16.3203125 3.078125 C16.92104865 4.46910718 17.52267461 5.85970526 18.125 7.25 C18.43759766 7.97203613 18.75019531 8.69407227 19.07226562 9.43798828 C21.50568445 15.00166859 24.16986219 20.38438482 27.03125 25.7421875 C27.3509375 26.48726562 27.670625 27.23234375 28 28 C27.67 28.66 27.34 29.32 27 30 C23.04 30 19.08 30 15 30 C15 25.05 15 20.1 15 15 C10.05 15 5.1 15 0 15 C0 10.05 0 5.1 0 0 Z " fill="#EEEEEE" transform="translate(0,165)"/>
<path d="M0 0 C3.96 0 7.92 0 12 0 C12 4.95 12 9.9 12 15 C14.59875 14.87625 14.59875 14.87625 17.25 14.75 C20.64926794 14.78062404 22.61347041 14.81122973 25.6875 16.3125 C27.87022824 20.78189592 27.23429278 25.07985156 27 30 C22.05 30.33 17.1 30.66 12 31 C12.09023437 29.84242188 12.18046875 28.68484375 12.2734375 27.4921875 C12.27121297 22.44471893 10.33941693 19.25491042 7.625 15.125 C7.00625 14.13113281 7.00625 14.13113281 6.375 13.1171875 C4.74153429 10.52471934 3.17236282 8.17236282 1 6 C0.60235737 4.01178687 0.26224651 2.01055661 0 0 Z " fill="#EFEFEF" transform="translate(243,165)"/>
<path d="M0 0 C4.95 0 9.9 0 15 0 C15 4.95 15 9.9 15 15 C19.95 15 24.9 15 30 15 C30 19.95 30 24.9 30 30 C28.55625 29.979375 27.1125 29.95875 25.625 29.9375 C22.17771295 29.84827854 22.17771295 29.84827854 19 31 C18.79246094 30.38253906 18.58492188 29.76507813 18.37109375 29.12890625 C16.23829216 23.26593285 13.65243818 18.83788111 9.5859375 14.10546875 C8 12 8 12 6.984375 9.40625 C5.93083243 6.83092371 5.08770772 5.9212561 2.875 4.3125 C1.92625 3.549375 0.9775 2.78625 0 2 C0 1.34 0 0.68 0 0 Z " fill="#EEEEEE" transform="translate(270,165)"/>
<path d="M0 0 C7.23088906 0 7.23088906 0 11 2 C13.66388474 2.29409882 13.66388474 2.29409882 16.60614014 2.24050903 C17.74754959 2.24325836 18.88895905 2.24600769 20.06495667 2.24884033 C21.31292526 2.24164978 22.56089386 2.23445923 23.84667969 2.22705078 C25.16399582 2.22734283 26.48131195 2.22763489 27.83854675 2.22793579 C31.44775352 2.2285096 35.05682735 2.21675074 38.66600323 2.20278788 C42.43897007 2.19028524 46.21193996 2.18911039 49.98492432 2.18673706 C57.1282211 2.18052092 64.27145667 2.16410829 71.4147265 2.14403808 C79.54766678 2.12168326 87.68061 2.1106867 95.81357336 2.10064721 C112.54241808 2.07974218 129.27120123 2.04456359 146 2 C146 2.33 146 2.66 146 3 C81.155 3.495 81.155 3.495 15 4 C15 7.63 15 11.26 15 15 C10.05 15 5.1 15 0 15 C0 10.05 0 5.1 0 0 Z " fill="#CECECE" transform="translate(15,330)"/>
<path d="M0 0 C2.64 0 5.28 0 8 0 C7.54380388 6.26743282 6.03511835 10.68947138 3.0625 16.1875 C2.34332815 17.5550844 1.62583687 18.92355409 0.91015625 20.29296875 C0.57387207 20.92895996 0.23758789 21.56495117 -0.10888672 22.22021484 C-1.11458366 24.15786717 -1.11458366 24.15786717 -2.12890625 26.92578125 C-3 29 -3 29 -5 30 C-6.70702735 30.06996014 -8.41668003 30.08440154 -10.125 30.0625 C-11.73375 30.041875 -13.3425 30.02125 -15 30 C-15 25.05 -15 20.1 -15 15 C-10.05 15 -5.1 15 0 15 C0 10.05 0 5.1 0 0 Z " fill="#EEEEEE" transform="translate(30,285)"/>
<path d="M0 0 C4.95 0 9.9 0 15 0 C15 4.95 15 9.9 15 15 C11.04 15 7.08 15 3 15 C3.33 16.32 3.66 17.64 4 19 C-1.57142857 13.85714286 -1.57142857 13.85714286 -2 10 C-1.67 10 -1.34 10 -1 10 C-0.67 6.7 -0.34 3.4 0 0 Z " fill="#FDFDFD" transform="translate(240,150)"/>
<path d="M0 0 C1.87056791 0.2275015 3.74685958 0.40962811 5.625 0.5625 C8.285625 0.7790625 8.285625 0.7790625 11 1 C11 5.95 11 10.9 11 16 C6.05 16 1.1 16 -4 16 C-3.93489583 12.41927083 -3.86979167 8.83854167 -3.8046875 5.2578125 C-3.64358476 1.91406662 -3.64358476 1.91406662 -6 0 C-2.25 -1.125 -2.25 -1.125 0 0 Z " fill="#EEEEEE" transform="translate(214,284)"/>
<path d="M0 0 C5.28 0 10.56 0 16 0 C16 4.95 16 9.9 16 15 C11.05 15 6.1 15 1 15 C0.67 10.05 0.34 5.1 0 0 Z " fill="#EEEEEE" transform="translate(164,330)"/>
<path d="M0 0 C4.95 0 9.9 0 15 0 C15 4.95 15 9.9 15 15 C10.05 15 5.1 15 0 15 C0 10.05 0 5.1 0 0 Z " fill="#FFFFFF" transform="translate(345,345)"/>
<path d="M0 0 C4.95 0 9.9 0 15 0 C15 4.95 15 9.9 15 15 C10.05 15 5.1 15 0 15 C0 10.05 0 5.1 0 0 Z " fill="#EFEFEF" transform="translate(330,345)"/>
<path d="M0 0 C4.95 0 9.9 0 15 0 C15 4.95 15 9.9 15 15 C10.05 15 5.1 15 0 15 C0 10.05 0 5.1 0 0 Z " fill="#FFFFFF" transform="translate(315,345)"/>
<path d="M0 0 C4.95 0 9.9 0 15 0 C15 4.95 15 9.9 15 15 C10.05 15 5.1 15 0 15 C0 10.05 0 5.1 0 0 Z " fill="#EFEFEF" transform="translate(300,345)"/>
<path d="M0 0 C4.95 0 9.9 0 15 0 C15 4.95 15 9.9 15 15 C10.05 15 5.1 15 0 15 C0 10.05 0 5.1 0 0 Z " fill="#FFFFFF" transform="translate(285,345)"/>
<path d="M0 0 C4.95 0 9.9 0 15 0 C15 4.95 15 9.9 15 15 C10.05 15 5.1 15 0 15 C0 10.05 0 5.1 0 0 Z " fill="#EFEFEF" transform="translate(270,345)"/>
<path d="M0 0 C4.95 0 9.9 0 15 0 C15 4.95 15 9.9 15 15 C10.05 15 5.1 15 0 15 C0 10.05 0 5.1 0 0 Z " fill="#FFFFFF" transform="translate(255,345)"/>
<path d="M0 0 C4.95 0 9.9 0 15 0 C15 4.95 15 9.9 15 15 C10.05 15 5.1 15 0 15 C0 10.05 0 5.1 0 0 Z " fill="#EFEFEF" transform="translate(240,345)"/>
<path d="M0 0 C4.95 0 9.9 0 15 0 C15 4.95 15 9.9 15 15 C10.05 15 5.1 15 0 15 C0 10.05 0 5.1 0 0 Z " fill="#FFFFFF" transform="translate(225,345)"/>
<path d="M0 0 C4.95 0 9.9 0 15 0 C15 4.95 15 9.9 15 15 C10.05 15 5.1 15 0 15 C0 10.05 0 5.1 0 0 Z " fill="#EFEFEF" transform="translate(210,345)"/>
<path d="M0 0 C4.95 0 9.9 0 15 0 C15 4.95 15 9.9 15 15 C10.05 15 5.1 15 0 15 C0 10.05 0 5.1 0 0 Z " fill="#FFFFFF" transform="translate(195,345)"/>
<path d="M0 0 C4.95 0 9.9 0 15 0 C15 4.95 15 9.9 15 15 C10.05 15 5.1 15 0 15 C0 10.05 0 5.1 0 0 Z " fill="#EFEFEF" transform="translate(180,345)"/>
<path d="M0 0 C4.95 0 9.9 0 15 0 C15 4.95 15 9.9 15 15 C10.05 15 5.1 15 0 15 C0 10.05 0 5.1 0 0 Z " fill="#FFFFFF" transform="translate(165,345)"/>
<path d="M0 0 C4.95 0 9.9 0 15 0 C15 4.95 15 9.9 15 15 C10.05 15 5.1 15 0 15 C0 10.05 0 5.1 0 0 Z " fill="#EFEFEF" transform="translate(150,345)"/>
<path d="M0 0 C4.95 0 9.9 0 15 0 C15 4.95 15 9.9 15 15 C10.05 15 5.1 15 0 15 C0 10.05 0 5.1 0 0 Z " fill="#FFFFFF" transform="translate(135,345)"/>
<path d="M0 0 C4.95 0 9.9 0 15 0 C15 4.95 15 9.9 15 15 C10.05 15 5.1 15 0 15 C0 10.05 0 5.1 0 0 Z " fill="#EFEFEF" transform="translate(120,345)"/>
<path d="M0 0 C4.95 0 9.9 0 15 0 C15 4.95 15 9.9 15 15 C10.05 15 5.1 15 0 15 C0 10.05 0 5.1 0 0 Z " fill="#EFEFEF" transform="translate(90,345)"/>
<path d="M0 0 C4.95 0 9.9 0 15 0 C15 4.95 15 9.9 15 15 C10.05 15 5.1 15 0 15 C0 10.05 0 5.1 0 0 Z " fill="#FFFFFF" transform="translate(75,345)"/>
<path d="M0 0 C4.95 0 9.9 0 15 0 C15 4.95 15 9.9 15 15 C10.05 15 5.1 15 0 15 C0 10.05 0 5.1 0 0 Z " fill="#EFEFEF" transform="translate(60,345)"/>
<path d="M0 0 C4.95 0 9.9 0 15 0 C15 4.95 15 9.9 15 15 C10.05 15 5.1 15 0 15 C0 10.05 0 5.1 0 0 Z " fill="#FFFFFF" transform="translate(45,345)"/>
<path d="M0 0 C4.95 0 9.9 0 15 0 C15 4.95 15 9.9 15 15 C10.05 15 5.1 15 0 15 C0 10.05 0 5.1 0 0 Z " fill="#EFEFEF" transform="translate(30,345)"/>
<path d="M0 0 C4.95 0 9.9 0 15 0 C15 4.95 15 9.9 15 15 C10.05 15 5.1 15 0 15 C0 10.05 0 5.1 0 0 Z " fill="#FFFFFF" transform="translate(15,345)"/>
<path d="M0 0 C4.95 0 9.9 0 15 0 C15 4.95 15 9.9 15 15 C10.05 15 5.1 15 0 15 C0 10.05 0 5.1 0 0 Z " fill="#EFEFEF" transform="translate(0,345)"/>
<path d="M0 0 C4.95 0 9.9 0 15 0 C15 4.95 15 9.9 15 15 C10.05 15 5.1 15 0 15 C0 10.05 0 5.1 0 0 Z " fill="#EFEFEF" transform="translate(345,330)"/>
<path d="M0 0 C4.95 0 9.9 0 15 0 C15 4.95 15 9.9 15 15 C10.05 15 5.1 15 0 15 C0 10.05 0 5.1 0 0 Z " fill="#FFFFFF" transform="translate(330,330)"/>
<path d="M0 0 C4.95 0 9.9 0 15 0 C15 4.95 15 9.9 15 15 C10.05 15 5.1 15 0 15 C0 10.05 0 5.1 0 0 Z " fill="#EFEFEF" transform="translate(315,330)"/>
<path d="M0 0 C4.95 0 9.9 0 15 0 C15 4.95 15 9.9 15 15 C10.05 15 5.1 15 0 15 C0 10.05 0 5.1 0 0 Z " fill="#FFFFFF" transform="translate(300,330)"/>
<path d="M0 0 C4.95 0 9.9 0 15 0 C15 4.95 15 9.9 15 15 C10.05 15 5.1 15 0 15 C0 10.05 0 5.1 0 0 Z " fill="#EFEFEF" transform="translate(285,330)"/>
<path d="M0 0 C4.95 0 9.9 0 15 0 C15 4.95 15 9.9 15 15 C10.05 15 5.1 15 0 15 C0 10.05 0 5.1 0 0 Z " fill="#FFFFFF" transform="translate(270,330)"/>
<path d="M0 0 C4.95 0 9.9 0 15 0 C15 4.95 15 9.9 15 15 C10.05 15 5.1 15 0 15 C0 10.05 0 5.1 0 0 Z " fill="#EFEFEF" transform="translate(255,330)"/>
<path d="M0 0 C4.95 0 9.9 0 15 0 C15 4.95 15 9.9 15 15 C10.05 15 5.1 15 0 15 C0 10.05 0 5.1 0 0 Z " fill="#FFFFFF" transform="translate(240,330)"/>
<path d="M0 0 C4.95 0 9.9 0 15 0 C15 4.95 15 9.9 15 15 C10.05 15 5.1 15 0 15 C0 10.05 0 5.1 0 0 Z " fill="#EFEFEF" transform="translate(225,330)"/>
<path d="M0 0 C4.95 0 9.9 0 15 0 C15 4.95 15 9.9 15 15 C10.05 15 5.1 15 0 15 C0 10.05 0 5.1 0 0 Z " fill="#FFFFFF" transform="translate(210,330)"/>
<path d="M0 0 C4.95 0 9.9 0 15 0 C15 4.95 15 9.9 15 15 C10.05 15 5.1 15 0 15 C0 10.05 0 5.1 0 0 Z " fill="#EFEFEF" transform="translate(195,330)"/>
<path d="M0 0 C4.95 0 9.9 0 15 0 C15 4.95 15 9.9 15 15 C10.05 15 5.1 15 0 15 C0 10.05 0 5.1 0 0 Z " fill="#FFFFFF" transform="translate(180,330)"/>
<path d="M0 0 C4.95 0 9.9 0 15 0 C15 4.95 15 9.9 15 15 C10.05 15 5.1 15 0 15 C0 10.05 0 5.1 0 0 Z " fill="#FFFFFF" transform="translate(0,330)"/>
<path d="M0 0 C4.95 0 9.9 0 15 0 C15 4.95 15 9.9 15 15 C10.05 15 5.1 15 0 15 C0 10.05 0 5.1 0 0 Z " fill="#FFFFFF" transform="translate(345,315)"/>
<path d="M0 0 C4.95 0 9.9 0 15 0 C15 4.95 15 9.9 15 15 C10.05 15 5.1 15 0 15 C0 10.05 0 5.1 0 0 Z " fill="#EFEFEF" transform="translate(330,315)"/>
<path d="M0 0 C4.95 0 9.9 0 15 0 C15 4.95 15 9.9 15 15 C10.05 15 5.1 15 0 15 C0 10.05 0 5.1 0 0 Z " fill="#FFFFFF" transform="translate(315,315)"/>
<path d="M0 0 C4.95 0 9.9 0 15 0 C15 4.95 15 9.9 15 15 C10.05 15 5.1 15 0 15 C0 10.05 0 5.1 0 0 Z " fill="#FFFFFF" transform="translate(285,315)"/>
<path d="M0 0 C4.95 0 9.9 0 15 0 C15 4.95 15 9.9 15 15 C10.05 15 5.1 15 0 15 C0 10.05 0 5.1 0 0 Z " fill="#EFEFEF" transform="translate(270,315)"/>
<path d="M0 0 C4.95 0 9.9 0 15 0 C15 4.95 15 9.9 15 15 C10.05 15 5.1 15 0 15 C0 10.05 0 5.1 0 0 Z " fill="#FFFFFF" transform="translate(255,315)"/>
<path d="M0 0 C4.95 0 9.9 0 15 0 C15 4.95 15 9.9 15 15 C10.05 15 5.1 15 0 15 C0 10.05 0 5.1 0 0 Z " fill="#EFEFEF" transform="translate(240,315)"/>
<path d="M0 0 C4.95 0 9.9 0 15 0 C15 4.95 15 9.9 15 15 C10.05 15 5.1 15 0 15 C0 10.05 0 5.1 0 0 Z " fill="#FFFFFF" transform="translate(225,315)"/>
<path d="M0 0 C4.95 0 9.9 0 15 0 C15 4.95 15 9.9 15 15 C10.05 15 5.1 15 0 15 C0 10.05 0 5.1 0 0 Z " fill="#EFEFEF" transform="translate(210,315)"/>
<path d="M0 0 C4.95 0 9.9 0 15 0 C15 4.95 15 9.9 15 15 C10.05 15 5.1 15 0 15 C0 10.05 0 5.1 0 0 Z " fill="#FFFFFF" transform="translate(195,315)"/>
<path d="M0 0 C4.95 0 9.9 0 15 0 C15 4.95 15 9.9 15 15 C10.05 15 5.1 15 0 15 C0 10.05 0 5.1 0 0 Z " fill="#EFEFEF" transform="translate(180,315)"/>
<path d="M0 0 C4.95 0 9.9 0 15 0 C15 4.95 15 9.9 15 15 C10.05 15 5.1 15 0 15 C0 10.05 0 5.1 0 0 Z " fill="#FFFFFF" transform="translate(330,300)"/>
<path d="M0 0 C4.95 0 9.9 0 15 0 C15 4.95 15 9.9 15 15 C10.05 15 5.1 15 0 15 C0 10.05 0 5.1 0 0 Z " fill="#FFFFFF" transform="translate(270,300)"/>
<path d="M0 0 C4.95 0 9.9 0 15 0 C15 4.95 15 9.9 15 15 C10.05 15 5.1 15 0 15 C0 10.05 0 5.1 0 0 Z " fill="#EFEFEF" transform="translate(255,300)"/>
<path d="M0 0 C4.95 0 9.9 0 15 0 C15 4.95 15 9.9 15 15 C10.05 15 5.1 15 0 15 C0 10.05 0 5.1 0 0 Z " fill="#FFFFFF" transform="translate(240,300)"/>
<path d="M0 0 C4.95 0 9.9 0 15 0 C15 4.95 15 9.9 15 15 C10.05 15 5.1 15 0 15 C0 10.05 0 5.1 0 0 Z " fill="#EFEFEF" transform="translate(225,300)"/>
<path d="M0 0 C4.95 0 9.9 0 15 0 C15 4.95 15 9.9 15 15 C10.05 15 5.1 15 0 15 C0 10.05 0 5.1 0 0 Z " fill="#FFFFFF" transform="translate(210,300)"/>
<path d="M0 0 C4.95 0 9.9 0 15 0 C15 4.95 15 9.9 15 15 C10.05 15 5.1 15 0 15 C0 10.05 0 5.1 0 0 Z " fill="#EFEFEF" transform="translate(195,300)"/>
<path d="M0 0 C4.95 0 9.9 0 15 0 C15 4.95 15 9.9 15 15 C10.05 15 5.1 15 0 15 C0 10.05 0 5.1 0 0 Z " fill="#FFFFFF" transform="translate(180,300)"/>
<path d="M0 0 C4.95 0 9.9 0 15 0 C15 4.95 15 9.9 15 15 C10.05 15 5.1 15 0 15 C0 10.05 0 5.1 0 0 Z " fill="#FFFFFF" transform="translate(0,300)"/>
<path d="M0 0 C4.95 0 9.9 0 15 0 C15 4.95 15 9.9 15 15 C10.05 15 5.1 15 0 15 C0 10.05 0 5.1 0 0 Z " fill="#FFFFFF" transform="translate(345,285)"/>
<path d="M0 0 C4.95 0 9.9 0 15 0 C15 4.95 15 9.9 15 15 C10.05 15 5.1 15 0 15 C0 10.05 0 5.1 0 0 Z " fill="#FFFFFF" transform="translate(255,285)"/>
<path d="M0 0 C4.95 0 9.9 0 15 0 C15 4.95 15 9.9 15 15 C10.05 15 5.1 15 0 15 C0 10.05 0 5.1 0 0 Z " fill="#EFEFEF" transform="translate(240,285)"/>
<path d="M0 0 C4.95 0 9.9 0 15 0 C15 4.95 15 9.9 15 15 C10.05 15 5.1 15 0 15 C0 10.05 0 5.1 0 0 Z " fill="#FFFFFF" transform="translate(225,285)"/>
<path d="M0 0 C4.95 0 9.9 0 15 0 C15 4.95 15 9.9 15 15 C10.05 15 5.1 15 0 15 C0 10.05 0 5.1 0 0 Z " fill="#FFFFFF" transform="translate(15,285)"/>
<path d="M0 0 C4.95 0 9.9 0 15 0 C15 4.95 15 9.9 15 15 C10.05 15 5.1 15 0 15 C0 10.05 0 5.1 0 0 Z " fill="#EFEFEF" transform="translate(0,285)"/>
<path d="M0 0 C4.95 0 9.9 0 15 0 C15 4.95 15 9.9 15 15 C10.05 15 5.1 15 0 15 C0 10.05 0 5.1 0 0 Z " fill="#EFEFEF" transform="translate(345,270)"/>
<path d="M0 0 C4.95 0 9.9 0 15 0 C15 4.95 15 9.9 15 15 C10.05 15 5.1 15 0 15 C0 10.05 0 5.1 0 0 Z " fill="#EFEFEF" transform="translate(255,270)"/>
<path d="M0 0 C4.95 0 9.9 0 15 0 C15 4.95 15 9.9 15 15 C10.05 15 5.1 15 0 15 C0 10.05 0 5.1 0 0 Z " fill="#FFFFFF" transform="translate(240,270)"/>
<path d="M0 0 C4.95 0 9.9 0 15 0 C15 4.95 15 9.9 15 15 C10.05 15 5.1 15 0 15 C0 10.05 0 5.1 0 0 Z " fill="#FFFFFF" transform="translate(0,270)"/>
<path d="M0 0 C4.95 0 9.9 0 15 0 C15 4.95 15 9.9 15 15 C10.05 15 5.1 15 0 15 C0 10.05 0 5.1 0 0 Z " fill="#FFFFFF" transform="translate(15,255)"/>
<path d="M0 0 C4.95 0 9.9 0 15 0 C15 4.95 15 9.9 15 15 C10.05 15 5.1 15 0 15 C0 10.05 0 5.1 0 0 Z " fill="#EFEFEF" transform="translate(0,255)"/>
<path d="M0 0 C4.95 0 9.9 0 15 0 C15 4.95 15 9.9 15 15 C10.05 15 5.1 15 0 15 C0 10.05 0 5.1 0 0 Z " fill="#FFFFFF" transform="translate(240,240)"/>
<path d="M0 0 C4.95 0 9.9 0 15 0 C15 4.95 15 9.9 15 15 C10.05 15 5.1 15 0 15 C0 10.05 0 5.1 0 0 Z " fill="#FFFFFF" transform="translate(30,240)"/>
<path d="M0 0 C4.95 0 9.9 0 15 0 C15 4.95 15 9.9 15 15 C10.05 15 5.1 15 0 15 C0 10.05 0 5.1 0 0 Z " fill="#EFEFEF" transform="translate(15,240)"/>
<path d="M0 0 C4.95 0 9.9 0 15 0 C15 4.95 15 9.9 15 15 C10.05 15 5.1 15 0 15 C0 10.05 0 5.1 0 0 Z " fill="#FFFFFF" transform="translate(0,240)"/>
<path d="M0 0 C4.95 0 9.9 0 15 0 C15 4.95 15 9.9 15 15 C10.05 15 5.1 15 0 15 C0 10.05 0 5.1 0 0 Z " fill="#FFFFFF" transform="translate(255,225)"/>
<path d="M0 0 C4.95 0 9.9 0 15 0 C15 4.95 15 9.9 15 15 C10.05 15 5.1 15 0 15 C0 10.05 0 5.1 0 0 Z " fill="#FFFFFF" transform="translate(15,225)"/>
<path d="M0 0 C4.95 0 9.9 0 15 0 C15 4.95 15 9.9 15 15 C10.05 15 5.1 15 0 15 C0 10.05 0 5.1 0 0 Z " fill="#EFEFEF" transform="translate(0,225)"/>
<path d="M0 0 C4.95 0 9.9 0 15 0 C15 4.95 15 9.9 15 15 C10.05 15 5.1 15 0 15 C0 10.05 0 5.1 0 0 Z " fill="#EFEFEF" transform="translate(255,210)"/>
<path d="M0 0 C4.95 0 9.9 0 15 0 C15 4.95 15 9.9 15 15 C10.05 15 5.1 15 0 15 C0 10.05 0 5.1 0 0 Z " fill="#EFEFEF" transform="translate(15,210)"/>
<path d="M0 0 C4.95 0 9.9 0 15 0 C15 4.95 15 9.9 15 15 C10.05 15 5.1 15 0 15 C0 10.05 0 5.1 0 0 Z " fill="#FFFFFF" transform="translate(0,210)"/>
<path d="M0 0 C4.95 0 9.9 0 15 0 C15 4.95 15 9.9 15 15 C10.05 15 5.1 15 0 15 C0 10.05 0 5.1 0 0 Z " fill="#FFFFFF" transform="translate(0,180)"/>
<path d="M0 0 C4.95 0 9.9 0 15 0 C15 4.95 15 9.9 15 15 C10.05 15 5.1 15 0 15 C0 10.05 0 5.1 0 0 Z " fill="#EFEFEF" transform="translate(345,150)"/>
<path d="M0 0 C4.95 0 9.9 0 15 0 C15 4.95 15 9.9 15 15 C10.05 15 5.1 15 0 15 C0 10.05 0 5.1 0 0 Z " fill="#EFEFEF" transform="translate(255,150)"/>
<path d="M0 0 C4.95 0 9.9 0 15 0 C15 4.95 15 9.9 15 15 C10.05 15 5.1 15 0 15 C0 10.05 0 5.1 0 0 Z " fill="#FFFFFF" transform="translate(345,135)"/>
<path d="M0 0 C4.95 0 9.9 0 15 0 C15 4.95 15 9.9 15 15 C10.05 15 5.1 15 0 15 C0 10.05 0 5.1 0 0 Z " fill="#FFFFFF" transform="translate(255,135)"/>
<path d="M0 0 C4.95 0 9.9 0 15 0 C15 4.95 15 9.9 15 15 C10.05 15 5.1 15 0 15 C0 10.05 0 5.1 0 0 Z " fill="#EFEFEF" transform="translate(240,135)"/>
<path d="M0 0 C4.95 0 9.9 0 15 0 C15 4.95 15 9.9 15 15 C10.05 15 5.1 15 0 15 C0 10.05 0 5.1 0 0 Z " fill="#EFEFEF" transform="translate(345,120)"/>
<path d="M0 0 C4.95 0 9.9 0 15 0 C15 4.95 15 9.9 15 15 C10.05 15 5.1 15 0 15 C0 10.05 0 5.1 0 0 Z " fill="#FFFFFF" transform="translate(330,120)"/>
<path d="M0 0 C4.95 0 9.9 0 15 0 C15 4.95 15 9.9 15 15 C10.05 15 5.1 15 0 15 C0 10.05 0 5.1 0 0 Z " fill="#FFFFFF" transform="translate(270,120)"/>
<path d="M0 0 C4.95 0 9.9 0 15 0 C15 4.95 15 9.9 15 15 C10.05 15 5.1 15 0 15 C0 10.05 0 5.1 0 0 Z " fill="#FFFFFF" transform="translate(240,120)"/>
<path d="M0 0 C4.95 0 9.9 0 15 0 C15 4.95 15 9.9 15 15 C10.05 15 5.1 15 0 15 C0 10.05 0 5.1 0 0 Z " fill="#FFFFFF" transform="translate(345,105)"/>
<path d="M0 0 C4.95 0 9.9 0 15 0 C15 4.95 15 9.9 15 15 C10.05 15 5.1 15 0 15 C0 10.05 0 5.1 0 0 Z " fill="#EFEFEF" transform="translate(330,105)"/>
<path d="M0 0 C4.95 0 9.9 0 15 0 C15 4.95 15 9.9 15 15 C10.05 15 5.1 15 0 15 C0 10.05 0 5.1 0 0 Z " fill="#FFFFFF" transform="translate(315,105)"/>
<path d="M0 0 C4.95 0 9.9 0 15 0 C15 4.95 15 9.9 15 15 C10.05 15 5.1 15 0 15 C0 10.05 0 5.1 0 0 Z " fill="#FFFFFF" transform="translate(285,105)"/>
<path d="M0 0 C4.95 0 9.9 0 15 0 C15 4.95 15 9.9 15 15 C10.05 15 5.1 15 0 15 C0 10.05 0 5.1 0 0 Z " fill="#FFFFFF" transform="translate(255,105)"/>
<path d="M0 0 C4.95 0 9.9 0 15 0 C15 4.95 15 9.9 15 15 C10.05 15 5.1 15 0 15 C0 10.05 0 5.1 0 0 Z " fill="#EFEFEF" transform="translate(345,90)"/>
<path d="M0 0 C4.95 0 9.9 0 15 0 C15 4.95 15 9.9 15 15 C10.05 15 5.1 15 0 15 C0 10.05 0 5.1 0 0 Z " fill="#FFFFFF" transform="translate(330,90)"/>
<path d="M0 0 C4.95 0 9.9 0 15 0 C15 4.95 15 9.9 15 15 C10.05 15 5.1 15 0 15 C0 10.05 0 5.1 0 0 Z " fill="#EFEFEF" transform="translate(315,90)"/>
<path d="M0 0 C4.95 0 9.9 0 15 0 C15 4.95 15 9.9 15 15 C10.05 15 5.1 15 0 15 C0 10.05 0 5.1 0 0 Z " fill="#FFFFFF" transform="translate(300,90)"/>
<path d="M0 0 C4.95 0 9.9 0 15 0 C15 4.95 15 9.9 15 15 C10.05 15 5.1 15 0 15 C0 10.05 0 5.1 0 0 Z " fill="#EFEFEF" transform="translate(285,90)"/>
<path d="M0 0 C4.95 0 9.9 0 15 0 C15 4.95 15 9.9 15 15 C10.05 15 5.1 15 0 15 C0 10.05 0 5.1 0 0 Z " fill="#FFFFFF" transform="translate(270,90)"/>
<path d="M0 0 C4.95 0 9.9 0 15 0 C15 4.95 15 9.9 15 15 C10.05 15 5.1 15 0 15 C0 10.05 0 5.1 0 0 Z " fill="#EFEFEF" transform="translate(255,90)"/>
<path d="M0 0 C4.95 0 9.9 0 15 0 C15 4.95 15 9.9 15 15 C10.05 15 5.1 15 0 15 C0 10.05 0 5.1 0 0 Z " fill="#FFFFFF" transform="translate(240,90)"/>
<path d="M0 0 C4.95 0 9.9 0 15 0 C15 4.95 15 9.9 15 15 C10.05 15 5.1 15 0 15 C0 10.05 0 5.1 0 0 Z " fill="#FFFFFF" transform="translate(345,75)"/>
<path d="M0 0 C4.95 0 9.9 0 15 0 C15 4.95 15 9.9 15 15 C10.05 15 5.1 15 0 15 C0 10.05 0 5.1 0 0 Z " fill="#EFEFEF" transform="translate(330,75)"/>
<path d="M0 0 C4.95 0 9.9 0 15 0 C15 4.95 15 9.9 15 15 C10.05 15 5.1 15 0 15 C0 10.05 0 5.1 0 0 Z " fill="#FFFFFF" transform="translate(315,75)"/>
<path d="M0 0 C4.95 0 9.9 0 15 0 C15 4.95 15 9.9 15 15 C10.05 15 5.1 15 0 15 C0 10.05 0 5.1 0 0 Z " fill="#EFEFEF" transform="translate(300,75)"/>
<path d="M0 0 C4.95 0 9.9 0 15 0 C15 4.95 15 9.9 15 15 C10.05 15 5.1 15 0 15 C0 10.05 0 5.1 0 0 Z " fill="#FFFFFF" transform="translate(285,75)"/>
<path d="M0 0 C4.95 0 9.9 0 15 0 C15 4.95 15 9.9 15 15 C10.05 15 5.1 15 0 15 C0 10.05 0 5.1 0 0 Z " fill="#EFEFEF" transform="translate(270,75)"/>
<path d="M0 0 C4.95 0 9.9 0 15 0 C15 4.95 15 9.9 15 15 C10.05 15 5.1 15 0 15 C0 10.05 0 5.1 0 0 Z " fill="#FFFFFF" transform="translate(255,75)"/>
<path d="M0 0 C4.95 0 9.9 0 15 0 C15 4.95 15 9.9 15 15 C10.05 15 5.1 15 0 15 C0 10.05 0 5.1 0 0 Z " fill="#EFEFEF" transform="translate(345,60)"/>
<path d="M0 0 C4.95 0 9.9 0 15 0 C15 4.95 15 9.9 15 15 C10.05 15 5.1 15 0 15 C0 10.05 0 5.1 0 0 Z " fill="#FFFFFF" transform="translate(330,60)"/>
<path d="M0 0 C4.95 0 9.9 0 15 0 C15 4.95 15 9.9 15 15 C10.05 15 5.1 15 0 15 C0 10.05 0 5.1 0 0 Z " fill="#EFEFEF" transform="translate(315,60)"/>
<path d="M0 0 C4.95 0 9.9 0 15 0 C15 4.95 15 9.9 15 15 C10.05 15 5.1 15 0 15 C0 10.05 0 5.1 0 0 Z " fill="#FFFFFF" transform="translate(300,60)"/>
<path d="M0 0 C4.95 0 9.9 0 15 0 C15 4.95 15 9.9 15 15 C10.05 15 5.1 15 0 15 C0 10.05 0 5.1 0 0 Z " fill="#EFEFEF" transform="translate(285,60)"/>
<path d="M0 0 C4.95 0 9.9 0 15 0 C15 4.95 15 9.9 15 15 C10.05 15 5.1 15 0 15 C0 10.05 0 5.1 0 0 Z " fill="#FFFFFF" transform="translate(270,60)"/>
<path d="M0 0 C4.95 0 9.9 0 15 0 C15 4.95 15 9.9 15 15 C10.05 15 5.1 15 0 15 C0 10.05 0 5.1 0 0 Z " fill="#EFEFEF" transform="translate(255,60)"/>
<path d="M0 0 C4.95 0 9.9 0 15 0 C15 4.95 15 9.9 15 15 C10.05 15 5.1 15 0 15 C0 10.05 0 5.1 0 0 Z " fill="#FFFFFF" transform="translate(240,60)"/>
<path d="M0 0 C4.95 0 9.9 0 15 0 C15 4.95 15 9.9 15 15 C10.05 15 5.1 15 0 15 C0 10.05 0 5.1 0 0 Z " fill="#FFFFFF" transform="translate(0,60)"/>
<path d="M0 0 C4.95 0 9.9 0 15 0 C15 4.95 15 9.9 15 15 C10.05 15 5.1 15 0 15 C0 10.05 0 5.1 0 0 Z " fill="#FFFFFF" transform="translate(345,45)"/>
<path d="M0 0 C4.95 0 9.9 0 15 0 C15 4.95 15 9.9 15 15 C10.05 15 5.1 15 0 15 C0 10.05 0 5.1 0 0 Z " fill="#EFEFEF" transform="translate(330,45)"/>
<path d="M0 0 C4.95 0 9.9 0 15 0 C15 4.95 15 9.9 15 15 C10.05 15 5.1 15 0 15 C0 10.05 0 5.1 0 0 Z " fill="#FFFFFF" transform="translate(315,45)"/>
<path d="M0 0 C4.95 0 9.9 0 15 0 C15 4.95 15 9.9 15 15 C10.05 15 5.1 15 0 15 C0 10.05 0 5.1 0 0 Z " fill="#EFEFEF" transform="translate(300,45)"/>
<path d="M0 0 C4.95 0 9.9 0 15 0 C15 4.95 15 9.9 15 15 C10.05 15 5.1 15 0 15 C0 10.05 0 5.1 0 0 Z " fill="#FFFFFF" transform="translate(285,45)"/>
<path d="M0 0 C4.95 0 9.9 0 15 0 C15 4.95 15 9.9 15 15 C10.05 15 5.1 15 0 15 C0 10.05 0 5.1 0 0 Z " fill="#EFEFEF" transform="translate(270,45)"/>
<path d="M0 0 C4.95 0 9.9 0 15 0 C15 4.95 15 9.9 15 15 C10.05 15 5.1 15 0 15 C0 10.05 0 5.1 0 0 Z " fill="#FFFFFF" transform="translate(255,45)"/>
<path d="M0 0 C4.95 0 9.9 0 15 0 C15 4.95 15 9.9 15 15 C10.05 15 5.1 15 0 15 C0 10.05 0 5.1 0 0 Z " fill="#EFEFEF" transform="translate(240,45)"/>
<path d="M0 0 C4.95 0 9.9 0 15 0 C15 4.95 15 9.9 15 15 C10.05 15 5.1 15 0 15 C0 10.05 0 5.1 0 0 Z " fill="#FFFFFF" transform="translate(225,45)"/>
<path d="M0 0 C4.95 0 9.9 0 15 0 C15 4.95 15 9.9 15 15 C10.05 15 5.1 15 0 15 C0 10.05 0 5.1 0 0 Z " fill="#FFFFFF" transform="translate(15,45)"/>
<path d="M0 0 C4.95 0 9.9 0 15 0 C15 4.95 15 9.9 15 15 C10.05 15 5.1 15 0 15 C0 10.05 0 5.1 0 0 Z " fill="#EFEFEF" transform="translate(0,45)"/>
<path d="M0 0 C4.95 0 9.9 0 15 0 C15 4.95 15 9.9 15 15 C10.05 15 5.1 15 0 15 C0 10.05 0 5.1 0 0 Z " fill="#EFEFEF" transform="translate(345,30)"/>
<path d="M0 0 C4.95 0 9.9 0 15 0 C15 4.95 15 9.9 15 15 C10.05 15 5.1 15 0 15 C0 10.05 0 5.1 0 0 Z " fill="#FFFFFF" transform="translate(330,30)"/>
<path d="M0 0 C4.95 0 9.9 0 15 0 C15 4.95 15 9.9 15 15 C10.05 15 5.1 15 0 15 C0 10.05 0 5.1 0 0 Z " fill="#EFEFEF" transform="translate(315,30)"/>
<path d="M0 0 C4.95 0 9.9 0 15 0 C15 4.95 15 9.9 15 15 C10.05 15 5.1 15 0 15 C0 10.05 0 5.1 0 0 Z " fill="#FFFFFF" transform="translate(300,30)"/>
<path d="M0 0 C4.95 0 9.9 0 15 0 C15 4.95 15 9.9 15 15 C10.05 15 5.1 15 0 15 C0 10.05 0 5.1 0 0 Z " fill="#EFEFEF" transform="translate(285,30)"/>
<path d="M0 0 C4.95 0 9.9 0 15 0 C15 4.95 15 9.9 15 15 C10.05 15 5.1 15 0 15 C0 10.05 0 5.1 0 0 Z " fill="#FFFFFF" transform="translate(270,30)"/>
<path d="M0 0 C4.95 0 9.9 0 15 0 C15 4.95 15 9.9 15 15 C10.05 15 5.1 15 0 15 C0 10.05 0 5.1 0 0 Z " fill="#EFEFEF" transform="translate(255,30)"/>
<path d="M0 0 C4.95 0 9.9 0 15 0 C15 4.95 15 9.9 15 15 C10.05 15 5.1 15 0 15 C0 10.05 0 5.1 0 0 Z " fill="#FFFFFF" transform="translate(240,30)"/>
<path d="M0 0 C4.95 0 9.9 0 15 0 C15 4.95 15 9.9 15 15 C10.05 15 5.1 15 0 15 C0 10.05 0 5.1 0 0 Z " fill="#EFEFEF" transform="translate(225,30)"/>
<path d="M0 0 C4.95 0 9.9 0 15 0 C15 4.95 15 9.9 15 15 C10.05 15 5.1 15 0 15 C0 10.05 0 5.1 0 0 Z " fill="#FFFFFF" transform="translate(210,30)"/>
<path d="M0 0 C4.95 0 9.9 0 15 0 C15 4.95 15 9.9 15 15 C10.05 15 5.1 15 0 15 C0 10.05 0 5.1 0 0 Z " fill="#FFFFFF" transform="translate(30,30)"/>
<path d="M0 0 C4.95 0 9.9 0 15 0 C15 4.95 15 9.9 15 15 C10.05 15 5.1 15 0 15 C0 10.05 0 5.1 0 0 Z " fill="#EFEFEF" transform="translate(15,30)"/>
<path d="M0 0 C4.95 0 9.9 0 15 0 C15 4.95 15 9.9 15 15 C10.05 15 5.1 15 0 15 C0 10.05 0 5.1 0 0 Z " fill="#FFFFFF" transform="translate(0,30)"/>
<path d="M0 0 C4.95 0 9.9 0 15 0 C15 4.95 15 9.9 15 15 C10.05 15 5.1 15 0 15 C0 10.05 0 5.1 0 0 Z " fill="#FFFFFF" transform="translate(345,15)"/>
<path d="M0 0 C4.95 0 9.9 0 15 0 C15 4.95 15 9.9 15 15 C10.05 15 5.1 15 0 15 C0 10.05 0 5.1 0 0 Z " fill="#EFEFEF" transform="translate(330,15)"/>
<path d="M0 0 C4.95 0 9.9 0 15 0 C15 4.95 15 9.9 15 15 C10.05 15 5.1 15 0 15 C0 10.05 0 5.1 0 0 Z " fill="#FFFFFF" transform="translate(315,15)"/>
<path d="M0 0 C4.95 0 9.9 0 15 0 C15 4.95 15 9.9 15 15 C10.05 15 5.1 15 0 15 C0 10.05 0 5.1 0 0 Z " fill="#EFEFEF" transform="translate(300,15)"/>
<path d="M0 0 C4.95 0 9.9 0 15 0 C15 4.95 15 9.9 15 15 C10.05 15 5.1 15 0 15 C0 10.05 0 5.1 0 0 Z " fill="#FFFFFF" transform="translate(285,15)"/>
<path d="M0 0 C4.95 0 9.9 0 15 0 C15 4.95 15 9.9 15 15 C10.05 15 5.1 15 0 15 C0 10.05 0 5.1 0 0 Z " fill="#EFEFEF" transform="translate(270,15)"/>
<path d="M0 0 C4.95 0 9.9 0 15 0 C15 4.95 15 9.9 15 15 C10.05 15 5.1 15 0 15 C0 10.05 0 5.1 0 0 Z " fill="#FFFFFF" transform="translate(255,15)"/>
<path d="M0 0 C4.95 0 9.9 0 15 0 C15 4.95 15 9.9 15 15 C10.05 15 5.1 15 0 15 C0 10.05 0 5.1 0 0 Z " fill="#EFEFEF" transform="translate(240,15)"/>
<path d="M0 0 C4.95 0 9.9 0 15 0 C15 4.95 15 9.9 15 15 C10.05 15 5.1 15 0 15 C0 10.05 0 5.1 0 0 Z " fill="#FFFFFF" transform="translate(225,15)"/>
<path d="M0 0 C4.95 0 9.9 0 15 0 C15 4.95 15 9.9 15 15 C10.05 15 5.1 15 0 15 C0 10.05 0 5.1 0 0 Z " fill="#EFEFEF" transform="translate(210,15)"/>
<path d="M0 0 C4.95 0 9.9 0 15 0 C15 4.95 15 9.9 15 15 C10.05 15 5.1 15 0 15 C0 10.05 0 5.1 0 0 Z " fill="#FFFFFF" transform="translate(195,15)"/>
<path d="M0 0 C4.95 0 9.9 0 15 0 C15 4.95 15 9.9 15 15 C10.05 15 5.1 15 0 15 C0 10.05 0 5.1 0 0 Z " fill="#FFFFFF" transform="translate(165,15)"/>
<path d="M0 0 C4.95 0 9.9 0 15 0 C15 4.95 15 9.9 15 15 C10.05 15 5.1 15 0 15 C0 10.05 0 5.1 0 0 Z " fill="#EFEFEF" transform="translate(60,15)"/>
<path d="M0 0 C4.95 0 9.9 0 15 0 C15 4.95 15 9.9 15 15 C10.05 15 5.1 15 0 15 C0 10.05 0 5.1 0 0 Z " fill="#FFFFFF" transform="translate(45,15)"/>
<path d="M0 0 C4.95 0 9.9 0 15 0 C15 4.95 15 9.9 15 15 C10.05 15 5.1 15 0 15 C0 10.05 0 5.1 0 0 Z " fill="#EFEFEF" transform="translate(30,15)"/>
<path d="M0 0 C4.95 0 9.9 0 15 0 C15 4.95 15 9.9 15 15 C10.05 15 5.1 15 0 15 C0 10.05 0 5.1 0 0 Z " fill="#FFFFFF" transform="translate(15,15)"/>
<path d="M0 0 C4.95 0 9.9 0 15 0 C15 4.95 15 9.9 15 15 C10.05 15 5.1 15 0 15 C0 10.05 0 5.1 0 0 Z " fill="#EFEFEF" transform="translate(0,15)"/>
<path d="M0 0 C4.95 0 9.9 0 15 0 C15 4.95 15 9.9 15 15 C10.05 15 5.1 15 0 15 C0 10.05 0 5.1 0 0 Z " fill="#EFEFEF" transform="translate(345,0)"/>
<path d="M0 0 C4.95 0 9.9 0 15 0 C15 4.95 15 9.9 15 15 C10.05 15 5.1 15 0 15 C0 10.05 0 5.1 0 0 Z " fill="#FFFFFF" transform="translate(330,0)"/>
<path d="M0 0 C4.95 0 9.9 0 15 0 C15 4.95 15 9.9 15 15 C10.05 15 5.1 15 0 15 C0 10.05 0 5.1 0 0 Z " fill="#EFEFEF" transform="translate(315,0)"/>
<path d="M0 0 C4.95 0 9.9 0 15 0 C15 4.95 15 9.9 15 15 C10.05 15 5.1 15 0 15 C0 10.05 0 5.1 0 0 Z " fill="#FFFFFF" transform="translate(300,0)"/>
<path d="M0 0 C4.95 0 9.9 0 15 0 C15 4.95 15 9.9 15 15 C10.05 15 5.1 15 0 15 C0 10.05 0 5.1 0 0 Z " fill="#EFEFEF" transform="translate(285,0)"/>
<path d="M0 0 C4.95 0 9.9 0 15 0 C15 4.95 15 9.9 15 15 C10.05 15 5.1 15 0 15 C0 10.05 0 5.1 0 0 Z " fill="#FFFFFF" transform="translate(270,0)"/>
<path d="M0 0 C4.95 0 9.9 0 15 0 C15 4.95 15 9.9 15 15 C10.05 15 5.1 15 0 15 C0 10.05 0 5.1 0 0 Z " fill="#EFEFEF" transform="translate(255,0)"/>
<path d="M0 0 C4.95 0 9.9 0 15 0 C15 4.95 15 9.9 15 15 C10.05 15 5.1 15 0 15 C0 10.05 0 5.1 0 0 Z " fill="#FFFFFF" transform="translate(240,0)"/>
<path d="M0 0 C4.95 0 9.9 0 15 0 C15 4.95 15 9.9 15 15 C10.05 15 5.1 15 0 15 C0 10.05 0 5.1 0 0 Z " fill="#EFEFEF" transform="translate(225,0)"/>
<path d="M0 0 C4.95 0 9.9 0 15 0 C15 4.95 15 9.9 15 15 C10.05 15 5.1 15 0 15 C0 10.05 0 5.1 0 0 Z " fill="#FFFFFF" transform="translate(210,0)"/>
<path d="M0 0 C4.95 0 9.9 0 15 0 C15 4.95 15 9.9 15 15 C10.05 15 5.1 15 0 15 C0 10.05 0 5.1 0 0 Z " fill="#EFEFEF" transform="translate(195,0)"/>
<path d="M0 0 C4.95 0 9.9 0 15 0 C15 4.95 15 9.9 15 15 C10.05 15 5.1 15 0 15 C0 10.05 0 5.1 0 0 Z " fill="#FFFFFF" transform="translate(180,0)"/>
<path d="M0 0 C4.95 0 9.9 0 15 0 C15 4.95 15 9.9 15 15 C10.05 15 5.1 15 0 15 C0 10.05 0 5.1 0 0 Z " fill="#EFEFEF" transform="translate(165,0)"/>
<path d="M0 0 C4.95 0 9.9 0 15 0 C15 4.95 15 9.9 15 15 C10.05 15 5.1 15 0 15 C0 10.05 0 5.1 0 0 Z " fill="#FFFFFF" transform="translate(150,0)"/>
<path d="M0 0 C4.95 0 9.9 0 15 0 C15 4.95 15 9.9 15 15 C10.05 15 5.1 15 0 15 C0 10.05 0 5.1 0 0 Z " fill="#EFEFEF" transform="translate(135,0)"/>
<path d="M0 0 C4.95 0 9.9 0 15 0 C15 4.95 15 9.9 15 15 C10.05 15 5.1 15 0 15 C0 10.05 0 5.1 0 0 Z " fill="#FFFFFF" transform="translate(120,0)"/>
<path d="M0 0 C4.95 0 9.9 0 15 0 C15 4.95 15 9.9 15 15 C10.05 15 5.1 15 0 15 C0 10.05 0 5.1 0 0 Z " fill="#FFFFFF" transform="translate(90,0)"/>
<path d="M0 0 C4.95 0 9.9 0 15 0 C15 4.95 15 9.9 15 15 C10.05 15 5.1 15 0 15 C0 10.05 0 5.1 0 0 Z " fill="#EFEFEF" transform="translate(75,0)"/>
<path d="M0 0 C4.95 0 9.9 0 15 0 C15 4.95 15 9.9 15 15 C10.05 15 5.1 15 0 15 C0 10.05 0 5.1 0 0 Z " fill="#FFFFFF" transform="translate(60,0)"/>
<path d="M0 0 C4.95 0 9.9 0 15 0 C15 4.95 15 9.9 15 15 C10.05 15 5.1 15 0 15 C0 10.05 0 5.1 0 0 Z " fill="#EFEFEF" transform="translate(45,0)"/>
<path d="M0 0 C4.95 0 9.9 0 15 0 C15 4.95 15 9.9 15 15 C10.05 15 5.1 15 0 15 C0 10.05 0 5.1 0 0 Z " fill="#FFFFFF" transform="translate(30,0)"/>
<path d="M0 0 C4.95 0 9.9 0 15 0 C15 4.95 15 9.9 15 15 C10.05 15 5.1 15 0 15 C0 10.05 0 5.1 0 0 Z " fill="#FFFFFF" transform="translate(0,0)"/>
<path d="M0 0 C4.95 0 9.9 0 15 0 C15 4.95 15 9.9 15 15 C10.05 15 5.1 15 0 15 C0 10.05 0 5.1 0 0 Z " fill="#EEEEEE" transform="translate(270,135)"/>
<path d="M0 0 C-0.33 4.95 -0.66 9.9 -1 15 C-5.95 15 -10.9 15 -16 15 C-16 11.04 -16 7.08 -16 3 C-18.31 3 -20.62 3 -23 3 C-23 2.67 -23 2.34 -23 2 C-20.29215006 1.66227261 -17.58383004 1.32969313 -14.875 1 C-14.11445313 0.90460938 -13.35390625 0.80921875 -12.5703125 0.7109375 C-11.82265625 0.62070312 -11.075 0.53046875 -10.3046875 0.4375 C-9.62390137 0.35371094 -8.94311523 0.26992188 -8.24169922 0.18359375 C-5.50295433 -0.04070773 -2.74791462 0 0 0 Z " fill="#FDFDFD" transform="translate(211,285)"/>
<path d="M0 0 C9.9609375 -0.29296875 9.9609375 -0.29296875 13 0 C16.16420858 4.74631287 15.12112755 9.36756877 15 15 C10.05 15 5.1 15 0 15 C0 10.05 0 5.1 0 0 Z " fill="#EFEFEF" transform="translate(270,285)"/>
<path d="M0 0 C4.95 0 9.9 0 15 0 C15 4.95 15 9.9 15 15 C2.5756115 15.49205499 2.5756115 15.49205499 0.0625 13.34375 C-1.9237896 8.96222882 -0.6106041 4.66279492 0 0 Z " fill="#EEEEEE" transform="translate(330,135)"/>
<path d="M0 0 C0.33 0 0.66 0 1 0 C1 1.65 1 3.3 1 5 C5.29 5 9.58 5 14 5 C14 9.95 14 14.9 14 20 C9.05 20 4.1 20 -1 20 C-0.67 13.4 -0.34 6.8 0 0 Z " fill="#FDFDFD" transform="translate(166,310)"/>
<path d="M0 0 C4.62 0 9.24 0 14 0 C14 4.95 14 9.9 14 15 C9.71 15 5.42 15 1 15 C0.67 16.65 0.34 18.3 0 20 C-0.33 20 -0.66 20 -1 20 C-1.11381955 13.23405981 -0.88021369 6.71162938 0 0 Z " fill="#EAEAEA" transform="translate(166,300)"/>
<path d="M0 0 C4.95 0 9.9 0 15 0 C14.93489583 3.05989583 14.86979167 6.11979167 14.8046875 9.1796875 C14.69939466 12.1371051 14.69939466 12.1371051 17 14 C15.10440036 14.16930395 13.20850769 14.33532864 11.3125 14.5 C9.72888672 14.63921875 9.72888672 14.63921875 8.11328125 14.78125 C5.41452498 14.97087403 2.70540989 15 0 15 C0 10.05 0 5.1 0 0 Z " fill="#EBEBEB" transform="translate(90,15)"/>
<path d="M0 0 C4.95 0 9.9 0 15 0 C15 4.95 15 9.9 15 15 C15.99 15.33 16.98 15.66 18 16 C9.16110394 16.13688556 3.26327041 12.77978104 -4 8 C-3.01 7.67 -2.02 7.34 -1 7 C-0.67 4.69 -0.34 2.38 0 0 Z " fill="#FAFAFA" transform="translate(180,30)"/>
<path d="M0 0 C0 3.96 0 7.92 0 12 C-4.95 12 -9.9 12 -15 12 C-15 14.97 -15 17.94 -15 21 C-18 20 -18 20 -19.16796875 18.07421875 C-19.50441406 17.28660156 -19.84085938 16.49898437 -20.1875 15.6875 C-20.53167969 14.90761719 -20.87585938 14.12773437 -21.23046875 13.32421875 C-22 11 -22 11 -22 7 C-20.87980469 6.66226563 -19.75960937 6.32453125 -18.60546875 5.9765625 C-17.13273364 5.52629954 -15.66008169 5.07576447 -14.1875 4.625 C-13.08051758 4.29242188 -13.08051758 4.29242188 -11.95117188 3.953125 C-11.23896484 3.73398438 -10.52675781 3.51484375 -9.79296875 3.2890625 C-9.1383667 3.09006348 -8.48376465 2.89106445 -7.80932617 2.68603516 C-0.7252669 0 -0.7252669 0 0 0 Z " fill="#EEEEEE" transform="translate(255,198)"/>
<path d="M0 0 C2.3872196 2.97866168 4.07089415 5.97365821 5.69921875 9.421875 C6.18583984 10.44667969 6.67246094 11.47148437 7.17382812 12.52734375 C7.67333984 13.59082031 8.17285156 14.65429688 8.6875 15.75 C9.19861328 16.82894531 9.70972656 17.90789062 10.23632812 19.01953125 C11.49489953 21.67782224 12.74929268 24.33800229 14 27 C13.34 27.33 12.68 27.66 12 28 C12 27.34 12 26.68 12 26 C7.71 26 3.42 26 -1 26 C-1.02686682 22.04162186 -1.04677414 18.08342438 -1.0625 14.125 C-1.07087891 12.99707031 -1.07925781 11.86914062 -1.08789062 10.70703125 C-1.09111328 9.63066406 -1.09433594 8.55429688 -1.09765625 7.4453125 C-1.10289307 6.45031738 -1.10812988 5.45532227 -1.11352539 4.43017578 C-1 2 -1 2 0 0 Z " fill="#FBFBFB" transform="translate(31,199)"/>
<path d="M0 0 C0.66 0.33 1.32 0.66 2 1 C2 7.6 2 14.2 2 21 C1.34 21.33 0.68 21.66 0 22 C0 20.68 0 19.36 0 18 C-3.63 18 -7.26 18 -11 18 C-11 13.05 -11 8.1 -11 3 C-7.37 3 -3.74 3 0 3 C0 2.01 0 1.02 0 0 Z " fill="#F9F9F9" transform="translate(311,207)"/>
<path d="M0 0 C4.95 0 9.9 0 15 0 C15 4.62 15 9.24 15 14 C9.51322045 14.08441199 4.40719589 13.92037377 -1 13 C-0.67 8.71 -0.34 4.42 0 0 Z " fill="#FEFEFE" transform="translate(135,15)"/>
<path d="M0 0 C2.52775351 3.79163027 2.22443035 6.80874031 2.125 11.1875 C2.11597656 11.93708984 2.10695313 12.68667969 2.09765625 13.45898438 C2.07412578 15.30612654 2.03825561 17.15310412 2 19 C-0.72842061 20.36421031 -2.60953318 19.87807211 -5.625 19.5625 C-7.39875 19.376875 -9.1725 19.19125 -11 19 C-11 14.05 -11 9.1 -11 4 C-7.37 4 -3.74 4 0 4 C0 2.68 0 1.36 0 0 Z " fill="#FEFEFE" transform="translate(281,206)"/>
<path d="M0 0 C9.9 0 19.8 0 30 0 C30 0.33 30 0.66 30 1 C25.05 1 20.1 1 15 1 C15 4.63 15 8.26 15 12 C10.05 12 5.1 12 0 12 C0 8.04 0 4.08 0 0 Z " fill="#FFFFFF" transform="translate(120,333)"/>
<path d="M0 0 C1.35843713 3.69216246 0.62041477 5.88528278 -0.75 9.5 C-1.09546875 10.4384375 -1.4409375 11.376875 -1.796875 12.34375 C-2.94798722 14.88516659 -4.2361078 16.85088996 -6 19 C-6 18.34 -6 17.68 -6 17 C-8.64 17 -11.28 17 -14 17 C-14 12.05 -14 7.1 -14 2 C-9.38 2 -4.76 2 0 2 C0 1.34 0 0.68 0 0 Z " fill="#FDFDFD" transform="translate(44,268)"/>
<path d="M0 0 C0.33 0 0.66 0 1 0 C1 2.64 1 5.28 1 8 C4.3 8 7.6 8 11 8 C11 12.95 11 17.9 11 23 C6.71 23 2.42 23 -2 23 C-2.33 23.99 -2.66 24.98 -3 26 C-2.125 18.375 -2.125 18.375 -1 15 C-0.77281504 12.43365139 -0.58391816 9.88321893 -0.4375 7.3125 C-0.39431641 6.61060547 -0.35113281 5.90871094 -0.30664062 5.18554688 C-0.2008264 3.45724794 -0.09993419 1.7286489 0 0 Z " fill="#FDFDFD" transform="translate(229,247)"/>
<path d="M0 0 C4.95 0 9.9 0 15 0 C15.09765625 9.27734375 15.09765625 9.27734375 15 12 C14 13 14 13 11.95874023 13.11352539 C11.08419189 13.10828857 10.20964355 13.10305176 9.30859375 13.09765625 C8.36435547 13.09443359 7.42011719 13.09121094 6.44726562 13.08789062 C5.45404297 13.07951172 4.46082031 13.07113281 3.4375 13.0625 C2.44041016 13.05798828 1.44332031 13.05347656 0.41601562 13.04882812 C-2.05604849 13.03700007 -4.52799518 13.02051849 -7 13 C-7 12.67 -7 12.34 -7 12 C-3.535 11.505 -3.535 11.505 0 11 C0 7.37 0 3.74 0 0 Z " fill="#E8E8E8" transform="translate(120,15)"/>
<path d="M0 0 C4.29 0.33 8.58 0.66 13 1 C13 5.95 13 10.9 13 16 C10.03 16 7.06 16 4 16 C3.67 16.66 3.34 17.32 3 18 C2.49309416 15.93918639 1.99475381 13.87626474 1.5 11.8125 C1.2215625 10.66394531 0.943125 9.51539062 0.65625 8.33203125 C0 5 0 5 0 0 Z " fill="#FEFEFE" transform="translate(227,104)"/>
<path d="M0 0 C0.90492188 0.02320313 1.80984375 0.04640625 2.7421875 0.0703125 C5.1553125 0.1321875 5.1553125 0.1321875 7.6171875 0.1953125 C7.6171875 5.1453125 7.6171875 10.0953125 7.6171875 15.1953125 C4.3171875 15.1953125 1.0171875 15.1953125 -2.3828125 15.1953125 C-2.7128125 17.5053125 -3.0428125 19.8153125 -3.3828125 22.1953125 C-3.7128125 22.1953125 -4.0428125 22.1953125 -4.3828125 22.1953125 C-4.44071603 18.90371934 -4.47637511 15.61225647 -4.5078125 12.3203125 C-4.52457031 11.38316406 -4.54132813 10.44601563 -4.55859375 9.48046875 C-4.56826172 8.13662109 -4.56826172 8.13662109 -4.578125 6.765625 C-4.58859863 5.93820801 -4.59907227 5.11079102 -4.60986328 4.25830078 C-4.25925266 1.07264518 -3.12889326 0.25646666 0 0 Z " fill="#E9E9E9" transform="translate(232.3828125,239.8046875)"/>
<path d="M0 0 C3.3 0.33 6.6 0.66 10 1 C10 5.95 10 10.9 10 16 C5.71 16 1.42 16 -3 16 C-2.48263876 10.39525319 -1.71036463 5.3591425 0 0 Z " fill="#EDEDED" transform="translate(320,239)"/>
<path d="M0 0 C8.75 -0.125 8.75 -0.125 11 1 C11.44921875 2.890625 11.44921875 2.890625 11.6875 5.25 C11.77386719 6.01828125 11.86023438 6.7865625 11.94921875 7.578125 C12 10 12 10 11 15 C7.37 15 3.74 15 0 15 C0 10.05 0 5.1 0 0 Z " fill="#EDEDED" transform="translate(330,195)"/>
<path d="M0 0 C3.96 0 7.92 0 12 0 C11.67 0.99 11.34 1.98 11 3 C10.34 3 9.68 3 9 3 C8.83318891 5.91652174 8.83318891 5.91652174 9 9 C10.81685373 11.26349674 10.81685373 11.26349674 13.4375 11.125 C14.7059375 11.063125 14.7059375 11.063125 16 11 C16.99 11 17.98 11 19 11 C17.02 11.99 17.02 11.99 15 13 C15 13.66 15 14.32 15 15 C10.05 15 5.1 15 0 15 C0 10.05 0 5.1 0 0 Z " fill="#FDFDFD" transform="translate(255,255)"/>
<path d="M0 0 C4.95 0 9.9 0 15 0 C15 3.63 15 7.26 15 11 C10.05 11 5.1 11 0 11 C0 7.37 0 3.74 0 0 Z " fill="#EFEFEF" transform="translate(135,334)"/>
<path d="M0 0 C4.95 0 9.9 0 15 0 C15 3.63 15 7.26 15 11 C10.05 11 5.1 11 0 11 C0 7.37 0 3.74 0 0 Z " fill="#EFEFEF" transform="translate(105,334)"/>
<path d="M0 0 C4.95 0 9.9 0 15 0 C15 3.63 15 7.26 15 11 C10.05 11 5.1 11 0 11 C0 7.37 0 3.74 0 0 Z " fill="#EFEFEF" transform="translate(75,334)"/>
<path d="M0 0 C4.95 0 9.9 0 15 0 C15 3.63 15 7.26 15 11 C10.05 11 5.1 11 0 11 C0 7.37 0 3.74 0 0 Z " fill="#EFEFEF" transform="translate(45,334)"/>
<path d="M0 0 C2.05078125 0.03255208 4.1015625 0.06510417 6.15234375 0.09765625 C6.15234375 5.04765625 6.15234375 9.99765625 6.15234375 15.09765625 C-0.28265625 15.59265625 -0.28265625 15.59265625 -6.84765625 16.09765625 C-4.20172664 0.22207857 -4.20172664 0.22207857 0 0 Z " fill="#ECECEC" transform="translate(353.84765625,239.90234375)"/>
<path d="M0 0 C4.95 0 9.9 0 15 0 C15.33 2.31 15.66 4.62 16 7 C17.41591827 8.92283085 17.41591827 8.92283085 19 10 C18.67 10.66 18.34 11.32 18 12 C17.113125 11.154375 16.22625 10.30875 15.3125 9.4375 C12.66280831 7.16914939 12.66280831 7.16914939 9.125 7.1875 C8.42375 7.455625 7.7225 7.72375 7 8 C6.12245809 10.20438833 6.12245809 10.20438833 6 13 C7.83317376 16.29248108 7.83317376 16.29248108 10 19 C9.46375 18.71125 8.9275 18.4225 8.375 18.125 C5.68215357 16.84944117 2.82676936 15.94225645 0 15 C0 10.05 0 5.1 0 0 Z " fill="#FDFDFD" transform="translate(300,120)"/>
<path d="M0 0 C0.90105469 0.00902344 1.80210937 0.01804687 2.73046875 0.02734375 C3.41753906 0.03894531 4.10460937 0.05054688 4.8125 0.0625 C3.4925 0.3925 2.1725 0.7225 0.8125 1.0625 C0.8125 4.6925 0.8125 8.3225 0.8125 12.0625 C-3.8075 12.0625 -8.4275 12.0625 -13.1875 12.0625 C-13.1875 15.0325 -13.1875 18.0025 -13.1875 21.0625 C-13.5175 21.0625 -13.8475 21.0625 -14.1875 21.0625 C-15.2204742 8.34161405 -15.2204742 8.34161405 -11.375 3.8125 C-7.89643681 0.34252586 -4.79414214 -0.06226159 0 0 Z " fill="#FCFCFC" transform="translate(179.1875,287.9375)"/>
<path d="M0 0 C4.29161047 -0.05783842 8.58312145 -0.0935412 12.875 -0.125 C14.09832031 -0.14175781 15.32164063 -0.15851562 16.58203125 -0.17578125 C17.74863281 -0.18222656 18.91523437 -0.18867188 20.1171875 -0.1953125 C21.19597168 -0.20578613 22.27475586 -0.21625977 23.38623047 -0.22705078 C26 0 26 0 28 2 C27.12859375 2.23074219 26.2571875 2.46148437 25.359375 2.69921875 C18.06040564 4.69774608 11.3087207 6.96850642 4.42578125 10.14453125 C2 11 2 11 -1 10 C-0.67 6.7 -0.34 3.4 0 0 Z " fill="#FCFCFC" transform="translate(60,30)"/>
<path d="M0 0 C3.63 0 7.26 0 11 0 C11 4.62 11 9.24 11 14 C7.57067929 15.71466036 3.78283935 15.05404056 0 15 C0 10.05 0 5.1 0 0 Z " fill="#EEEEEE" transform="translate(330,225)"/>
<path d="M0 0 C2.64 0 5.28 0 8 0 C8.99 1.98 9.98 3.96 11 6 C11.33 6 11.66 6 12 6 C11.67 8.97 11.34 11.94 11 15 C7.37 15 3.74 15 0 15 C0 10.05 0 5.1 0 0 Z " fill="#EDEDED" transform="translate(300,195)"/>
<path d="M0 0 C2.97 0 5.94 0 9 0 C9.53293835 1.74635165 10.05090663 3.49727652 10.5625 5.25 C10.85253906 6.22453125 11.14257812 7.1990625 11.44140625 8.203125 C12 11 12 11 11 15 C7.37 15 3.74 15 0 15 C0 10.05 0 5.1 0 0 Z " fill="#EEEEEE" transform="translate(270,195)"/>
<path d="M0 0 C3.63 0 7.26 0 11 0 C11 4.95 11 9.9 11 15 C3.25 15.125 3.25 15.125 1 14 C0.5859375 11.6015625 0.5859375 11.6015625 0.375 8.625 C0.30023438 7.64789063 0.22546875 6.67078125 0.1484375 5.6640625 C0.04336671 3.77831835 0 1.88866907 0 0 Z " fill="#EEEEEE" transform="translate(349,180)"/>
<path d="M0 0 C-0.20625 1.11375 -0.4125 2.2275 -0.625 3.375 C-0.74875 4.57125 -0.8725 5.7675 -1 7 C-0.34 7.66 0.32 8.32 1 9 C2.9931567 9.02375926 2.9931567 9.02375926 5.125 8.625 C6.40375 8.41875 7.6825 8.2125 9 8 C8.67 10.64 8.34 13.28 8 16 C3.05 16 -1.9 16 -7 16 C-7 11.05 -7 6.1 -7 1 C-2 0 -2 0 0 0 Z " fill="#FDFDFD" transform="translate(307,299)"/>
<path d="M0 0 C3.3 0.33 6.6 0.66 10 1 C10 5.95 10 10.9 10 16 C8.35 16 6.7 16 5 16 C5 20.62 5 25.24 5 30 C4.67 30 4.34 30 4 30 C3.87882812 28.7934375 3.75765625 27.586875 3.6328125 26.34375 C3.46384119 24.72913529 3.29455344 23.11455368 3.125 21.5 C3.04636719 20.70851562 2.96773438 19.91703125 2.88671875 19.1015625 C2.47065308 15.19694623 1.92932935 11.45735728 0.9296875 7.65625 C0 4 0 4 0 0 Z " fill="#FCFCFC" transform="translate(290,194)"/>
<path d="M0 0 C0.33 0.99 0.66 1.98 1 3 C3.64 3 6.28 3 9 3 C9 7.95 9 12.9 9 18 C7.02 18 5.04 18 3 18 C3 22.95 3 27.9 3 33 C2.67 33 2.34 33 2 33 C1.66218885 28.81284871 1.3305515 24.62523015 1 20.4375 C0.90460938 19.25607422 0.80921875 18.07464844 0.7109375 16.85742188 C0.26898095 11.22247585 -0.1328126 5.65283608 0 0 Z " fill="#FCFCFC" transform="translate(351,192)"/>
<path d="M0 0 C2.97 0 5.94 0 9 0 C9 4.95 9 9.9 9 15 C1.25 15.125 1.25 15.125 -1 14 C-1.02694851 12.04174127 -1.04637218 10.08337774 -1.0625 8.125 C-1.07410156 7.03445312 -1.08570313 5.94390625 -1.09765625 4.8203125 C-1 2 -1 2 0 0 Z " fill="#E9E9E9" transform="translate(231,120)"/>
<path d="M0 0 C1.22815402 3.68446207 0.26460567 4.77886826 -1.28515625 8.1640625 C-2.35568682 10.91351261 -2.38732006 13.09509952 -2 16 C-0.62073227 18.34261608 -0.62073227 18.34261608 1 20 C0.484375 19.690625 -0.03125 19.38125 -0.5625 19.0625 C-3.64162296 17.59175744 -3.64162296 17.59175744 -10 17 C-10 12.05 -10 7.1 -10 2 C-6.7 2 -3.4 2 0 2 C0 1.34 0 0.68 0 0 Z " fill="#FDFDFD" transform="translate(25,313)"/>
<path d="M0 0 C0.99 0 1.98 0 3 0 C3 4.95 3 9.9 3 15 C1.06125 14.95875 -0.8775 14.9175 -2.875 14.875 C-6.10116917 14.75660449 -6.10116917 14.75660449 -9 15 C-9.66 15.66 -10.32 16.32 -11 17 C-11.66 13.7 -12.32 10.4 -13 7 C-12.01 7.495 -12.01 7.495 -11 8 C-9.62657169 8.0689472 -8.24997898 8.08467708 -6.875 8.0625 C-5.59625 8.041875 -4.3175 8.02125 -3 8 C-2.01 5.36 -1.02 2.72 0 0 Z " fill="#EFEFEF" transform="translate(237,90)"/>
<path d="M0 0 C0.33 0.66 0.66 1.32 1 2 C3.64 2 6.28 2 9 2 C9 6.95 9 11.9 9 17 C6.69 17 4.38 17 2 17 C-0.29612756 5.47835991 -0.29612756 5.47835991 0 0 Z " fill="#FDFDFD" transform="translate(321,193)"/>
<path d="M0 0 C1.98 0 3.96 0 6 0 C8.5610544 2.5610544 8.40191222 3.94185713 8.6875 7.5 C8.77386719 8.4796875 8.86023437 9.459375 8.94921875 10.46875 C9 13 9 13 8 15 C5.36 15 2.72 15 0 15 C0 10.05 0 5.1 0 0 Z " fill="#EBEBEB" transform="translate(0,135)"/>
<path d="M0 0 C0.33 0 0.66 0 1 0 C1 7.59 1 15.18 1 23 C0.67 23 0.34 23 0 23 C0 21.35 0 19.7 0 18 C-1.98 18 -3.96 18 -6 18 C-6 13.05 -6 8.1 -6 3 C-4.02 3 -2.04 3 0 3 C0 2.01 0 1.02 0 0 Z " fill="#FFFFFF" transform="translate(6,117)"/>
<path d="M0 0 C3.3 0.33 6.6 0.66 10 1 C10 5.95 10 10.9 10 16 C8.68 16.33 7.36 16.66 6 17 C5.18167278 15.10667466 4.37057732 13.21022267 3.5625 11.3125 C3.11003906 10.25675781 2.65757812 9.20101562 2.19140625 8.11328125 C1.14552545 5.38027471 0.46479252 2.87957663 0 0 Z " fill="#FCFCFC" transform="translate(230,74)"/>
<path d="M0 0 C2.64 0 5.28 0 8 0 C8 3.96 8 7.92 8 12 C7.34 12 6.68 12 6 12 C6 12.99 6 13.98 6 15 C4.02 15 2.04 15 0 15 C0 10.05 0 5.1 0 0 Z " fill="#EEEEEE" transform="translate(0,105)"/>
<path d="M0 0 C2.31 0 4.62 0 7 0 C7 4.95 7 9.9 7 15 C4.69 15 2.38 15 0 15 C0 10.05 0 5.1 0 0 Z " fill="#EEEEEE" transform="translate(323,210)"/>
<path d="M0 0 C1.98 0 3.96 0 6 0 C6 4.95 6 9.9 6 15 C4.02 15 2.04 15 0 15 C0 10.05 0 5.1 0 0 Z " fill="#EFEFEF" transform="translate(354,210)"/>
<path d="M0 0 C0.33 0 0.66 0 1 0 C1 3.63 1 7.26 1 11 C-2.96 11 -6.92 11 -11 11 C-9.65515549 6.96546646 -7.51870529 6.27680931 -4 4 C-2.64852862 2.68505488 -1.30887458 1.35735142 0 0 Z " fill="#F9F9F9" transform="translate(224,274)"/>
<path d="M0 0 C1.15904779 2.83625813 1.02282362 3.93684892 -0.0390625 6.875 C-0.56242187 7.90625 -1.08578125 8.9375 -1.625 10 C-2.13289063 11.03125 -2.64078125 12.0625 -3.1640625 13.125 C-5 16 -5 16 -10 20 C-9.67 15.71 -9.34 11.42 -9 7 C-6.69 7 -4.38 7 -2 7 C-1.34 4.69 -0.68 2.38 0 0 Z " fill="#F9F9F9" transform="translate(279,233)"/>
<path d="M0 0 C2.64 0 5.28 0 8 0 C8 3.96 8 7.92 8 12 C3 9 3 9 1 6 C0.60986284 4.0103005 0.26797351 2.00980131 0 0 Z " fill="#EEEEEE" transform="translate(232,150)"/>
<path d="M0 0 C2.31 0 4.62 0 7 0 C7.33 0.99 7.66 1.98 8 3 C5.69 4.98 3.38 6.96 1 9 C0 8 0 8 -0.09765625 6.15234375 C-0.06510417 4.1015625 -0.03255208 2.05078125 0 0 Z " fill="#E8E8E8" transform="translate(285,270)"/>
<path d="M0 0 C0.66 0 1.32 0 2 0 C2 3.3 2 6.6 2 10 C0.02 10 -1.96 10 -4 10 C-4.33 9.34 -4.66 8.68 -5 8 C-4.07421875 6.0546875 -4.07421875 6.0546875 -2.6875 3.875 C-2.23761719 3.15054687 -1.78773438 2.42609375 -1.32421875 1.6796875 C-0.88722656 1.12539063 -0.45023437 0.57109375 0 0 Z " fill="#EBEBEB" transform="translate(313,260)"/>
<path d="M0 0 C2.64 0 5.28 0 8 0 C8 2.97 8 5.94 8 9 C3.97777612 6.98888806 2.51685747 5.59551067 0 2 C0 1.34 0 0.68 0 0 Z " fill="#F7F7F7" transform="translate(322,135)"/>
<path d="M0 0 C0 2.64 0 5.28 0 8 C-1.0725 8.12375 -2.145 8.2475 -3.25 8.375 C-6.44666333 8.90777722 -8.24091652 9.49837492 -11 11 C-10.09066991 9.72390677 -9.17217147 8.45434447 -8.25 7.1875 C-7.73953125 6.47980469 -7.2290625 5.77210938 -6.703125 5.04296875 C-2.49904398 0 -2.49904398 0 0 0 Z " fill="#F8F8F8" transform="translate(330,292)"/>
<path d="M0 0 C3.40320742 1.01176437 4.75725331 1.64843582 6.8125 4.625 C7.204375 5.40875 7.59625 6.1925 8 7 C7 8 7 8 3.4375 8.0625 C2.303125 8.041875 1.16875 8.02125 0 8 C0 5.36 0 2.72 0 0 Z " fill="#ECECEC" transform="translate(285,157)"/>
<path d="M0 0 C0.33 0 0.66 0 1 0 C1.20483028 7.99976044 1.13480153 15.26134446 -1 23 C-1.66 23 -2.32 23 -3 23 C-3 19.7 -3 16.4 -3 13 C-2.34 13 -1.68 13 -1 13 C-0.67 8.71 -0.34 4.42 0 0 Z " fill="#F9F9F9" transform="translate(48,242)"/>
<path d="M0 0 C1.98 0 3.96 0 6 0 C6 3.3 6 6.6 6 10 C3 9 3 9 1.3125 6.6875 C0 4 0 4 0 0 Z " fill="#EEEEEE" transform="translate(309,165)"/>
<path d="M0 0 C2.31777287 2.84453943 3.89118681 5.48875822 5 9 C4.67 9.66 4.34 10.32 4 11 C2.35 11 0.7 11 -1 11 C-1.0270043 9.54176788 -1.04639787 8.08339325 -1.0625 6.625 C-1.07410156 5.81289062 -1.08570312 5.00078125 -1.09765625 4.1640625 C-1 2 -1 2 0 0 Z " fill="#E8E8E8" transform="translate(31,199)"/>
<path d="M0 0 C0.99 0 1.98 0 3 0 C3.99 3.3 4.98 6.6 6 10 C4.02 10 2.04 10 0 10 C0 6.7 0 3.4 0 0 Z " fill="#E9E9E9" transform="translate(330,170)"/>
<path d="M0 0 C2.97 0.495 2.97 0.495 6 1 C4.1011236 7.57303371 4.1011236 7.57303371 1 10 C0.67 10 0.34 10 0 10 C0 6.7 0 3.4 0 0 Z " fill="#EBEBEB" transform="translate(330,255)"/>
<path d="M0 0 C1.79133978 -0.05391993 3.58313899 -0.09275571 5.375 -0.125 C6.37273437 -0.14820312 7.37046875 -0.17140625 8.3984375 -0.1953125 C11 0 11 0 13 2 C8.71 2.99 4.42 3.98 0 5 C0 3.35 0 1.7 0 0 Z " fill="#EDEDED" transform="translate(75,30)"/>
<path d="M0 0 C3 1 3 1 4.6875 4.375 C6 8 6 8 6 11 C4.35 11 2.7 11 1 11 C0.67 7.37 0.34 3.74 0 0 Z " fill="#F5F5F5" transform="translate(14,169)"/>
<path d="M0 0 C2.46800047 1.15173355 4.04783565 2.04783565 6 4 C8.57061311 4.64767793 8.57061311 4.64767793 11 5 C11.33 7.64 11.66 10.28 12 13 C10.85872377 11.85872377 9.71776264 10.71713121 8.578125 9.57421875 C7.42694314 8.42588635 6.26987213 7.28344889 5.109375 6.14453125 C4.47515625 5.51933594 3.8409375 4.89414062 3.1875 4.25 C2.58292969 3.65703125 1.97835937 3.0640625 1.35546875 2.453125 C0 1 0 1 0 0 Z " fill="#F7F7F7" transform="translate(214,55)"/>
<path d="M0 0 C1 3 1 3 0.00390625 5.48046875 C-0.47175781 6.37378906 -0.94742187 7.26710938 -1.4375 8.1875 C-1.91058594 9.08855469 -2.38367188 9.98960938 -2.87109375 10.91796875 C-3.24363281 11.60503906 -3.61617187 12.29210937 -4 13 C-5.03159626 9.90521121 -4.97482862 8.47368607 -4.5625 5.3125 C-4.46066406 4.50425781 -4.35882813 3.69601563 -4.25390625 2.86328125 C-4.17011719 2.24839844 -4.08632812 1.63351563 -4 1 C-2.68 0.67 -1.36 0.34 0 0 Z " fill="#F8F8F8" transform="translate(19,74)"/>
<path d="M0 0 C2.125 0.375 2.125 0.375 4 1 C3.360625 1.226875 2.72125 1.45375 2.0625 1.6875 C-0.27193661 2.85250896 -0.27193661 2.85250896 -0.75 5.625 C-0.8325 6.40875 -0.915 7.1925 -1 8 C-0.38125 8.268125 0.2375 8.53625 0.875 8.8125 C3 10 3 10 5 13 C2 13 2 13 -0.75 10.3125 C-2.61322452 7.94570129 -3.00831223 7.36573819 -2.9375 4.25 C-2 2 -2 2 0 0 Z " fill="#444444" transform="translate(266,168)"/>
<path d="M0 0 C2.97 0.99 5.94 1.98 9 3 C9 3.33 9 3.66 9 4 C7.02 4 5.04 4 3 4 C3 5.98 3 7.96 3 10 C1.11608215 6.73454239 0.50712033 3.71888239 0 0 Z " fill="#D2D2D2" transform="translate(224,97)"/>
<path d="M0 0 C0.99 0.33 1.98 0.66 3 1 C3 3.64 3 6.28 3 9 C2.01 8.67 1.02 8.34 0 8 C0 5.36 0 2.72 0 0 Z " fill="#F9F9F9" transform="translate(45,232)"/>
<path d="M0 0 C-4.625 4 -4.625 4 -8 4 C-8 2.68 -8 1.36 -8 0 C-2.25 -1.125 -2.25 -1.125 0 0 Z " fill="#F5F5F5" transform="translate(53,45)"/>
<path d="M0 0 C3.7952131 1.49097658 5.61042731 3.75700849 8 7 C5 7 5 7 2.3125 4.625 C0 2 0 2 0 0 Z " fill="#353535" transform="translate(270,169)"/>
<path d="M0 0 C3.7952131 1.49097658 5.61042731 3.75700849 8 7 C5 7 5 7 2.3125 4.625 C0 2 0 2 0 0 Z " fill="#353535" transform="translate(313,128)"/>
</svg>
