<?xml version="1.0" encoding="UTF-8"?>
<svg version="1.1" xmlns="http://www.w3.org/2000/svg" width="360" height="360">
<path d="M0 0 C118.8 0 237.6 0 360 0 C360 118.8 360 237.6 360 360 C241.2 360 122.4 360 0 360 C0 241.2 0 122.4 0 0 Z " fill="#F7F7F7" transform="translate(0,0)"/>
<path d="M0 0 C0.95197266 -0.02900391 1.90394531 -0.05800781 2.88476562 -0.08789062 C12.46373889 -0.1726603 20.5351985 2.50507872 27.61328125 9.109375 C35.99674558 19.23415847 37.51179226 30.68737047 36.4375 43.3125 C34.26092994 53.77247381 28.7410971 61.21008846 19.9765625 67.0859375 C13.72101423 70.10784851 7.40245877 70.70216072 0.5625 70.6875 C-0.22471436 70.68588867 -1.01192871 70.68427734 -1.82299805 70.68261719 C-10.40228575 70.50220541 -17.18838002 68.26167865 -23.5625 62.3125 C-22.716875 63.323125 -21.87125 64.33375 -21 65.375 C-14.97739406 73.44815987 -8.3807204 84.94601227 -9.5625 95.3125 C-10.2225 96.3025 -10.8825 97.2925 -11.5625 98.3125 C-13.47265625 98.60546875 -13.47265625 98.60546875 -15.625 98.5 C-18.0928179 98.36707963 -18.0928179 98.36707963 -20.5625 98.3125 C-20.2015625 99.32441406 -19.840625 100.33632812 -19.46875 101.37890625 C-15.56523295 113.46613704 -15.17642521 124.72507083 -15.92382812 137.28344727 C-16.28484547 146.7511272 -14.44498728 151.94115236 -8.5625 159.3125 C-8.0380127 160.02390137 -7.51352539 160.73530273 -6.97314453 161.46826172 C-5.53276351 163.42043871 -4.05288161 165.33584366 -2.5625 167.25 C11.23916359 185.38253044 11.23916359 185.38253044 10.4375 193.3125 C6.82318907 199.33635155 2.06408167 201.39770862 -4.5625 203.3125 C-7.25797486 203.82902417 -9.81868799 204.10925467 -12.5625 204.3125 C-12.18996094 205.16972656 -11.81742188 206.02695313 -11.43359375 206.91015625 C-6.56165329 218.68511862 -6.56165329 218.68511862 -8.5625 224.3125 C-9.5525 224.9725 -10.5425 225.6325 -11.5625 226.3125 C-11.69625836 228.541806 -11.43190861 230.61163646 -11.1796875 232.828125 C-11.5625 235.3125 -11.5625 235.3125 -14.03515625 237.90625 C-17.86362519 242.15920314 -17.19157389 247.11745634 -17.125 252.5625 C-17.05109343 261.26073432 -17.49169017 269.49315055 -23.34960938 276.42822266 C-33.78117731 286.76511465 -48.66408079 286.45568093 -62.36523438 286.7421875 C-68.65345937 286.97312461 -73.07736366 287.84036301 -77.70947266 292.44824219 C-80.02346208 296.02501741 -80.02740745 298.80776083 -79.84765625 302.9140625 C-79.83488144 303.63234222 -79.82210663 304.35062195 -79.8089447 305.09066772 C-79.76687932 307.37386672 -79.6984623 309.6551107 -79.625 311.9375 C-79.55694269 314.22691898 -79.49502413 316.51572746 -79.45176697 318.80575562 C-79.42451711 320.22736471 -79.38287261 321.64878797 -79.32521057 323.06948853 C-79.22812044 327.83125879 -79.22812044 327.83125879 -80.73109436 329.99434853 C-83.27149517 331.82279821 -85.02527449 331.68996392 -88.14208984 331.69345093 C-89.8835025 331.70614014 -89.8835025 331.70614014 -91.66009521 331.71908569 C-93.57244965 331.70997665 -93.57244965 331.70997665 -95.5234375 331.70068359 C-96.87860538 331.70474834 -98.23376995 331.71008968 -99.58892822 331.71661377 C-103.27073523 331.73030491 -106.95229039 331.72498144 -110.63410187 331.71547651 C-114.48442776 331.70788917 -118.33473187 331.71492295 -122.18505859 331.71963501 C-128.65140663 331.72509527 -135.11765193 331.7178939 -141.58398438 331.70361328 C-149.06341727 331.68728619 -156.54260484 331.69257451 -164.02203178 331.7090925 C-170.43994181 331.7226997 -176.85777792 331.7246308 -183.27569771 331.71677649 C-187.11049547 331.71209573 -190.94517788 331.7114861 -194.77996826 331.72138596 C-198.38498181 331.73004228 -201.98967862 331.72405852 -205.5946579 331.70670319 C-207.55140241 331.70083405 -209.50817367 331.70976528 -211.46490479 331.71908569 C-212.62584656 331.71062622 -213.78678833 331.70216675 -214.98291016 331.69345093 C-216.49940659 331.69175431 -216.49940659 331.69175431 -218.04653931 331.69002342 C-220.5625 331.3125 -220.5625 331.3125 -222.38339233 329.9505558 C-224.3117916 327.27155905 -223.98765968 325.56832807 -223.5625 322.3125 C-222.40043919 319.02148993 -220.93621781 315.89950965 -219.4375 312.75 C-219.02661133 311.86320557 -218.61572266 310.97641113 -218.19238281 310.06274414 C-216.99166237 307.47489541 -215.77747626 304.89367719 -214.5625 302.3125 C-213.47413027 299.96062059 -212.39382396 297.60513491 -211.3125 295.25 C-209.96290407 292.3271182 -208.60787805 289.40803273 -207.2265625 286.5 C-201.08647465 273.40114591 -197.45919141 260.72903379 -197.25 246.25 C-197.22341309 245.15244385 -197.22341309 245.15244385 -197.19628906 244.03271484 C-197.2103824 233.48384811 -201.61655239 224.55226673 -206.1875 215.25 C-206.72020508 214.15308838 -207.25291016 213.05617676 -207.80175781 211.92602539 C-211.86579561 203.60718137 -216.14611769 195.4197299 -220.52001953 187.26123047 C-235.45808305 159.33719699 -244.49234857 129.73887077 -235.08203125 98.23828125 C-230.2112096 82.62670894 -224.19835238 70.88339298 -212.5625 59.3125 C-211.74523437 58.49523438 -210.92796875 57.67796875 -210.0859375 56.8359375 C-192.30222839 39.97906665 -169.33383838 31.85903032 -145.5625 28.3125 C-144.48347412 28.13976562 -143.40444824 27.96703125 -142.29272461 27.7890625 C-136.33859684 27.02838069 -130.37979961 27.08783312 -124.38696289 27.07226562 C-122.16187698 27.06265921 -119.93775666 27.03162497 -117.71289062 27 C-104.51317816 26.9014612 -91.89551823 28.71782179 -79.375 33.0625 C-78.62581299 33.31563965 -77.87662598 33.5687793 -77.10473633 33.82958984 C-71.22730711 35.89614346 -66.04656945 38.61733366 -60.64453125 41.72265625 C-56.4811299 43.87031702 -52.21055676 45.01854411 -47.71484375 46.27734375 C-42.6197947 47.95043916 -38.17280014 50.61866853 -33.5625 53.3125 C-32.23505767 53.99082078 -30.90378997 54.66198985 -29.5625 55.3125 C-29.995625 54.43464844 -29.995625 54.43464844 -30.4375 53.5390625 C-34.97056406 43.05635186 -35.68772405 29.32438736 -31.65625 18.48046875 C-24.93855919 5.1650459 -14.32050497 0.14141381 0 0 Z " fill="#2B2B2B" transform="translate(245.5625,0.6875)"/>
<path d="M0 0 C89.1 0 178.2 0 270 0 C270 2.31 270 4.62 270 7 C269.31679688 6.6390625 268.63359375 6.278125 267.9296875 5.90625 C256.5214346 0.65436887 243.31903355 -0.25342457 231.1640625 3.0390625 C223.47642545 6.50527669 218.65490127 11.69974746 214.9140625 19.16796875 C211.2626481 28.89949062 211.40002976 41.84786489 215.0625 51.5 C215.44535156 52.3353125 215.82820312 53.170625 216.22265625 54.03125 C216.60744141 55.00578125 216.60744141 55.00578125 217 56 C216.67 56.66 216.34 57.32 216 58 C215.21689453 57.43732422 215.21689453 57.43732422 214.41796875 56.86328125 C207.39798193 51.98248481 200.07064829 48.18733094 191.875 45.6875 C188.11668225 44.51720533 184.69616921 42.92113602 181.1730957 41.19116211 C174.63530161 37.9835959 168.18421254 35.17713515 161.1875 33.125 C160.22166992 32.83906982 160.22166992 32.83906982 159.23632812 32.54736328 C147.71197078 29.34776156 136.32760969 28.62907033 124.4375 28.6875 C123.68843384 28.68899048 122.93936768 28.69048096 122.16760254 28.6920166 C110.57126412 28.73347408 99.31353068 29.28842158 88 32 C86.73800781 32.30164062 85.47601563 32.60328125 84.17578125 32.9140625 C59.31291362 39.52624135 33.95319254 53.53564859 20.48828125 76.19140625 C7.03087009 101.58741313 4.1131234 130.32871619 12.40625 157.76953125 C16.01484054 169.05023203 20.96474502 179.30501017 26.69726562 189.64111328 C32.4199318 200.00325732 37.86685485 210.52144182 43 221.1875 C43.37390869 221.95320312 43.74781738 222.71890625 44.13305664 223.5078125 C47.76348483 231.16037519 49.37672247 238.09444189 49.3125 246.5625 C49.30512817 247.73159912 49.30512817 247.73159912 49.29760742 248.92431641 C49.05544019 261.13202873 46.0610847 271.91722812 41 283 C40.03952603 285.29077032 39.08128083 287.58247609 38.125 289.875 C36.05153928 294.71485176 33.82101429 299.43035581 31.4375 304.125 C24.84640616 315.96088892 24.84640616 315.96088892 23 329 C25.63348941 331.63348941 26.79191106 331.25123293 30.46606445 331.25396729 C31.62707672 331.25960693 32.78808899 331.26524658 33.98428345 331.27105713 C35.26435272 331.26700867 36.544422 331.26296021 37.86328125 331.25878906 C39.21992175 331.261498 40.57656079 331.26505839 41.93319702 331.26940918 C45.62321434 331.27854706 49.31312016 331.27498322 53.0031395 331.26865101 C56.85927386 331.26359823 60.71539848 331.26828044 64.5715332 331.27142334 C71.04803182 331.2750651 77.52448486 331.27025841 84.00097656 331.26074219 C91.49569888 331.24985722 98.9903124 331.25338265 106.48503208 331.264395 C112.91223617 331.27346192 119.33940745 331.27475608 125.76661587 331.26951766 C129.60863975 331.26639467 133.45061244 331.26599759 137.29263306 331.27259064 C140.90413142 331.27835485 144.51548908 331.27438431 148.1269722 331.26280212 C150.089885 331.25888258 152.05280966 331.26484906 154.01571655 331.27105713 C155.17672882 331.26541748 156.33774109 331.25977783 157.53393555 331.25396729 C159.05376289 331.25283621 159.05376289 331.25283621 160.60429382 331.25168228 C163.18493405 331.23463781 163.18493405 331.23463781 165 329 C165.10184536 326.57023385 165.08676872 324.25461227 164.984375 321.83203125 C164.94931268 320.36656487 164.915499 318.90106818 164.8828125 317.43554688 C164.82113124 315.12861881 164.75043312 312.8232152 164.65722656 310.51733398 C164.10207246 296.02250996 164.10207246 296.02250996 167.703125 291.57421875 C173.11562136 286.80257206 178.44292546 286.65699385 185.375 286.4375 C187.15889757 286.36565312 188.9427519 286.29272472 190.7265625 286.21875 C191.61118164 286.18394531 192.49580078 286.14914062 193.40722656 286.11328125 C199.27857894 285.85675512 205.13778865 285.41035479 211 285 C210.67 289.95 210.34 294.9 210 300 C214.95 300 219.9 300 225 300 C225 304.95 225 309.9 225 315 C229.95 315 234.9 315 240 315 C240 319.95 240 324.9 240 330 C244.95 330 249.9 330 255 330 C255 334.95 255 339.9 255 345 C259.95 345 264.9 345 270 345 C270 349.95 270 354.9 270 360 C180.9 360 91.8 360 0 360 C0 241.2 0 122.4 0 0 Z " fill="#F8F8F8" transform="translate(0,0)"/>
<path d="M0 0 C5.51708466 0.13456304 7.56431008 2.24911707 11.16918945 5.99584961 C34.71857056 31.77486942 46.2118035 63.67658901 45.13623047 98.50244141 C43.9972751 119.38328975 37.04455881 140.30126601 26 158 C29.63 158.33 33.26 158.66 37 159 C37 163.95 37 168.9 37 174 C41.95 174 46.9 174 52 174 C52 193.8 52 213.6 52 234 C22.3 234 -7.4 234 -38 234 C-38 229.05 -38 224.1 -38 219 C-42.95 219 -47.9 219 -53 219 C-53 214.05 -53 209.1 -53 204 C-57.95 204 -62.9 204 -68 204 C-68 199.05 -68 194.1 -68 189 C-72.95 189 -77.9 189 -83 189 C-83 184.05 -83 179.1 -83 174 C-87.95 174 -92.9 174 -98 174 C-97.93489583 170.41927083 -97.86979167 166.83854167 -97.8046875 163.2578125 C-97.64358476 159.91406662 -97.64358476 159.91406662 -100 158 C-99.34773437 157.79246094 -98.69546875 157.58492187 -98.0234375 157.37109375 C-91.79316405 155.17487641 -87.36617227 152.83050399 -84 147 C-80.47587727 139.44710689 -80.58548854 132.53783136 -80.6484375 124.3125 C-80.54164607 117.53124417 -79.65751487 114.87156864 -75 110 C-74.54738624 107.62134489 -74.54738624 107.62134489 -74.9375 105.375 C-75.09375 103.03125 -75.09375 103.03125 -75 101 C-73.68671343 99.64691687 -72.35500919 98.31129922 -71 97 C-71.07471925 93.03987997 -71.96804387 89.88469498 -73.5625 86.3125 C-75 83 -75 83 -75 79 C-73.31970703 78.49339844 -73.31970703 78.49339844 -71.60546875 77.9765625 C-70.13273364 77.52629954 -68.66008169 77.07576447 -67.1875 76.625 C-66.44951172 76.40328125 -65.71152344 76.1815625 -64.95117188 75.953125 C-64.23896484 75.73398438 -63.52675781 75.51484375 -62.79296875 75.2890625 C-62.1383667 75.09006348 -61.48376465 74.89106445 -60.80932617 74.68603516 C-58.70644864 73.96584292 -58.70644864 73.96584292 -56 72 C-55.01 72 -54.02 72 -53 72 C-53 75.96 -53 79.92 -53 84 C-48.05 84 -43.1 84 -38 84 C-38 88.95 -38 93.9 -38 99 C-34.04 99 -30.08 99 -26 99 C-25.05657876 83.23438284 -27.44083118 69.4081372 -38 57 C-39.91146347 54.93107881 -41.81422184 52.87207701 -43.8125 50.88671875 C-45 49 -45 49 -44.8125 46.39453125 C-44 44 -44 44 -42 42 C-37.12135417 42.2168287 -34.56600568 43.74864188 -31 47 C-32.1725131 46.04882866 -33.33787015 45.08882991 -34.5 44.125 C-35.1496875 43.59132812 -35.799375 43.05765625 -36.46875 42.5078125 C-36.9740625 42.01023438 -37.479375 41.51265625 -38 41 C-38 40.34 -38 39.68 -38 39 C-33.05 39 -28.1 39 -23 39 C-23 43.95 -23 48.9 -23 54 C-18.05 54 -13.1 54 -8 54 C-8 58.95 -8 63.9 -8 69 C-5.36 69 -2.72 69 0 69 C0.66 70.65 1.32 72.3 2 74 C-1.3353502 55.80718073 -11.08560519 40.91439481 -24 28 C-23.43181818 22.43181818 -23.43181818 22.43181818 -22 21 C-18.60290834 20.64890393 -16.67693672 20.54630837 -13.796875 22.4765625 C6.59507513 43.88032695 15.55170216 67.61099485 15.2109375 97.1875 C14.64244559 118.91652427 5.14049613 138.76358053 -9 155 C-9.61101562 155.71800781 -10.22203125 156.43601562 -10.8515625 157.17578125 C-15.10199119 161.84750794 -15.10199119 161.84750794 -19.3125 162.5625 C-22 162 -22 162 -24 160 C-24.33984375 157.59375 -24.33984375 157.59375 -24 155 C-22.56640625 153.21875 -22.56640625 153.21875 -20.5625 151.5 C-10.10415352 141.63398465 -2.26008243 128.01835445 1 114 C-1.97 114 -4.94 114 -8 114 C-8 118.95 -8 123.9 -8 129 C-12.95 129 -17.9 129 -23 129 C-23 133.95 -23 138.9 -23 144 C-27.95 144 -32.9 144 -38 144 C-38 148.95 -38 153.9 -38 159 C-42.95 159 -47.9 159 -53 159 C-53 163.95 -53 168.9 -53 174 C-48.05 174 -43.1 174 -38 174 C-38 178.95 -38 183.9 -38 189 C-33.05 189 -28.1 189 -23 189 C-23 184.05 -23 179.1 -23 174 C-18.05 174 -13.1 174 -8 174 C-8 169.05 -8 164.1 -8 159 C-3.05 159 1.9 159 7 159 C7 154.05 7 149.1 7 144 C11.62 144 16.24 144 21 144 C34.87136812 117.8335556 37.99926574 87.28349681 29.5234375 58.76953125 C23.64568975 40.47687547 14.14125996 24.00228111 -0.25 11.03515625 C-2.30275343 8.64791398 -2.79089246 7.12131258 -3 4 C-1.5625 1.6875 -1.5625 1.6875 0 0 Z " fill="#F3F3F3" transform="translate(308,126)"/>
<path d="M0 0 C9.9 0 19.8 0 30 0 C30 19.8 30 39.6 30 60 C34.95 60 39.9 60 45 60 C45 64.95 45 69.9 45 75 C49.95 75 54.9 75 60 75 C60 79.95 60 84.9 60 90 C64.62 89.67 69.24 89.34 74 89 C89.18171411 115.1462854 90.84174513 144.57759065 84.15625 173.671875 C81.81146448 181.95947898 78.03806869 189.43429265 74 197 C73.67 196.34 73.34 195.68 73 195 C68.71 195 64.42 195 60 195 C60 199.95 60 204.9 60 210 C55.05 210 50.1 210 45 210 C45 214.95 45 219.9 45 225 C40.05 225 35.1 225 30 225 C30 229.95 30 234.9 30 240 C25.05 240 20.1 240 15 240 C15 235.05 15 230.1 15 225 C10.05 225 5.1 225 0 225 C0 220.05 0 215.1 0 210 C4.95 210 9.9 210 15 210 C15 205.05 15 200.1 15 195 C19.95 195 24.9 195 30 195 C30 190.05 30 185.1 30 180 C34.95 180 39.9 180 45 180 C45 175.05 45 170.1 45 165 C47.97 165 50.94 165 54 165 C53.48575582 170.59150007 52.00832094 174.78208677 49.4375 179.75 C48.90394897 180.79498657 48.90394897 180.79498657 48.35961914 181.86108398 C44.25255083 189.70562964 39.47515083 196.79070335 33 202.875 C30.36161897 205.34192571 30.36161897 205.34192571 29.5 208.875 C29.7967124 210.97216394 29.7967124 210.97216394 31 212 C34.52471861 212.38559334 36.36104047 212.44759602 39.30859375 210.3828125 C56.70040522 191.93791886 67.46373386 168.40991071 67.3125 142.8125 C67.30686035 141.80509766 67.3012207 140.79769531 67.29541016 139.75976562 C66.88810604 114.54723752 56.3183364 93.60415352 39.43359375 75.203125 C37.13360078 72.67922104 37.13360078 72.67922104 33.6875 72.6875 C32.800625 72.790625 31.91375 72.89375 31 73 C30.06043563 75.72872422 30.06043563 75.72872422 30 79 C31.57281261 81.14642662 32.96706297 82.70602037 34.875 84.5 C45.86572346 95.67254879 55.79750159 110.64759726 56.0625 126.8125 C56.041875 127.864375 56.02125 128.91625 56 130 C55.67 130 55.34 130 55 130 C54.01 125.545 54.01 125.545 53 121 C50.36 120.67 47.72 120.34 45 120 C45 115.05 45 110.1 45 105 C40.05 105 35.1 105 30 105 C30 100.05 30 95.1 30 90 C25.05 90 20.1 90 15 90 C16.65 91.65 18.3 93.3 20 95 C21 96 22 97 23 98 C22.67 98.66 22.34 99.32 22 100 C21.55269531 99.55527344 21.10539062 99.11054688 20.64453125 98.65234375 C18.82329857 96.94760783 17.07229494 95.39152036 15 94 C12.14054182 93.94949548 12.14054182 93.94949548 10 95 C9.22464465 97.31524174 9.22464465 97.31524174 9 100 C10.15075083 101.98523443 10.15075083 101.98523443 12 103.6875 C23.32951072 115.85205434 28.7004676 128.51698647 28.25561523 145.12353516 C28.18865303 146.7498771 28.09722952 148.37518663 28 150 C25.27157939 151.36421031 23.39046682 150.87807211 20.375 150.5625 C18.60125 150.376875 16.8275 150.19125 15 150 C15 145.05 15 140.1 15 135 C10.05 135 5.1 135 0 135 C0 131.04 0 127.08 0 123 C-0.66 122.67 -1.32 122.34 -2 122 C-1.34 121.01 -0.68 120.02 0 119 C0.73842186 113.61567391 -1.19869046 110.16463215 -4 105.75 C-4.40065674 105.08887207 -4.80131348 104.42774414 -5.21411133 103.74658203 C-7.70848074 99.72403777 -10.43798047 96.33434888 -13.6875 92.875 C-16.31051099 89.81223371 -16.99145065 88.58924732 -17.05078125 84.5 C-16.5 80.875 -16.5 80.875 -15 75 C-10.05 75 -5.1 75 0 75 C0 70.05 0 65.1 0 60 C4.95 60 9.9 60 15 60 C15 55.05 15 50.1 15 45 C10.05 45 5.1 45 0 45 C0 40.05 0 35.1 0 30 C-4.95 30 -9.9 30 -15 30 C-15 25.05 -15 20.1 -15 15 C-10.05 15 -5.1 15 0 15 C0 10.05 0 5.1 0 0 Z " fill="#F9F9F9" transform="translate(255,75)"/>
<path d="M0 0 C5.51708466 0.13456304 7.56431008 2.24911707 11.16918945 5.99584961 C34.71857056 31.77486942 46.2118035 63.67658901 45.13623047 98.50244141 C43.9972751 119.38328975 37.04455881 140.30126601 26 158 C29.63 158.33 33.26 158.66 37 159 C37 163.95 37 168.9 37 174 C41.95 174 46.9 174 52 174 C52 193.8 52 213.6 52 234 C42.1 234 32.2 234 22 234 C22 229.05 22 224.1 22 219 C17.05 219 12.1 219 7 219 C7 214.05 7 209.1 7 204 C2.05 204 -2.9 204 -8 204 C-8 199.05 -8 194.1 -8 189 C-12.95 189 -17.9 189 -23 189 C-23 184.05 -23 179.1 -23 174 C-18.05 174 -13.1 174 -8 174 C-8 169.05 -8 164.1 -8 159 C-3.05 159 1.9 159 7 159 C7 154.05 7 149.1 7 144 C11.62 144 16.24 144 21 144 C34.87136812 117.8335556 37.99926574 87.28349681 29.5234375 58.76953125 C23.64568975 40.47687547 14.14125996 24.00228111 -0.25 11.03515625 C-2.30275343 8.64791398 -2.79089246 7.12131258 -3 4 C-1.5625 1.6875 -1.5625 1.6875 0 0 Z " fill="#EEEEEE" transform="translate(308,126)"/>
<path d="M0 0 C5.80828606 0.5241624 8.60515579 5.03165842 12.203125 9.2890625 C30.05911984 31.22760582 36.48471569 56.45307901 34.00097656 84.578125 C31.62615771 103.14651999 22.35694723 120.33378441 10.203125 134.2890625 C9.59210938 135.00707031 8.98109375 135.72507812 8.3515625 136.46484375 C4.10113381 141.13657044 4.10113381 141.13657044 -0.109375 141.8515625 C-2.796875 141.2890625 -2.796875 141.2890625 -4.796875 139.2890625 C-5.13671875 136.8828125 -5.13671875 136.8828125 -4.796875 134.2890625 C-3.36328125 132.5078125 -3.36328125 132.5078125 -1.359375 130.7890625 C9.09897148 120.92304715 16.94304257 107.30741695 20.203125 93.2890625 C17.233125 93.2890625 14.263125 93.2890625 11.203125 93.2890625 C11.203125 98.2390625 11.203125 103.1890625 11.203125 108.2890625 C6.253125 108.2890625 1.303125 108.2890625 -3.796875 108.2890625 C-3.796875 113.2390625 -3.796875 118.1890625 -3.796875 123.2890625 C-8.746875 123.2890625 -13.696875 123.2890625 -18.796875 123.2890625 C-18.796875 121.2890625 -18.796875 121.2890625 -17.796875 120.2890625 C-18.56 120.3509375 -19.323125 120.4128125 -20.109375 120.4765625 C-22.796875 120.2890625 -22.796875 120.2890625 -24.671875 119.1640625 C-25.796875 117.2890625 -25.796875 117.2890625 -25.796875 114.4140625 C-24.55503478 110.53331182 -22.79509356 109.01471574 -19.796875 106.2890625 C-9.74462092 95.72130821 -6.36950073 82.84675836 -6.35766602 68.60791016 C-6.83380215 53.15068447 -13.79728325 40.91796724 -24.609375 30.17578125 C-25.796875 28.2890625 -25.796875 28.2890625 -25.609375 25.68359375 C-24.796875 23.2890625 -24.796875 23.2890625 -22.796875 21.2890625 C-17.91822917 21.5058912 -15.36288068 23.03770438 -11.796875 26.2890625 C-12.9693881 25.33789116 -14.13474515 24.37789241 -15.296875 23.4140625 C-15.9465625 22.88039062 -16.59625 22.34671875 -17.265625 21.796875 C-17.7709375 21.29929688 -18.27625 20.80171875 -18.796875 20.2890625 C-18.796875 19.6290625 -18.796875 18.9690625 -18.796875 18.2890625 C-13.846875 18.2890625 -8.896875 18.2890625 -3.796875 18.2890625 C-3.796875 23.2390625 -3.796875 28.1890625 -3.796875 33.2890625 C1.153125 33.2890625 6.103125 33.2890625 11.203125 33.2890625 C11.203125 38.2390625 11.203125 43.1890625 11.203125 48.2890625 C13.843125 48.2890625 16.483125 48.2890625 19.203125 48.2890625 C19.863125 49.9390625 20.523125 51.5890625 21.203125 53.2890625 C17.8677748 35.09624323 8.11751981 20.20345731 -4.796875 7.2890625 C-4.0962931 0.4233599 -4.0962931 0.4233599 0 0 Z " fill="#EFEFEF" transform="translate(288.796875,146.7109375)"/>
<path d="M0 0 C0.95197266 -0.02900391 1.90394531 -0.05800781 2.88476562 -0.08789062 C12.46373889 -0.1726603 20.5351985 2.50507872 27.61328125 9.109375 C35.99674558 19.23415847 37.51179226 30.68737047 36.4375 43.3125 C34.26092994 53.77247381 28.7410971 61.21008846 19.9765625 67.0859375 C10.5885456 71.62107182 -1.58614352 71.77613258 -11.671875 69.66015625 C-19.96330798 66.6603055 -25.9830555 60.91691345 -30.5546875 53.5 C-35.00046652 43.85024709 -35.11186222 31.00397759 -32.5 20.75 C-28.99365086 11.31857013 -22.43137614 5.6539079 -13.5625 1.3125 C-9.08641099 -0.17952967 -4.68990986 0.04631247 0 0 Z " fill="#030303" transform="translate(245.5625,0.6875)"/>
<path d="M0 0 C45.39130435 0 45.39130435 0 58.2109375 12.546875 C63.12667669 19.28723353 64.68304658 25.68693292 64.5 33.9375 C64.48718994 34.81631836 64.47437988 35.69513672 64.46118164 36.60058594 C64.15593631 46.35756726 61.62555838 53.18638475 54.83984375 60.31640625 C44.2644441 69.99368279 30.22286077 69.39956849 16.8125 69.1875 C11.264375 69.125625 5.71625 69.06375 0 69 C0 46.23 0 23.46 0 0 Z " fill="#050505" transform="translate(295,1)"/>
<path d="M0 0 C5.51708466 0.13456304 7.56431008 2.24911707 11.16918945 5.99584961 C34.71857056 31.77486942 46.2118035 63.67658901 45.13623047 98.50244141 C43.6519228 125.71474868 32.69933229 151.15888459 15.375 171.9375 C14.9318042 172.46956055 14.4886084 173.00162109 14.03198242 173.54980469 C10.9486632 177.1442563 7.7833451 180.17551923 4 183 C0.51856674 182.92087652 -0.53354744 182.46645256 -3 180 C-2.70475335 176.07835425 -1.5297243 174.0148409 1.125 171.1875 C1.75792969 170.49398437 2.39085937 169.80046875 3.04296875 169.0859375 C4.27194121 167.77601476 5.50335141 166.46837043 6.73828125 165.1640625 C25.67714264 144.52723423 35.02783005 115.65471182 34.27734375 87.88671875 C32.18551676 58.57167854 22.04259882 31.12171665 -0.25 11.03515625 C-2.30275343 8.64791398 -2.79089246 7.12131258 -3 4 C-1.5625 1.6875 -1.5625 1.6875 0 0 Z " fill="#2C2C2C" transform="translate(308,126)"/>
<path d="M0 0 C4.95 0 9.9 0 15 0 C15 3.96 15 7.92 15 12 C13.4325 12.804375 11.865 13.60875 10.25 14.4375 C-13.0756115 27.23668169 -26.78369491 45.50381941 -34.15234375 70.7421875 C-41.84651388 100.31332982 -34.97561442 129.90604822 -20.11303711 155.99731445 C-19.69417236 156.74198975 -19.27530762 157.48666504 -18.84375 158.25390625 C-18.27430664 159.23339233 -18.27430664 159.23339233 -17.69335938 160.23266602 C-17 162 -17 162 -18 165 C-21.96 165 -25.92 165 -30 165 C-30 160.05 -30 155.1 -30 150 C-34.95 150 -39.9 150 -45 150 C-45 115.35 -45 80.7 -45 45 C-40.05 45 -35.1 45 -30 45 C-30 40.05 -30 35.1 -30 30 C-25.05 30 -20.1 30 -15 30 C-15 25.05 -15 20.1 -15 15 C-10.05 15 -5.1 15 0 15 C0 10.05 0 5.1 0 0 Z " fill="#FBFBFB" transform="translate(45,30)"/>
<path d="M0 0 C5.80828606 0.5241624 8.60515579 5.03165842 12.203125 9.2890625 C30.05911984 31.22760582 36.48471569 56.45307901 34.00097656 84.578125 C31.62615771 103.14651999 22.35694723 120.33378441 10.203125 134.2890625 C9.59210938 135.00707031 8.98109375 135.72507812 8.3515625 136.46484375 C4.10113381 141.13657044 4.10113381 141.13657044 -0.109375 141.8515625 C-2.796875 141.2890625 -2.796875 141.2890625 -4.796875 139.2890625 C-5.13671875 136.8828125 -5.13671875 136.8828125 -4.796875 134.2890625 C-3.36328125 132.5078125 -3.36328125 132.5078125 -1.359375 130.7890625 C10.06219379 120.01437902 17.48285438 105.44235991 21.203125 90.2890625 C21.37158936 89.64211426 21.54005371 88.99516602 21.71362305 88.32861328 C23.08910537 82.72007646 23.55471801 77.42999856 23.515625 71.6640625 C23.51071045 70.79450928 23.5057959 69.92495605 23.50073242 69.02905273 C23.06098969 44.47787771 12.29314414 24.37908164 -4.796875 7.2890625 C-4.0962931 0.4233599 -4.0962931 0.4233599 0 0 Z " fill="#2B2B2B" transform="translate(288.796875,146.7109375)"/>
<path d="M0 0 C4.95 0 9.9 0 15 0 C15 4.95 15 9.9 15 15 C19.95 15 24.9 15 30 15 C30 19.95 30 24.9 30 30 C34.95 30 39.9 30 45 30 C45 34.95 45 39.9 45 45 C36.7524957 46.04179002 36.7524957 46.04179002 32 45 C28.19051931 41.53471435 25.75124302 37.32193425 23 33 C21.48541127 31.0656755 19.92476225 29.1661992 18.3125 27.3125 C17.62800781 26.50425781 16.94351562 25.69601563 16.23828125 24.86328125 C13.50981885 22.59194344 11.49154388 22.29470828 8 22 C5.76454681 24.72875002 5.76454681 24.72875002 6.0625 27.375 C7.31734062 30.88855373 9.24910411 32.49362819 12 35 C19.11974294 41.73960224 25.67528608 49.66323862 29 59 C28 60 28 60 25.05859375 60.09765625 C20.02929688 60.04882812 20.02929688 60.04882812 15 60 C15 55.05 15 50.1 15 45 C10.05 45 5.1 45 0 45 C0 40.05 0 35.1 0 30 C-4.95 30 -9.9 30 -15 30 C-15 25.05 -15 20.1 -15 15 C-10.05 15 -5.1 15 0 15 C0 10.05 0 5.1 0 0 Z " fill="#EEEEEE" transform="translate(300,105)"/>
<path d="M0 0 C7.23088906 0 7.23088906 0 11 2 C13.66388474 2.29409882 13.66388474 2.29409882 16.60614014 2.24050903 C17.74754959 2.24325836 18.88895905 2.24600769 20.06495667 2.24884033 C21.31292526 2.24164978 22.56089386 2.23445923 23.84667969 2.22705078 C25.16399582 2.22734283 26.48131195 2.22763489 27.83854675 2.22793579 C31.44775352 2.2285096 35.05682735 2.21675074 38.66600323 2.20278788 C42.43897007 2.19028524 46.21193996 2.18911039 49.98492432 2.18673706 C57.1282211 2.18052092 64.27145667 2.16410829 71.4147265 2.14403808 C79.54766678 2.12168326 87.68061 2.1106867 95.81357336 2.10064721 C112.54241808 2.07974218 129.27120123 2.04456359 146 2 C146 2.33 146 2.66 146 3 C122.57 3 99.14 3 75 3 C75 6.96 75 10.92 75 15 C79.95 15 84.9 15 90 15 C90 19.95 90 24.9 90 30 C75.15 30 60.3 30 45 30 C45 21.09 45 12.18 45 3 C35.1 3.33 25.2 3.66 15 4 C15 7.63 15 11.26 15 15 C10.05 15 5.1 15 0 15 C0 10.05 0 5.1 0 0 Z " fill="#FFFFFF" transform="translate(15,330)"/>
<path d="M0 0 C4.29 0 8.58 0 13 0 C13 0.66 13 1.32 13 2 C13.99 2.33 14.98 2.66 16 3 C22.26618674 13.90780655 19.62028566 30.92581167 16.9765625 42.55078125 C15.45178522 47.93629462 13.32106414 52.9173298 11 58 C10.03952603 60.29077032 9.08128083 62.58247609 8.125 64.875 C-0.90423977 85.90423977 -0.90423977 85.90423977 -5 90 C-8.33618231 90.14257189 -11.65975606 90.04228157 -15 90 C-15 85.05 -15 80.1 -15 75 C-10.05 75 -5.1 75 0 75 C0 70.05 0 65.1 0 60 C-4.95 60 -9.9 60 -15 60 C-15 55.05 -15 50.1 -15 45 C-10.05 45 -5.1 45 0 45 C0 40.05 0 35.1 0 30 C4.95 30 9.9 30 15 30 C15 25.05 15 20.1 15 15 C10.05 15 5.1 15 0 15 C0 10.05 0 5.1 0 0 Z " fill="#EEEEEE" transform="translate(30,225)"/>
<path d="M0 0 C5.39222224 3.636615 8.27593901 8.49601844 9.6875 14.8125 C10.57315983 23.15690944 9.9291673 30.46483761 5.6875 37.8125 C2.45318575 41.67789996 0.29653493 43.56265521 -4.80078125 44.05078125 C-9.34181733 44.17011691 -12.56505188 44.15224915 -16.75 42.25 C-21.37033126 37.85505076 -24.14227781 32.75537973 -24.515625 26.30078125 C-24.82339739 9.95355846 -24.82339739 9.95355846 -18.875 2.9375 C-13.00135688 -1.933326 -7.16988957 -2.57033777 0 0 Z " fill="#EDEDED" transform="translate(254.3125,14.1875)"/>
<path d="M0 0 C3.83319491 0.09050599 5.60754778 0.67036406 8.5625 3.15234375 C22.79783834 19.41804285 28.39635447 34.92308518 27.23706055 56.48510742 C25.73835012 72.38440315 17.99127458 86.24969706 6.9921875 97.63671875 C4.47535769 99.35901993 2.99196633 99.34939081 0 99 C-1.875 97.875 -1.875 97.875 -3 96 C-3 92.07629746 -2.38746474 90.43051638 0.25 87.5 C1.1575 86.675 2.065 85.85 3 85 C13.05225408 74.43224571 16.42737427 61.55769586 16.43920898 47.31884766 C15.96307285 31.86162197 8.99959175 19.62890474 -1.8125 8.88671875 C-3 7 -3 7 -2.8125 4.39453125 C-2 2 -2 2 0 0 Z " fill="#2C2C2C" transform="translate(266,168)"/>
<path d="M0 0 C17.11578947 0 17.11578947 0 23.8125 5.484375 C28.52396868 10.41396723 28.54578665 15.71058593 28.5703125 22.18847656 C28.38993139 27.63969968 26.9578036 31.62628994 23.4921875 35.828125 C16.15899714 42.27566435 9.6521135 42 0 42 C0 28.14 0 14.28 0 0 Z " fill="#F9F9F9" transform="translate(313,15)"/>
<path d="M0 0 C24.75 0 49.5 0 75 0 C75 2.31 75 4.62 75 7 C74.31679688 6.6390625 73.63359375 6.278125 72.9296875 5.90625 C61.5214346 0.65436887 48.31903355 -0.25342457 36.1640625 3.0390625 C28.47642545 6.50527669 23.65490127 11.69974746 19.9140625 19.16796875 C16.2626481 28.89949062 16.40002976 41.84786489 20.0625 51.5 C20.44535156 52.3353125 20.82820313 53.170625 21.22265625 54.03125 C21.47917969 54.6809375 21.73570312 55.330625 22 56 C21.67 56.66 21.34 57.32 21 58 C16.125 54.25 16.125 54.25 15 52 C15 49.69 15 47.38 15 45 C10.05 45 5.1 45 0 45 C0 40.05 0 35.1 0 30 C4.95 30 9.9 30 15 30 C15 25.05 15 20.1 15 15 C10.05 15 5.1 15 0 15 C0 10.05 0 5.1 0 0 Z " fill="#F3F3F3" transform="translate(195,0)"/>
<path d="M0 0 C4.95 0 9.9 0 15 0 C15 3.96 15 7.92 15 12 C13.4325 12.804375 11.865 13.60875 10.25 14.4375 C-9.52835724 25.29023961 -22.87880052 40.08175891 -31 61 C-37.93 60.505 -37.93 60.505 -45 60 C-45 55.05 -45 50.1 -45 45 C-40.05 45 -35.1 45 -30 45 C-30 40.05 -30 35.1 -30 30 C-25.05 30 -20.1 30 -15 30 C-15 25.05 -15 20.1 -15 15 C-10.05 15 -5.1 15 0 15 C0 10.05 0 5.1 0 0 Z " fill="#EDEDED" transform="translate(45,30)"/>
<path d="M0 0 C24.75 0 49.5 0 75 0 C75 24.75 75 49.5 75 75 C70.05 75 65.1 75 60 75 C59.15253078 65.07250342 59.15253078 65.07250342 61.3828125 62.25 C62.60673236 61.31748963 63.85141904 60.41173803 65.11328125 59.53125 C69.44093546 56.01895093 71.85250388 50.36558422 73 45 C73.92519945 34.77596054 74.86379471 23.32892027 68 15 C56.14973745 2.17513642 41.26306588 2.21020214 24.87841797 1.50830078 C19.91949574 1.31619268 14.9603422 1.15115718 10 1 C10 5.62 10 10.24 10 15 C6.7 15 3.4 15 0 15 C0 10.05 0 5.1 0 0 Z " fill="#ECECEC" transform="translate(285,0)"/>
<path d="M0 0 C0.65226563 0.40992188 1.30453125 0.81984375 1.9765625 1.2421875 C2.85054687 1.78101563 3.72453125 2.31984375 4.625 2.875 C5.48351562 3.40867187 6.34203125 3.94234375 7.2265625 4.4921875 C13.10751612 7.68943834 18.1863897 8.35860147 24.75 8.3125 C25.54623779 8.30903564 26.34247559 8.30557129 27.1628418 8.30200195 C35.23902062 8.15303748 42.27355023 6.70851484 49 2 C49 5.63 49 9.26 49 13 C44.05 13 39.1 13 34 13 C34 17.95 34 22.9 34 28 C29.05 28 24.1 28 19 28 C19 32.95 19 37.9 19 43 C17.06125 42.95875 15.1225 42.9175 13.125 42.875 C9.89883083 42.75660449 9.89883083 42.75660449 7 43 C6.34 43.66 5.68 44.32 5 45 C4.34 41.7 3.68 38.4 3 35 C3.66 35.33 4.32 35.66 5 36 C6.37342831 36.0689472 7.75002102 36.08467708 9.125 36.0625 C10.40375 36.041875 11.6825 36.02125 13 36 C14.94615142 32.10769717 13.98897253 28.10649507 13 24 C11.8970379 21.17317008 10.6060462 18.46334135 9.25 15.75 C8.91492432 15.07694824 8.57984863 14.40389648 8.23461914 13.71044922 C6.50174892 10.39072104 4.67874479 7.48491989 2.234375 4.640625 C0 2 0 2 0 0 Z " fill="#EDEDED" transform="translate(221,62)"/>
<path d="M0 0 C4.95 0 9.9 0 15 0 C15 4.95 15 9.9 15 15 C19.95 15 24.9 15 30 15 C30 19.95 30 24.9 30 30 C34.62 29.67 39.24 29.34 44 29 C47.98491115 35.64151858 46.6721291 37.69543604 45 45 C40.38 45.33 35.76 45.66 31 46 C30.53851563 45.14019531 30.07703125 44.28039062 29.6015625 43.39453125 C24.79184662 34.61135409 19.380026 26.71412925 13 19 C12.43152344 18.29230469 11.86304688 17.58460938 11.27734375 16.85546875 C8.57183074 13.77479126 7.27762589 13.02686702 3.125 12.625 C2.09375 12.74875 1.0625 12.8725 0 13 C0 8.71 0 4.42 0 0 Z " fill="#FDFDFD" transform="translate(285,135)"/>
<path d="M0 0 C4.95 0 9.9 0 15 0 C15 4.95 15 9.9 15 15 C17.31 15 19.62 15 22 15 C21.68444225 20.20670288 18.69871603 23.57730756 15 27 C9.21111685 28.92962772 3.12477307 28.96580594 -2.4375 26.4375 C-5.55957954 23.46771702 -7.13234072 20.87898465 -9 17 C-9 16.34 -9 15.68 -9 15 C-6.03 15 -3.06 15 0 15 C0 10.05 0 5.1 0 0 Z " fill="#EDEDED" transform="translate(240,30)"/>
<path d="M0 0 C8.49609375 -0.09765625 8.49609375 -0.09765625 11 0 C12 1 12 1 12 4.6875 C11.12283281 11.80736359 7.50560742 17.87433526 4 24 C3.55785156 24.82113281 3.11570312 25.64226562 2.66015625 26.48828125 C1.21852839 28.6748232 0.33994843 29.80194641 -2 31 C-6.56056551 31.26185065 -10.43641659 30.69850766 -15 30 C-15 25.05 -15 20.1 -15 15 C-10.05 15 -5.1 15 0 15 C0 10.05 0 5.1 0 0 Z " fill="#EEEEEE" transform="translate(270,225)"/>
<path d="M0 0 C4.95 0 9.9 0 15 0 C15.43570312 1.01578125 15.87140625 2.0315625 16.3203125 3.078125 C16.92104865 4.46910718 17.52267461 5.85970526 18.125 7.25 C18.43759766 7.97203613 18.75019531 8.69407227 19.07226562 9.43798828 C21.50568445 15.00166859 24.16986219 20.38438482 27.03125 25.7421875 C27.3509375 26.48726562 27.670625 27.23234375 28 28 C27.67 28.66 27.34 29.32 27 30 C23.04 30 19.08 30 15 30 C15 25.05 15 20.1 15 15 C10.05 15 5.1 15 0 15 C0 10.05 0 5.1 0 0 Z " fill="#EEEEEE" transform="translate(0,165)"/>
<path d="M0 0 C3.63 0 7.26 0 11 0 C11.5718831 14.27589655 11.5718831 14.27589655 8 19 C3.56128917 23.52448302 0.43161617 25.88887253 -6.015625 26.09765625 C-7.08296875 26.08605469 -8.1503125 26.07445313 -9.25 26.0625 C-10.32765625 26.05347656 -11.4053125 26.04445313 -12.515625 26.03515625 C-13.33546875 26.02355469 -14.1553125 26.01195313 -15 26 C-15 22.37 -15 18.74 -15 15 C-10.05 15 -5.1 15 0 15 C0 10.05 0 5.1 0 0 Z " fill="#FEFEFE" transform="translate(330,30)"/>
<path d="M0 0 C3.96 0 7.92 0 12 0 C12 4.95 12 9.9 12 15 C14.59875 14.87625 14.59875 14.87625 17.25 14.75 C20.64926794 14.78062404 22.61347041 14.81122973 25.6875 16.3125 C27.87022824 20.78189592 27.23429278 25.07985156 27 30 C22.05 30.33 17.1 30.66 12 31 C12.09023437 29.84242188 12.18046875 28.68484375 12.2734375 27.4921875 C12.27121297 22.44471893 10.33941693 19.25491042 7.625 15.125 C7.00625 14.13113281 7.00625 14.13113281 6.375 13.1171875 C4.74153429 10.52471934 3.17236282 8.17236282 1 6 C0.60235737 4.01178687 0.26224651 2.01055661 0 0 Z " fill="#EFEFEF" transform="translate(243,165)"/>
<path d="M0 0 C4.95 0 9.9 0 15 0 C15 4.95 15 9.9 15 15 C19.95 15 24.9 15 30 15 C30 19.95 30 24.9 30 30 C28.55625 29.979375 27.1125 29.95875 25.625 29.9375 C22.17771295 29.84827854 22.17771295 29.84827854 19 31 C18.79246094 30.38253906 18.58492188 29.76507813 18.37109375 29.12890625 C16.23829216 23.26593285 13.65243818 18.83788111 9.5859375 14.10546875 C8 12 8 12 6.984375 9.40625 C5.93083243 6.83092371 5.08770772 5.9212561 2.875 4.3125 C1.92625 3.549375 0.9775 2.78625 0 2 C0 1.34 0 0.68 0 0 Z " fill="#EEEEEE" transform="translate(270,165)"/>
<path d="M0 0 C4.95 0 9.9 0 15 0 C15 4.95 15 9.9 15 15 C19.95 15 24.9 15 30 15 C30 17.64 30 20.28 30 23 C23.79120882 22.42973215 18.33114 20.99433628 12.4375 19 C6.9423938 17.14938441 1.77708062 15.62035765 -4 15 C-2.68 14.67 -1.36 14.34 0 14 C0 9.38 0 4.76 0 0 Z " fill="#EEEEEE" transform="translate(150,15)"/>
<path d="M0 0 C7.23088906 0 7.23088906 0 11 2 C13.66388474 2.29409882 13.66388474 2.29409882 16.60614014 2.24050903 C17.74754959 2.24325836 18.88895905 2.24600769 20.06495667 2.24884033 C21.31292526 2.24164978 22.56089386 2.23445923 23.84667969 2.22705078 C25.16399582 2.22734283 26.48131195 2.22763489 27.83854675 2.22793579 C31.44775352 2.2285096 35.05682735 2.21675074 38.66600323 2.20278788 C42.43897007 2.19028524 46.21193996 2.18911039 49.98492432 2.18673706 C57.1282211 2.18052092 64.27145667 2.16410829 71.4147265 2.14403808 C79.54766678 2.12168326 87.68061 2.1106867 95.81357336 2.10064721 C112.54241808 2.07974218 129.27120123 2.04456359 146 2 C146 2.33 146 2.66 146 3 C81.155 3.495 81.155 3.495 15 4 C15 7.63 15 11.26 15 15 C10.05 15 5.1 15 0 15 C0 10.05 0 5.1 0 0 Z " fill="#CECECE" transform="translate(15,330)"/>
<path d="M0 0 C2.64 0 5.28 0 8 0 C7.54380388 6.26743282 6.03511835 10.68947138 3.0625 16.1875 C2.34332815 17.5550844 1.62583687 18.92355409 0.91015625 20.29296875 C0.57387207 20.92895996 0.23758789 21.56495117 -0.10888672 22.22021484 C-1.11458366 24.15786717 -1.11458366 24.15786717 -2.12890625 26.92578125 C-3 29 -3 29 -5 30 C-6.70702735 30.06996014 -8.41668003 30.08440154 -10.125 30.0625 C-11.73375 30.041875 -13.3425 30.02125 -15 30 C-15 25.05 -15 20.1 -15 15 C-10.05 15 -5.1 15 0 15 C0 10.05 0 5.1 0 0 Z " fill="#EEEEEE" transform="translate(30,285)"/>
<path d="M0 0 C4.95 0 9.9 0 15 0 C15 4.95 15 9.9 15 15 C11.04 15 7.08 15 3 15 C3.33 16.32 3.66 17.64 4 19 C-1.57142857 13.85714286 -1.57142857 13.85714286 -2 10 C-1.67 10 -1.34 10 -1 10 C-0.67 6.7 -0.34 3.4 0 0 Z " fill="#FDFDFD" transform="translate(240,150)"/>
<path d="M0 0 C1.87056791 0.2275015 3.74685958 0.40962811 5.625 0.5625 C8.285625 0.7790625 8.285625 0.7790625 11 1 C11 5.95 11 10.9 11 16 C6.05 16 1.1 16 -4 16 C-3.93489583 12.41927083 -3.86979167 8.83854167 -3.8046875 5.2578125 C-3.64358476 1.91406662 -3.64358476 1.91406662 -6 0 C-2.25 -1.125 -2.25 -1.125 0 0 Z " fill="#EEEEEE" transform="translate(214,284)"/>
<path d="M0 0 C5.28 0 10.56 0 16 0 C16 4.95 16 9.9 16 15 C11.05 15 6.1 15 1 15 C0.67 10.05 0.34 5.1 0 0 Z " fill="#EEEEEE" transform="translate(164,330)"/>
<path d="M0 0 C4.95 0 9.9 0 15 0 C15 4.95 15 9.9 15 15 C10.05 15 5.1 15 0 15 C0 10.05 0 5.1 0 0 Z " fill="#FFFFFF" transform="translate(345,345)"/>
<path d="M0 0 C4.95 0 9.9 0 15 0 C15 4.95 15 9.9 15 15 C10.05 15 5.1 15 0 15 C0 10.05 0 5.1 0 0 Z " fill="#EFEFEF" transform="translate(330,345)"/>
<path d="M0 0 C4.95 0 9.9 0 15 0 C15 4.95 15 9.9 15 15 C10.05 15 5.1 15 0 15 C0 10.05 0 5.1 0 0 Z " fill="#FFFFFF" transform="translate(315,345)"/>
<path d="M0 0 C4.95 0 9.9 0 15 0 C15 4.95 15 9.9 15 15 C10.05 15 5.1 15 0 15 C0 10.05 0 5.1 0 0 Z " fill="#EFEFEF" transform="translate(300,345)"/>
<path d="M0 0 C4.95 0 9.9 0 15 0 C15 4.95 15 9.9 15 15 C10.05 15 5.1 15 0 15 C0 10.05 0 5.1 0 0 Z " fill="#FFFFFF" transform="translate(285,345)"/>
<path d="M0 0 C4.95 0 9.9 0 15 0 C15 4.95 15 9.9 15 15 C10.05 15 5.1 15 0 15 C0 10.05 0 5.1 0 0 Z " fill="#EFEFEF" transform="translate(270,345)"/>
<path d="M0 0 C4.95 0 9.9 0 15 0 C15 4.95 15 9.9 15 15 C10.05 15 5.1 15 0 15 C0 10.05 0 5.1 0 0 Z " fill="#FFFFFF" transform="translate(255,345)"/>
<path d="M0 0 C4.95 0 9.9 0 15 0 C15 4.95 15 9.9 15 15 C10.05 15 5.1 15 0 15 C0 10.05 0 5.1 0 0 Z " fill="#EFEFEF" transform="translate(240,345)"/>
<path d="M0 0 C4.95 0 9.9 0 15 0 C15 4.95 15 9.9 15 15 C10.05 15 5.1 15 0 15 C0 10.05 0 5.1 0 0 Z " fill="#FFFFFF" transform="translate(225,345)"/>
<path d="M0 0 C4.95 0 9.9 0 15 0 C15 4.95 15 9.9 15 15 C10.05 15 5.1 15 0 15 C0 10.05 0 5.1 0 0 Z " fill="#EFEFEF" transform="translate(210,345)"/>
<path d="M0 0 C4.95 0 9.9 0 15 0 C15 4.95 15 9.9 15 15 C10.05 15 5.1 15 0 15 C0 10.05 0 5.1 0 0 Z " fill="#FFFFFF" transform="translate(195,345)"/>
<path d="M0 0 C4.95 0 9.9 0 15 0 C15 4.95 15 9.9 15 15 C10.05 15 5.1 15 0 15 C0 10.05 0 5.1 0 0 Z " fill="#EFEFEF" transform="translate(180,345)"/>
<path d="M0 0 C4.95 0 9.9 0 15 0 C15 4.95 15 9.9 15 15 C10.05 15 5.1 15 0 15 C0 10.05 0 5.1 0 0 Z " fill="#FFFFFF" transform="translate(165,345)"/>
<path d="M0 0 C4.95 0 9.9 0 15 0 C15 4.95 15 9.9 15 15 C10.05 15 5.1 15 0 15 C0 10.05 0 5.1 0 0 Z " fill="#EFEFEF" transform="translate(150,345)"/>
<path d="M0 0 C4.95 0 9.9 0 15 0 C15 4.95 15 9.9 15 15 C10.05 15 5.1 15 0 15 C0 10.05 0 5.1 0 0 Z " fill="#FFFFFF" transform="translate(135,345)"/>
<path d="M0 0 C4.95 0 9.9 0 15 0 C15 4.95 15 9.9 15 15 C10.05 15 5.1 15 0 15 C0 10.05 0 5.1 0 0 Z " fill="#EFEFEF" transform="translate(120,345)"/>
<path d="M0 0 C4.95 0 9.9 0 15 0 C15 4.95 15 9.9 15 15 C10.05 15 5.1 15 0 15 C0 10.05 0 5.1 0 0 Z " fill="#EFEFEF" transform="translate(90,345)"/>
<path d="M0 0 C4.95 0 9.9 0 15 0 C15 4.95 15 9.9 15 15 C10.05 15 5.1 15 0 15 C0 10.05 0 5.1 0 0 Z " fill="#FFFFFF" transform="translate(75,345)"/>
<path d="M0 0 C4.95 0 9.9 0 15 0 C15 4.95 15 9.9 15 15 C10.05 15 5.1 15 0 15 C0 10.05 0 5.1 0 0 Z " fill="#EFEFEF" transform="translate(60,345)"/>
<path d="M0 0 C4.95 0 9.9 0 15 0 C15 4.95 15 9.9 15 15 C10.05 15 5.1 15 0 15 C0 10.05 0 5.1 0 0 Z " fill="#FFFFFF" transform="translate(45,345)"/>
<path d="M0 0 C4.95 0 9.9 0 15 0 C15 4.95 15 9.9 15 15 C10.05 15 5.1 15 0 15 C0 10.05 0 5.1 0 0 Z " fill="#EFEFEF" transform="translate(30,345)"/>
<path d="M0 0 C4.95 0 9.9 0 15 0 C15 4.95 15 9.9 15 15 C10.05 15 5.1 15 0 15 C0 10.05 0 5.1 0 0 Z " fill="#FFFFFF" transform="translate(15,345)"/>
<path d="M0 0 C4.95 0 9.9 0 15 0 C15 4.95 15 9.9 15 15 C10.05 15 5.1 15 0 15 C0 10.05 0 5.1 0 0 Z " fill="#EFEFEF" transform="translate(0,345)"/>
<path d="M0 0 C4.95 0 9.9 0 15 0 C15 4.95 15 9.9 15 15 C10.05 15 5.1 15 0 15 C0 10.05 0 5.1 0 0 Z " fill="#EFEFEF" transform="translate(345,330)"/>
<path d="M0 0 C4.95 0 9.9 0 15 0 C15 4.95 15 9.9 15 15 C10.05 15 5.1 15 0 15 C0 10.05 0 5.1 0 0 Z " fill="#FFFFFF" transform="translate(330,330)"/>
<path d="M0 0 C4.95 0 9.9 0 15 0 C15 4.95 15 9.9 15 15 C10.05 15 5.1 15 0 15 C0 10.05 0 5.1 0 0 Z " fill="#EFEFEF" transform="translate(315,330)"/>
<path d="M0 0 C4.95 0 9.9 0 15 0 C15 4.95 15 9.9 15 15 C10.05 15 5.1 15 0 15 C0 10.05 0 5.1 0 0 Z " fill="#FFFFFF" transform="translate(300,330)"/>
<path d="M0 0 C4.95 0 9.9 0 15 0 C15 4.95 15 9.9 15 15 C10.05 15 5.1 15 0 15 C0 10.05 0 5.1 0 0 Z " fill="#EFEFEF" transform="translate(285,330)"/>
<path d="M0 0 C4.95 0 9.9 0 15 0 C15 4.95 15 9.9 15 15 C10.05 15 5.1 15 0 15 C0 10.05 0 5.1 0 0 Z " fill="#FFFFFF" transform="translate(270,330)"/>
<path d="M0 0 C4.95 0 9.9 0 15 0 C15 4.95 15 9.9 15 15 C10.05 15 5.1 15 0 15 C0 10.05 0 5.1 0 0 Z " fill="#EFEFEF" transform="translate(255,330)"/>
<path d="M0 0 C4.95 0 9.9 0 15 0 C15 4.95 15 9.9 15 15 C10.05 15 5.1 15 0 15 C0 10.05 0 5.1 0 0 Z " fill="#FFFFFF" transform="translate(240,330)"/>
<path d="M0 0 C4.95 0 9.9 0 15 0 C15 4.95 15 9.9 15 15 C10.05 15 5.1 15 0 15 C0 10.05 0 5.1 0 0 Z " fill="#EFEFEF" transform="translate(225,330)"/>
<path d="M0 0 C4.95 0 9.9 0 15 0 C15 4.95 15 9.9 15 15 C10.05 15 5.1 15 0 15 C0 10.05 0 5.1 0 0 Z " fill="#FFFFFF" transform="translate(210,330)"/>
<path d="M0 0 C4.95 0 9.9 0 15 0 C15 4.95 15 9.9 15 15 C10.05 15 5.1 15 0 15 C0 10.05 0 5.1 0 0 Z " fill="#EFEFEF" transform="translate(195,330)"/>
<path d="M0 0 C4.95 0 9.9 0 15 0 C15 4.95 15 9.9 15 15 C10.05 15 5.1 15 0 15 C0 10.05 0 5.1 0 0 Z " fill="#FFFFFF" transform="translate(180,330)"/>
<path d="M0 0 C4.95 0 9.9 0 15 0 C15 4.95 15 9.9 15 15 C10.05 15 5.1 15 0 15 C0 10.05 0 5.1 0 0 Z " fill="#FFFFFF" transform="translate(0,330)"/>
<path d="M0 0 C4.95 0 9.9 0 15 0 C15 4.95 15 9.9 15 15 C10.05 15 5.1 15 0 15 C0 10.05 0 5.1 0 0 Z " fill="#FFFFFF" transform="translate(345,315)"/>
<path d="M0 0 C4.95 0 9.9 0 15 0 C15 4.95 15 9.9 15 15 C10.05 15 5.1 15 0 15 C0 10.05 0 5.1 0 0 Z " fill="#EFEFEF" transform="translate(330,315)"/>
<path d="M0 0 C4.95 0 9.9 0 15 0 C15 4.95 15 9.9 15 15 C10.05 15 5.1 15 0 15 C0 10.05 0 5.1 0 0 Z " fill="#FFFFFF" transform="translate(315,315)"/>
<path d="M0 0 C4.95 0 9.9 0 15 0 C15 4.95 15 9.9 15 15 C10.05 15 5.1 15 0 15 C0 10.05 0 5.1 0 0 Z " fill="#FFFFFF" transform="translate(285,315)"/>
<path d="M0 0 C4.95 0 9.9 0 15 0 C15 4.95 15 9.9 15 15 C10.05 15 5.1 15 0 15 C0 10.05 0 5.1 0 0 Z " fill="#EFEFEF" transform="translate(270,315)"/>
<path d="M0 0 C4.95 0 9.9 0 15 0 C15 4.95 15 9.9 15 15 C10.05 15 5.1 15 0 15 C0 10.05 0 5.1 0 0 Z " fill="#FFFFFF" transform="translate(255,315)"/>
<path d="M0 0 C4.95 0 9.9 0 15 0 C15 4.95 15 9.9 15 15 C10.05 15 5.1 15 0 15 C0 10.05 0 5.1 0 0 Z " fill="#EFEFEF" transform="translate(240,315)"/>
<path d="M0 0 C4.95 0 9.9 0 15 0 C15 4.95 15 9.9 15 15 C10.05 15 5.1 15 0 15 C0 10.05 0 5.1 0 0 Z " fill="#FFFFFF" transform="translate(225,315)"/>
<path d="M0 0 C4.95 0 9.9 0 15 0 C15 4.95 15 9.9 15 15 C10.05 15 5.1 15 0 15 C0 10.05 0 5.1 0 0 Z " fill="#EFEFEF" transform="translate(210,315)"/>
<path d="M0 0 C4.95 0 9.9 0 15 0 C15 4.95 15 9.9 15 15 C10.05 15 5.1 15 0 15 C0 10.05 0 5.1 0 0 Z " fill="#FFFFFF" transform="translate(195,315)"/>
<path d="M0 0 C4.95 0 9.9 0 15 0 C15 4.95 15 9.9 15 15 C10.05 15 5.1 15 0 15 C0 10.05 0 5.1 0 0 Z " fill="#EFEFEF" transform="translate(180,315)"/>
<path d="M0 0 C4.95 0 9.9 0 15 0 C15 4.95 15 9.9 15 15 C10.05 15 5.1 15 0 15 C0 10.05 0 5.1 0 0 Z " fill="#FFFFFF" transform="translate(330,300)"/>
<path d="M0 0 C4.95 0 9.9 0 15 0 C15 4.95 15 9.9 15 15 C10.05 15 5.1 15 0 15 C0 10.05 0 5.1 0 0 Z " fill="#FFFFFF" transform="translate(270,300)"/>
<path d="M0 0 C4.95 0 9.9 0 15 0 C15 4.95 15 9.9 15 15 C10.05 15 5.1 15 0 15 C0 10.05 0 5.1 0 0 Z " fill="#EFEFEF" transform="translate(255,300)"/>
<path d="M0 0 C4.95 0 9.9 0 15 0 C15 4.95 15 9.9 15 15 C10.05 15 5.1 15 0 15 C0 10.05 0 5.1 0 0 Z " fill="#FFFFFF" transform="translate(240,300)"/>
<path d="M0 0 C4.95 0 9.9 0 15 0 C15 4.95 15 9.9 15 15 C10.05 15 5.1 15 0 15 C0 10.05 0 5.1 0 0 Z " fill="#EFEFEF" transform="translate(225,300)"/>
<path d="M0 0 C4.95 0 9.9 0 15 0 C15 4.95 15 9.9 15 15 C10.05 15 5.1 15 0 15 C0 10.05 0 5.1 0 0 Z " fill="#FFFFFF" transform="translate(210,300)"/>
<path d="M0 0 C4.95 0 9.9 0 15 0 C15 4.95 15 9.9 15 15 C10.05 15 5.1 15 0 15 C0 10.05 0 5.1 0 0 Z " fill="#EFEFEF" transform="translate(195,300)"/>
<path d="M0 0 C4.95 0 9.9 0 15 0 C15 4.95 15 9.9 15 15 C10.05 15 5.1 15 0 15 C0 10.05 0 5.1 0 0 Z " fill="#FFFFFF" transform="translate(180,300)"/>
<path d="M0 0 C4.95 0 9.9 0 15 0 C15 4.95 15 9.9 15 15 C10.05 15 5.1 15 0 15 C0 10.05 0 5.1 0 0 Z " fill="#FFFFFF" transform="translate(0,300)"/>
<path d="M0 0 C4.95 0 9.9 0 15 0 C15 4.95 15 9.9 15 15 C10.05 15 5.1 15 0 15 C0 10.05 0 5.1 0 0 Z " fill="#FFFFFF" transform="translate(345,285)"/>
<path d="M0 0 C4.95 0 9.9 0 15 0 C15 4.95 15 9.9 15 15 C10.05 15 5.1 15 0 15 C0 10.05 0 5.1 0 0 Z " fill="#FFFFFF" transform="translate(255,285)"/>
<path d="M0 0 C4.95 0 9.9 0 15 0 C15 4.95 15 9.9 15 15 C10.05 15 5.1 15 0 15 C0 10.05 0 5.1 0 0 Z " fill="#EFEFEF" transform="translate(240,285)"/>
<path d="M0 0 C4.95 0 9.9 0 15 0 C15 4.95 15 9.9 15 15 C10.05 15 5.1 15 0 15 C0 10.05 0 5.1 0 0 Z " fill="#FFFFFF" transform="translate(225,285)"/>
<path d="M0 0 C4.95 0 9.9 0 15 0 C15 4.95 15 9.9 15 15 C10.05 15 5.1 15 0 15 C0 10.05 0 5.1 0 0 Z " fill="#FFFFFF" transform="translate(15,285)"/>
<path d="M0 0 C4.95 0 9.9 0 15 0 C15 4.95 15 9.9 15 15 C10.05 15 5.1 15 0 15 C0 10.05 0 5.1 0 0 Z " fill="#EFEFEF" transform="translate(0,285)"/>
<path d="M0 0 C4.95 0 9.9 0 15 0 C15 4.95 15 9.9 15 15 C10.05 15 5.1 15 0 15 C0 10.05 0 5.1 0 0 Z " fill="#EFEFEF" transform="translate(345,270)"/>
<path d="M0 0 C4.95 0 9.9 0 15 0 C15 4.95 15 9.9 15 15 C10.05 15 5.1 15 0 15 C0 10.05 0 5.1 0 0 Z " fill="#EFEFEF" transform="translate(255,270)"/>
<path d="M0 0 C4.95 0 9.9 0 15 0 C15 4.95 15 9.9 15 15 C10.05 15 5.1 15 0 15 C0 10.05 0 5.1 0 0 Z " fill="#FFFFFF" transform="translate(240,270)"/>
<path d="M0 0 C4.95 0 9.9 0 15 0 C15 4.95 15 9.9 15 15 C10.05 15 5.1 15 0 15 C0 10.05 0 5.1 0 0 Z " fill="#FFFFFF" transform="translate(0,270)"/>
<path d="M0 0 C4.95 0 9.9 0 15 0 C15 4.95 15 9.9 15 15 C10.05 15 5.1 15 0 15 C0 10.05 0 5.1 0 0 Z " fill="#FFFFFF" transform="translate(15,255)"/>
<path d="M0 0 C4.95 0 9.9 0 15 0 C15 4.95 15 9.9 15 15 C10.05 15 5.1 15 0 15 C0 10.05 0 5.1 0 0 Z " fill="#EFEFEF" transform="translate(0,255)"/>
<path d="M0 0 C4.95 0 9.9 0 15 0 C15 4.95 15 9.9 15 15 C10.05 15 5.1 15 0 15 C0 10.05 0 5.1 0 0 Z " fill="#FFFFFF" transform="translate(240,240)"/>
<path d="M0 0 C4.95 0 9.9 0 15 0 C15 4.95 15 9.9 15 15 C10.05 15 5.1 15 0 15 C0 10.05 0 5.1 0 0 Z " fill="#FFFFFF" transform="translate(30,240)"/>
<path d="M0 0 C4.95 0 9.9 0 15 0 C15 4.95 15 9.9 15 15 C10.05 15 5.1 15 0 15 C0 10.05 0 5.1 0 0 Z " fill="#EFEFEF" transform="translate(15,240)"/>
<path d="M0 0 C4.95 0 9.9 0 15 0 C15 4.95 15 9.9 15 15 C10.05 15 5.1 15 0 15 C0 10.05 0 5.1 0 0 Z " fill="#FFFFFF" transform="translate(0,240)"/>
<path d="M0 0 C4.95 0 9.9 0 15 0 C15 4.95 15 9.9 15 15 C10.05 15 5.1 15 0 15 C0 10.05 0 5.1 0 0 Z " fill="#FFFFFF" transform="translate(255,225)"/>
<path d="M0 0 C4.95 0 9.9 0 15 0 C15 4.95 15 9.9 15 15 C10.05 15 5.1 15 0 15 C0 10.05 0 5.1 0 0 Z " fill="#FFFFFF" transform="translate(15,225)"/>
<path d="M0 0 C4.95 0 9.9 0 15 0 C15 4.95 15 9.9 15 15 C10.05 15 5.1 15 0 15 C0 10.05 0 5.1 0 0 Z " fill="#EFEFEF" transform="translate(0,225)"/>
<path d="M0 0 C4.95 0 9.9 0 15 0 C15 4.95 15 9.9 15 15 C10.05 15 5.1 15 0 15 C0 10.05 0 5.1 0 0 Z " fill="#EFEFEF" transform="translate(255,210)"/>
<path d="M0 0 C4.95 0 9.9 0 15 0 C15 4.95 15 9.9 15 15 C10.05 15 5.1 15 0 15 C0 10.05 0 5.1 0 0 Z " fill="#EFEFEF" transform="translate(15,210)"/>
<path d="M0 0 C4.95 0 9.9 0 15 0 C15 4.95 15 9.9 15 15 C10.05 15 5.1 15 0 15 C0 10.05 0 5.1 0 0 Z " fill="#FFFFFF" transform="translate(0,210)"/>
<path d="M0 0 C4.95 0 9.9 0 15 0 C15 4.95 15 9.9 15 15 C10.05 15 5.1 15 0 15 C0 10.05 0 5.1 0 0 Z " fill="#FFFFFF" transform="translate(0,180)"/>
<path d="M0 0 C4.95 0 9.9 0 15 0 C15 4.95 15 9.9 15 15 C10.05 15 5.1 15 0 15 C0 10.05 0 5.1 0 0 Z " fill="#EFEFEF" transform="translate(345,150)"/>
<path d="M0 0 C4.95 0 9.9 0 15 0 C15 4.95 15 9.9 15 15 C10.05 15 5.1 15 0 15 C0 10.05 0 5.1 0 0 Z " fill="#EFEFEF" transform="translate(255,150)"/>
<path d="M0 0 C4.95 0 9.9 0 15 0 C15 4.95 15 9.9 15 15 C10.05 15 5.1 15 0 15 C0 10.05 0 5.1 0 0 Z " fill="#FFFFFF" transform="translate(345,135)"/>
<path d="M0 0 C4.95 0 9.9 0 15 0 C15 4.95 15 9.9 15 15 C10.05 15 5.1 15 0 15 C0 10.05 0 5.1 0 0 Z " fill="#FFFFFF" transform="translate(255,135)"/>
<path d="M0 0 C4.95 0 9.9 0 15 0 C15 4.95 15 9.9 15 15 C10.05 15 5.1 15 0 15 C0 10.05 0 5.1 0 0 Z " fill="#EFEFEF" transform="translate(240,135)"/>
<path d="M0 0 C4.95 0 9.9 0 15 0 C15 4.95 15 9.9 15 15 C10.05 15 5.1 15 0 15 C0 10.05 0 5.1 0 0 Z " fill="#EFEFEF" transform="translate(345,120)"/>
<path d="M0 0 C4.95 0 9.9 0 15 0 C15 4.95 15 9.9 15 15 C10.05 15 5.1 15 0 15 C0 10.05 0 5.1 0 0 Z " fill="#FFFFFF" transform="translate(330,120)"/>
<path d="M0 0 C4.95 0 9.9 0 15 0 C15 4.95 15 9.9 15 15 C10.05 15 5.1 15 0 15 C0 10.05 0 5.1 0 0 Z " fill="#FFFFFF" transform="translate(270,120)"/>
<path d="M0 0 C4.95 0 9.9 0 15 0 C15 4.95 15 9.9 15 15 C10.05 15 5.1 15 0 15 C0 10.05 0 5.1 0 0 Z " fill="#EFEFEF" transform="translate(255,120)"/>
<path d="M0 0 C4.95 0 9.9 0 15 0 C15 4.95 15 9.9 15 15 C10.05 15 5.1 15 0 15 C0 10.05 0 5.1 0 0 Z " fill="#FFFFFF" transform="translate(240,120)"/>
<path d="M0 0 C4.95 0 9.9 0 15 0 C15 4.95 15 9.9 15 15 C10.05 15 5.1 15 0 15 C0 10.05 0 5.1 0 0 Z " fill="#FFFFFF" transform="translate(345,105)"/>
<path d="M0 0 C4.95 0 9.9 0 15 0 C15 4.95 15 9.9 15 15 C10.05 15 5.1 15 0 15 C0 10.05 0 5.1 0 0 Z " fill="#EFEFEF" transform="translate(330,105)"/>
<path d="M0 0 C4.95 0 9.9 0 15 0 C15 4.95 15 9.9 15 15 C10.05 15 5.1 15 0 15 C0 10.05 0 5.1 0 0 Z " fill="#FFFFFF" transform="translate(315,105)"/>
<path d="M0 0 C4.95 0 9.9 0 15 0 C15 4.95 15 9.9 15 15 C10.05 15 5.1 15 0 15 C0 10.05 0 5.1 0 0 Z " fill="#FFFFFF" transform="translate(285,105)"/>
<path d="M0 0 C4.95 0 9.9 0 15 0 C15 4.95 15 9.9 15 15 C10.05 15 5.1 15 0 15 C0 10.05 0 5.1 0 0 Z " fill="#EFEFEF" transform="translate(270,105)"/>
<path d="M0 0 C4.95 0 9.9 0 15 0 C15 4.95 15 9.9 15 15 C10.05 15 5.1 15 0 15 C0 10.05 0 5.1 0 0 Z " fill="#FFFFFF" transform="translate(255,105)"/>
<path d="M0 0 C4.95 0 9.9 0 15 0 C15 4.95 15 9.9 15 15 C10.05 15 5.1 15 0 15 C0 10.05 0 5.1 0 0 Z " fill="#EFEFEF" transform="translate(240,105)"/>
<path d="M0 0 C4.95 0 9.9 0 15 0 C15 4.95 15 9.9 15 15 C10.05 15 5.1 15 0 15 C0 10.05 0 5.1 0 0 Z " fill="#EFEFEF" transform="translate(345,90)"/>
<path d="M0 0 C4.95 0 9.9 0 15 0 C15 4.95 15 9.9 15 15 C10.05 15 5.1 15 0 15 C0 10.05 0 5.1 0 0 Z " fill="#FFFFFF" transform="translate(330,90)"/>
<path d="M0 0 C4.95 0 9.9 0 15 0 C15 4.95 15 9.9 15 15 C10.05 15 5.1 15 0 15 C0 10.05 0 5.1 0 0 Z " fill="#EFEFEF" transform="translate(315,90)"/>
<path d="M0 0 C4.95 0 9.9 0 15 0 C15 4.95 15 9.9 15 15 C10.05 15 5.1 15 0 15 C0 10.05 0 5.1 0 0 Z " fill="#FFFFFF" transform="translate(300,90)"/>
<path d="M0 0 C4.95 0 9.9 0 15 0 C15 4.95 15 9.9 15 15 C10.05 15 5.1 15 0 15 C0 10.05 0 5.1 0 0 Z " fill="#EFEFEF" transform="translate(285,90)"/>
<path d="M0 0 C4.95 0 9.9 0 15 0 C15 4.95 15 9.9 15 15 C10.05 15 5.1 15 0 15 C0 10.05 0 5.1 0 0 Z " fill="#FFFFFF" transform="translate(270,90)"/>
<path d="M0 0 C4.95 0 9.9 0 15 0 C15 4.95 15 9.9 15 15 C10.05 15 5.1 15 0 15 C0 10.05 0 5.1 0 0 Z " fill="#FFFFFF" transform="translate(240,90)"/>
<path d="M0 0 C4.95 0 9.9 0 15 0 C15 4.95 15 9.9 15 15 C10.05 15 5.1 15 0 15 C0 10.05 0 5.1 0 0 Z " fill="#FFFFFF" transform="translate(345,75)"/>
<path d="M0 0 C4.95 0 9.9 0 15 0 C15 4.95 15 9.9 15 15 C10.05 15 5.1 15 0 15 C0 10.05 0 5.1 0 0 Z " fill="#EFEFEF" transform="translate(330,75)"/>
<path d="M0 0 C4.95 0 9.9 0 15 0 C15 4.95 15 9.9 15 15 C10.05 15 5.1 15 0 15 C0 10.05 0 5.1 0 0 Z " fill="#FFFFFF" transform="translate(315,75)"/>
<path d="M0 0 C4.95 0 9.9 0 15 0 C15 4.95 15 9.9 15 15 C10.05 15 5.1 15 0 15 C0 10.05 0 5.1 0 0 Z " fill="#EFEFEF" transform="translate(300,75)"/>
<path d="M0 0 C4.95 0 9.9 0 15 0 C15 4.95 15 9.9 15 15 C10.05 15 5.1 15 0 15 C0 10.05 0 5.1 0 0 Z " fill="#FFFFFF" transform="translate(285,75)"/>
<path d="M0 0 C4.95 0 9.9 0 15 0 C15 4.95 15 9.9 15 15 C10.05 15 5.1 15 0 15 C0 10.05 0 5.1 0 0 Z " fill="#FFFFFF" transform="translate(255,75)"/>
<path d="M0 0 C4.95 0 9.9 0 15 0 C15 4.95 15 9.9 15 15 C10.05 15 5.1 15 0 15 C0 10.05 0 5.1 0 0 Z " fill="#FFFFFF" transform="translate(0,60)"/>
<path d="M0 0 C4.95 0 9.9 0 15 0 C15 4.95 15 9.9 15 15 C10.05 15 5.1 15 0 15 C0 10.05 0 5.1 0 0 Z " fill="#FFFFFF" transform="translate(15,45)"/>
<path d="M0 0 C4.95 0 9.9 0 15 0 C15 4.95 15 9.9 15 15 C10.05 15 5.1 15 0 15 C0 10.05 0 5.1 0 0 Z " fill="#EFEFEF" transform="translate(0,45)"/>
<path d="M0 0 C4.95 0 9.9 0 15 0 C15 4.95 15 9.9 15 15 C10.05 15 5.1 15 0 15 C0 10.05 0 5.1 0 0 Z " fill="#EFEFEF" transform="translate(315,30)"/>
<path d="M0 0 C4.95 0 9.9 0 15 0 C15 4.95 15 9.9 15 15 C10.05 15 5.1 15 0 15 C0 10.05 0 5.1 0 0 Z " fill="#FFFFFF" transform="translate(240,30)"/>
<path d="M0 0 C4.95 0 9.9 0 15 0 C15 4.95 15 9.9 15 15 C10.05 15 5.1 15 0 15 C0 10.05 0 5.1 0 0 Z " fill="#FFFFFF" transform="translate(30,30)"/>
<path d="M0 0 C4.95 0 9.9 0 15 0 C15 4.95 15 9.9 15 15 C10.05 15 5.1 15 0 15 C0 10.05 0 5.1 0 0 Z " fill="#EFEFEF" transform="translate(15,30)"/>
<path d="M0 0 C4.95 0 9.9 0 15 0 C15 4.95 15 9.9 15 15 C10.05 15 5.1 15 0 15 C0 10.05 0 5.1 0 0 Z " fill="#FFFFFF" transform="translate(0,30)"/>
<path d="M0 0 C4.95 0 9.9 0 15 0 C15 4.95 15 9.9 15 15 C10.05 15 5.1 15 0 15 C0 10.05 0 5.1 0 0 Z " fill="#FFFFFF" transform="translate(195,15)"/>
<path d="M0 0 C4.95 0 9.9 0 15 0 C15 4.95 15 9.9 15 15 C10.05 15 5.1 15 0 15 C0 10.05 0 5.1 0 0 Z " fill="#EFEFEF" transform="translate(180,15)"/>
<path d="M0 0 C4.95 0 9.9 0 15 0 C15 4.95 15 9.9 15 15 C10.05 15 5.1 15 0 15 C0 10.05 0 5.1 0 0 Z " fill="#FFFFFF" transform="translate(165,15)"/>
<path d="M0 0 C4.95 0 9.9 0 15 0 C15 4.95 15 9.9 15 15 C10.05 15 5.1 15 0 15 C0 10.05 0 5.1 0 0 Z " fill="#EFEFEF" transform="translate(60,15)"/>
<path d="M0 0 C4.95 0 9.9 0 15 0 C15 4.95 15 9.9 15 15 C10.05 15 5.1 15 0 15 C0 10.05 0 5.1 0 0 Z " fill="#FFFFFF" transform="translate(45,15)"/>
<path d="M0 0 C4.95 0 9.9 0 15 0 C15 4.95 15 9.9 15 15 C10.05 15 5.1 15 0 15 C0 10.05 0 5.1 0 0 Z " fill="#EFEFEF" transform="translate(30,15)"/>
<path d="M0 0 C4.95 0 9.9 0 15 0 C15 4.95 15 9.9 15 15 C10.05 15 5.1 15 0 15 C0 10.05 0 5.1 0 0 Z " fill="#FFFFFF" transform="translate(15,15)"/>
<path d="M0 0 C4.95 0 9.9 0 15 0 C15 4.95 15 9.9 15 15 C10.05 15 5.1 15 0 15 C0 10.05 0 5.1 0 0 Z " fill="#EFEFEF" transform="translate(0,15)"/>
<path d="M0 0 C4.95 0 9.9 0 15 0 C15 4.95 15 9.9 15 15 C10.05 15 5.1 15 0 15 C0 10.05 0 5.1 0 0 Z " fill="#FFFFFF" transform="translate(180,0)"/>
<path d="M0 0 C4.95 0 9.9 0 15 0 C15 4.95 15 9.9 15 15 C10.05 15 5.1 15 0 15 C0 10.05 0 5.1 0 0 Z " fill="#EFEFEF" transform="translate(165,0)"/>
<path d="M0 0 C4.95 0 9.9 0 15 0 C15 4.95 15 9.9 15 15 C10.05 15 5.1 15 0 15 C0 10.05 0 5.1 0 0 Z " fill="#FFFFFF" transform="translate(150,0)"/>
<path d="M0 0 C4.95 0 9.9 0 15 0 C15 4.95 15 9.9 15 15 C10.05 15 5.1 15 0 15 C0 10.05 0 5.1 0 0 Z " fill="#EFEFEF" transform="translate(135,0)"/>
<path d="M0 0 C4.95 0 9.9 0 15 0 C15 4.95 15 9.9 15 15 C10.05 15 5.1 15 0 15 C0 10.05 0 5.1 0 0 Z " fill="#FFFFFF" transform="translate(120,0)"/>
<path d="M0 0 C4.95 0 9.9 0 15 0 C15 4.95 15 9.9 15 15 C10.05 15 5.1 15 0 15 C0 10.05 0 5.1 0 0 Z " fill="#FFFFFF" transform="translate(90,0)"/>
<path d="M0 0 C4.95 0 9.9 0 15 0 C15 4.95 15 9.9 15 15 C10.05 15 5.1 15 0 15 C0 10.05 0 5.1 0 0 Z " fill="#EFEFEF" transform="translate(75,0)"/>
<path d="M0 0 C4.95 0 9.9 0 15 0 C15 4.95 15 9.9 15 15 C10.05 15 5.1 15 0 15 C0 10.05 0 5.1 0 0 Z " fill="#FFFFFF" transform="translate(60,0)"/>
<path d="M0 0 C4.95 0 9.9 0 15 0 C15 4.95 15 9.9 15 15 C10.05 15 5.1 15 0 15 C0 10.05 0 5.1 0 0 Z " fill="#EFEFEF" transform="translate(45,0)"/>
<path d="M0 0 C4.95 0 9.9 0 15 0 C15 4.95 15 9.9 15 15 C10.05 15 5.1 15 0 15 C0 10.05 0 5.1 0 0 Z " fill="#FFFFFF" transform="translate(30,0)"/>
<path d="M0 0 C4.95 0 9.9 0 15 0 C15 4.95 15 9.9 15 15 C10.05 15 5.1 15 0 15 C0 10.05 0 5.1 0 0 Z " fill="#FFFFFF" transform="translate(0,0)"/>
<path d="M0 0 C4.95 0 9.9 0 15 0 C15 4.95 15 9.9 15 15 C10.05 15 5.1 15 0 15 C0 10.05 0 5.1 0 0 Z " fill="#EEEEEE" transform="translate(270,135)"/>
<path d="M0 0 C-0.33 4.95 -0.66 9.9 -1 15 C-5.95 15 -10.9 15 -16 15 C-16 11.04 -16 7.08 -16 3 C-18.31 3 -20.62 3 -23 3 C-23 2.67 -23 2.34 -23 2 C-20.29215006 1.66227261 -17.58383004 1.32969313 -14.875 1 C-14.11445313 0.90460938 -13.35390625 0.80921875 -12.5703125 0.7109375 C-11.82265625 0.62070312 -11.075 0.53046875 -10.3046875 0.4375 C-9.62390137 0.35371094 -8.94311523 0.26992188 -8.24169922 0.18359375 C-5.50295433 -0.04070773 -2.74791462 0 0 0 Z " fill="#FDFDFD" transform="translate(211,285)"/>
<path d="M0 0 C9.9609375 -0.29296875 9.9609375 -0.29296875 13 0 C16.16420858 4.74631287 15.12112755 9.36756877 15 15 C10.05 15 5.1 15 0 15 C0 10.05 0 5.1 0 0 Z " fill="#EFEFEF" transform="translate(270,285)"/>
<path d="M0 0 C4.95 0 9.9 0 15 0 C15 4.95 15 9.9 15 15 C2.5756115 15.49205499 2.5756115 15.49205499 0.0625 13.34375 C-1.9237896 8.96222882 -0.6106041 4.66279492 0 0 Z " fill="#EEEEEE" transform="translate(330,135)"/>
<path d="M0 0 C0.33 0 0.66 0 1 0 C1 1.65 1 3.3 1 5 C5.29 5 9.58 5 14 5 C14 9.95 14 14.9 14 20 C9.05 20 4.1 20 -1 20 C-0.67 13.4 -0.34 6.8 0 0 Z " fill="#FDFDFD" transform="translate(166,310)"/>
<path d="M0 0 C4.62 0 9.24 0 14 0 C14 4.95 14 9.9 14 15 C9.71 15 5.42 15 1 15 C0.67 16.65 0.34 18.3 0 20 C-0.33 20 -0.66 20 -1 20 C-1.11381955 13.23405981 -0.88021369 6.71162938 0 0 Z " fill="#EAEAEA" transform="translate(166,300)"/>
<path d="M0 0 C0 4.95 0 9.9 0 15 C-4.95 15 -9.9 15 -15 15 C-15.47727273 4.97727273 -15.47727273 4.97727273 -13.6875 1.3125 C-9.21810408 -0.87022824 -4.92014844 -0.23429278 0 0 Z " fill="#FEFEFE" transform="translate(285,60)"/>
<path d="M0 0 C4.95 0 9.9 0 15 0 C14.93489583 3.05989583 14.86979167 6.11979167 14.8046875 9.1796875 C14.69939466 12.1371051 14.69939466 12.1371051 17 14 C15.10440036 14.16930395 13.20850769 14.33532864 11.3125 14.5 C9.72888672 14.63921875 9.72888672 14.63921875 8.11328125 14.78125 C5.41452498 14.97087403 2.70540989 15 0 15 C0 10.05 0 5.1 0 0 Z " fill="#EBEBEB" transform="translate(90,15)"/>
<path d="M0 0 C0 3.96 0 7.92 0 12 C-4.95 12 -9.9 12 -15 12 C-15 14.97 -15 17.94 -15 21 C-18 20 -18 20 -19.16796875 18.07421875 C-19.50441406 17.28660156 -19.84085938 16.49898437 -20.1875 15.6875 C-20.53167969 14.90761719 -20.87585938 14.12773437 -21.23046875 13.32421875 C-22 11 -22 11 -22 7 C-20.87980469 6.66226563 -19.75960937 6.32453125 -18.60546875 5.9765625 C-17.13273364 5.52629954 -15.66008169 5.07576447 -14.1875 4.625 C-13.08051758 4.29242188 -13.08051758 4.29242188 -11.95117188 3.953125 C-11.23896484 3.73398438 -10.52675781 3.51484375 -9.79296875 3.2890625 C-9.1383667 3.09006348 -8.48376465 2.89106445 -7.80932617 2.68603516 C-0.7252669 0 -0.7252669 0 0 0 Z " fill="#EEEEEE" transform="translate(255,198)"/>
<path d="M0 0 C2.3872196 2.97866168 4.07089415 5.97365821 5.69921875 9.421875 C6.18583984 10.44667969 6.67246094 11.47148437 7.17382812 12.52734375 C7.67333984 13.59082031 8.17285156 14.65429688 8.6875 15.75 C9.19861328 16.82894531 9.70972656 17.90789062 10.23632812 19.01953125 C11.49489953 21.67782224 12.74929268 24.33800229 14 27 C13.34 27.33 12.68 27.66 12 28 C12 27.34 12 26.68 12 26 C7.71 26 3.42 26 -1 26 C-1.02686682 22.04162186 -1.04677414 18.08342438 -1.0625 14.125 C-1.07087891 12.99707031 -1.07925781 11.86914062 -1.08789062 10.70703125 C-1.09111328 9.63066406 -1.09433594 8.55429688 -1.09765625 7.4453125 C-1.10289307 6.45031738 -1.10812988 5.45532227 -1.11352539 4.43017578 C-1 2 -1 2 0 0 Z " fill="#FBFBFB" transform="translate(31,199)"/>
<path d="M0 0 C0.66 0.33 1.32 0.66 2 1 C2 7.6 2 14.2 2 21 C1.34 21.33 0.68 21.66 0 22 C0 20.68 0 19.36 0 18 C-3.63 18 -7.26 18 -11 18 C-11 13.05 -11 8.1 -11 3 C-7.37 3 -3.74 3 0 3 C0 2.01 0 1.02 0 0 Z " fill="#F9F9F9" transform="translate(311,207)"/>
<path d="M0 0 C4.95 0 9.9 0 15 0 C15 4.62 15 9.24 15 14 C9.51322045 14.08441199 4.40719589 13.92037377 -1 13 C-0.67 8.71 -0.34 4.42 0 0 Z " fill="#FEFEFE" transform="translate(135,15)"/>
<path d="M0 0 C2.52775351 3.79163027 2.22443035 6.80874031 2.125 11.1875 C2.11597656 11.93708984 2.10695313 12.68667969 2.09765625 13.45898438 C2.07412578 15.30612654 2.03825561 17.15310412 2 19 C-0.72842061 20.36421031 -2.60953318 19.87807211 -5.625 19.5625 C-7.39875 19.376875 -9.1725 19.19125 -11 19 C-11 14.05 -11 9.1 -11 4 C-7.37 4 -3.74 4 0 4 C0 2.68 0 1.36 0 0 Z " fill="#FEFEFE" transform="translate(281,206)"/>
<path d="M0 0 C4.95 0 9.9 0 15 0 C15 4.95 15 9.9 15 15 C7.24505929 15.82249371 7.24505929 15.82249371 4.06640625 13.72265625 C1.03159752 10.51318227 -0.35114615 8.02316984 -0.375 3.5625 C-0.25125 2.386875 -0.1275 1.21125 0 0 Z " fill="#FDFDFD" transform="translate(270,0)"/>
<path d="M0 0 C9.9 0 19.8 0 30 0 C30 0.33 30 0.66 30 1 C25.05 1 20.1 1 15 1 C15 4.63 15 8.26 15 12 C10.05 12 5.1 12 0 12 C0 8.04 0 4.08 0 0 Z " fill="#FFFFFF" transform="translate(120,333)"/>
<path d="M0 0 C1.35843713 3.69216246 0.62041477 5.88528278 -0.75 9.5 C-1.09546875 10.4384375 -1.4409375 11.376875 -1.796875 12.34375 C-2.94798722 14.88516659 -4.2361078 16.85088996 -6 19 C-6 18.34 -6 17.68 -6 17 C-8.64 17 -11.28 17 -14 17 C-14 12.05 -14 7.1 -14 2 C-9.38 2 -4.76 2 0 2 C0 1.34 0 0.68 0 0 Z " fill="#FDFDFD" transform="translate(44,268)"/>
<path d="M0 0 C0.33 0 0.66 0 1 0 C1 2.64 1 5.28 1 8 C4.3 8 7.6 8 11 8 C11 12.95 11 17.9 11 23 C6.71 23 2.42 23 -2 23 C-2.33 23.99 -2.66 24.98 -3 26 C-2.125 18.375 -2.125 18.375 -1 15 C-0.77281504 12.43365139 -0.58391816 9.88321893 -0.4375 7.3125 C-0.39431641 6.61060547 -0.35113281 5.90871094 -0.30664062 5.18554688 C-0.2008264 3.45724794 -0.09993419 1.7286489 0 0 Z " fill="#FDFDFD" transform="translate(229,247)"/>
<path d="M0 0 C4.95 0 9.9 0 15 0 C15.09765625 9.27734375 15.09765625 9.27734375 15 12 C14 13 14 13 11.95874023 13.11352539 C11.08419189 13.10828857 10.20964355 13.10305176 9.30859375 13.09765625 C8.36435547 13.09443359 7.42011719 13.09121094 6.44726562 13.08789062 C5.45404297 13.07951172 4.46082031 13.07113281 3.4375 13.0625 C2.44041016 13.05798828 1.44332031 13.05347656 0.41601562 13.04882812 C-2.05604849 13.03700007 -4.52799518 13.02051849 -7 13 C-7 12.67 -7 12.34 -7 12 C-3.535 11.505 -3.535 11.505 0 11 C0 7.37 0 3.74 0 0 Z " fill="#E8E8E8" transform="translate(120,15)"/>
<path d="M0 0 C4.29 0.33 8.58 0.66 13 1 C13 5.95 13 10.9 13 16 C10.03 16 7.06 16 4 16 C3.67 16.66 3.34 17.32 3 18 C2.49309416 15.93918639 1.99475381 13.87626474 1.5 11.8125 C1.2215625 10.66394531 0.943125 9.51539062 0.65625 8.33203125 C0 5 0 5 0 0 Z " fill="#FEFEFE" transform="translate(227,104)"/>
<path d="M0 0 C0.90492188 0.02320313 1.80984375 0.04640625 2.7421875 0.0703125 C5.1553125 0.1321875 5.1553125 0.1321875 7.6171875 0.1953125 C7.6171875 5.1453125 7.6171875 10.0953125 7.6171875 15.1953125 C4.3171875 15.1953125 1.0171875 15.1953125 -2.3828125 15.1953125 C-2.7128125 17.5053125 -3.0428125 19.8153125 -3.3828125 22.1953125 C-3.7128125 22.1953125 -4.0428125 22.1953125 -4.3828125 22.1953125 C-4.44071603 18.90371934 -4.47637511 15.61225647 -4.5078125 12.3203125 C-4.52457031 11.38316406 -4.54132813 10.44601563 -4.55859375 9.48046875 C-4.56826172 8.13662109 -4.56826172 8.13662109 -4.578125 6.765625 C-4.58859863 5.93820801 -4.59907227 5.11079102 -4.60986328 4.25830078 C-4.25925266 1.07264518 -3.12889326 0.25646666 0 0 Z " fill="#E9E9E9" transform="translate(232.3828125,239.8046875)"/>
<path d="M0 0 C3.3 0.33 6.6 0.66 10 1 C10 5.95 10 10.9 10 16 C5.71 16 1.42 16 -3 16 C-2.48263876 10.39525319 -1.71036463 5.3591425 0 0 Z " fill="#EDEDED" transform="translate(320,239)"/>
<path d="M0 0 C8.75 -0.125 8.75 -0.125 11 1 C11.44921875 2.890625 11.44921875 2.890625 11.6875 5.25 C11.77386719 6.01828125 11.86023438 6.7865625 11.94921875 7.578125 C12 10 12 10 11 15 C7.37 15 3.74 15 0 15 C0 10.05 0 5.1 0 0 Z " fill="#EDEDED" transform="translate(330,195)"/>
<path d="M0 0 C3.96 0 7.92 0 12 0 C11.67 0.99 11.34 1.98 11 3 C10.34 3 9.68 3 9 3 C8.83318891 5.91652174 8.83318891 5.91652174 9 9 C10.81685373 11.26349674 10.81685373 11.26349674 13.4375 11.125 C14.7059375 11.063125 14.7059375 11.063125 16 11 C16.99 11 17.98 11 19 11 C17.02 11.99 17.02 11.99 15 13 C15 13.66 15 14.32 15 15 C10.05 15 5.1 15 0 15 C0 10.05 0 5.1 0 0 Z " fill="#FDFDFD" transform="translate(255,255)"/>
<path d="M0 0 C4.95 0 9.9 0 15 0 C15 3.63 15 7.26 15 11 C10.05 11 5.1 11 0 11 C0 7.37 0 3.74 0 0 Z " fill="#EFEFEF" transform="translate(135,334)"/>
<path d="M0 0 C4.95 0 9.9 0 15 0 C15 3.63 15 7.26 15 11 C10.05 11 5.1 11 0 11 C0 7.37 0 3.74 0 0 Z " fill="#EFEFEF" transform="translate(105,334)"/>
<path d="M0 0 C4.95 0 9.9 0 15 0 C15 3.63 15 7.26 15 11 C10.05 11 5.1 11 0 11 C0 7.37 0 3.74 0 0 Z " fill="#EFEFEF" transform="translate(75,334)"/>
<path d="M0 0 C4.95 0 9.9 0 15 0 C15 3.63 15 7.26 15 11 C10.05 11 5.1 11 0 11 C0 7.37 0 3.74 0 0 Z " fill="#EFEFEF" transform="translate(45,334)"/>
<path d="M0 0 C2.05078125 0.03255208 4.1015625 0.06510417 6.15234375 0.09765625 C6.15234375 5.04765625 6.15234375 9.99765625 6.15234375 15.09765625 C-0.28265625 15.59265625 -0.28265625 15.59265625 -6.84765625 16.09765625 C-4.20172664 0.22207857 -4.20172664 0.22207857 0 0 Z " fill="#ECECEC" transform="translate(353.84765625,239.90234375)"/>
<path d="M0 0 C4.95 0 9.9 0 15 0 C15.33 2.31 15.66 4.62 16 7 C17.41591827 8.92283085 17.41591827 8.92283085 19 10 C18.67 10.66 18.34 11.32 18 12 C17.113125 11.154375 16.22625 10.30875 15.3125 9.4375 C12.66280831 7.16914939 12.66280831 7.16914939 9.125 7.1875 C8.42375 7.455625 7.7225 7.72375 7 8 C6.12245809 10.20438833 6.12245809 10.20438833 6 13 C7.83317376 16.29248108 7.83317376 16.29248108 10 19 C9.46375 18.71125 8.9275 18.4225 8.375 18.125 C5.68215357 16.84944117 2.82676936 15.94225645 0 15 C0 10.05 0 5.1 0 0 Z " fill="#FDFDFD" transform="translate(300,120)"/>
<path d="M0 0 C0.90105469 0.00902344 1.80210937 0.01804687 2.73046875 0.02734375 C3.41753906 0.03894531 4.10460937 0.05054688 4.8125 0.0625 C3.4925 0.3925 2.1725 0.7225 0.8125 1.0625 C0.8125 4.6925 0.8125 8.3225 0.8125 12.0625 C-3.8075 12.0625 -8.4275 12.0625 -13.1875 12.0625 C-13.1875 15.0325 -13.1875 18.0025 -13.1875 21.0625 C-13.5175 21.0625 -13.8475 21.0625 -14.1875 21.0625 C-15.2204742 8.34161405 -15.2204742 8.34161405 -11.375 3.8125 C-7.89643681 0.34252586 -4.79414214 -0.06226159 0 0 Z " fill="#FCFCFC" transform="translate(179.1875,287.9375)"/>
<path d="M0 0 C4.29161047 -0.05783842 8.58312145 -0.0935412 12.875 -0.125 C14.09832031 -0.14175781 15.32164063 -0.15851562 16.58203125 -0.17578125 C17.74863281 -0.18222656 18.91523437 -0.18867188 20.1171875 -0.1953125 C21.19597168 -0.20578613 22.27475586 -0.21625977 23.38623047 -0.22705078 C26 0 26 0 28 2 C27.12859375 2.23074219 26.2571875 2.46148437 25.359375 2.69921875 C18.06040564 4.69774608 11.3087207 6.96850642 4.42578125 10.14453125 C2 11 2 11 -1 10 C-0.67 6.7 -0.34 3.4 0 0 Z " fill="#FCFCFC" transform="translate(60,30)"/>
<path d="M0 0 C3.63 0 7.26 0 11 0 C11 4.62 11 9.24 11 14 C7.57067929 15.71466036 3.78283935 15.05404056 0 15 C0 10.05 0 5.1 0 0 Z " fill="#EEEEEE" transform="translate(330,225)"/>
<path d="M0 0 C2.64 0 5.28 0 8 0 C8.99 1.98 9.98 3.96 11 6 C11.33 6 11.66 6 12 6 C11.67 8.97 11.34 11.94 11 15 C7.37 15 3.74 15 0 15 C0 10.05 0 5.1 0 0 Z " fill="#EDEDED" transform="translate(300,195)"/>
<path d="M0 0 C2.97 0 5.94 0 9 0 C9.53293835 1.74635165 10.05090663 3.49727652 10.5625 5.25 C10.85253906 6.22453125 11.14257812 7.1990625 11.44140625 8.203125 C12 11 12 11 11 15 C7.37 15 3.74 15 0 15 C0 10.05 0 5.1 0 0 Z " fill="#EEEEEE" transform="translate(270,195)"/>
<path d="M0 0 C3.63 0 7.26 0 11 0 C11 4.95 11 9.9 11 15 C3.25 15.125 3.25 15.125 1 14 C0.5859375 11.6015625 0.5859375 11.6015625 0.375 8.625 C0.30023438 7.64789063 0.22546875 6.67078125 0.1484375 5.6640625 C0.04336671 3.77831835 0 1.88866907 0 0 Z " fill="#EEEEEE" transform="translate(349,180)"/>
<path d="M0 0 C-0.20625 1.11375 -0.4125 2.2275 -0.625 3.375 C-0.74875 4.57125 -0.8725 5.7675 -1 7 C-0.34 7.66 0.32 8.32 1 9 C2.9931567 9.02375926 2.9931567 9.02375926 5.125 8.625 C6.40375 8.41875 7.6825 8.2125 9 8 C8.67 10.64 8.34 13.28 8 16 C3.05 16 -1.9 16 -7 16 C-7 11.05 -7 6.1 -7 1 C-2 0 -2 0 0 0 Z " fill="#FDFDFD" transform="translate(307,299)"/>
<path d="M0 0 C3.3 0 6.6 0 10 0 C10 4.95 10 9.9 10 15 C6.7 15 3.4 15 0 15 C0 10.05 0 5.1 0 0 Z " fill="#FFFFFF" transform="translate(285,45)"/>
<path d="M0 0 C3.3 0 6.6 0 10 0 C10 4.95 10 9.9 10 15 C6.7 15 3.4 15 0 15 C0 10.05 0 5.1 0 0 Z " fill="#FFFFFF" transform="translate(285,15)"/>
<path d="M0 0 C3.3 0.33 6.6 0.66 10 1 C10 5.95 10 10.9 10 16 C8.35 16 6.7 16 5 16 C5 20.62 5 25.24 5 30 C4.67 30 4.34 30 4 30 C3.87882812 28.7934375 3.75765625 27.586875 3.6328125 26.34375 C3.46384119 24.72913529 3.29455344 23.11455368 3.125 21.5 C3.04636719 20.70851562 2.96773438 19.91703125 2.88671875 19.1015625 C2.47065308 15.19694623 1.92932935 11.45735728 0.9296875 7.65625 C0 4 0 4 0 0 Z " fill="#FCFCFC" transform="translate(290,194)"/>
<path d="M0 0 C0.33 0.99 0.66 1.98 1 3 C3.64 3 6.28 3 9 3 C9 7.95 9 12.9 9 18 C7.02 18 5.04 18 3 18 C3 22.95 3 27.9 3 33 C2.67 33 2.34 33 2 33 C1.66218885 28.81284871 1.3305515 24.62523015 1 20.4375 C0.90460938 19.25607422 0.80921875 18.07464844 0.7109375 16.85742188 C0.26898095 11.22247585 -0.1328126 5.65283608 0 0 Z " fill="#FCFCFC" transform="translate(351,192)"/>
<path d="M0 0 C2.97 0 5.94 0 9 0 C9 4.95 9 9.9 9 15 C1.25 15.125 1.25 15.125 -1 14 C-1.02694851 12.04174127 -1.04637218 10.08337774 -1.0625 8.125 C-1.07410156 7.03445312 -1.08570313 5.94390625 -1.09765625 4.8203125 C-1 2 -1 2 0 0 Z " fill="#E9E9E9" transform="translate(231,120)"/>
<path d="M0 0 C1.22815402 3.68446207 0.26460567 4.77886826 -1.28515625 8.1640625 C-2.35568682 10.91351261 -2.38732006 13.09509952 -2 16 C-0.62073227 18.34261608 -0.62073227 18.34261608 1 20 C0.484375 19.690625 -0.03125 19.38125 -0.5625 19.0625 C-3.64162296 17.59175744 -3.64162296 17.59175744 -10 17 C-10 12.05 -10 7.1 -10 2 C-6.7 2 -3.4 2 0 2 C0 1.34 0 0.68 0 0 Z " fill="#FDFDFD" transform="translate(25,313)"/>
<path d="M0 0 C0.02701408 2.10409639 0.04640223 4.20829178 0.0625 6.3125 C0.07410156 7.48425781 0.08570313 8.65601563 0.09765625 9.86328125 C0 13 0 13 -1 16 C-3.64 16 -6.28 16 -9 16 C-9 11.05 -9 6.1 -9 1 C-1.125 0 -1.125 0 0 0 Z " fill="#E3E3E3" transform="translate(264,29)"/>
<path d="M0 0 C0.99 0 1.98 0 3 0 C3 4.95 3 9.9 3 15 C1.06125 14.95875 -0.8775 14.9175 -2.875 14.875 C-6.10116917 14.75660449 -6.10116917 14.75660449 -9 15 C-9.66 15.66 -10.32 16.32 -11 17 C-11.66 13.7 -12.32 10.4 -13 7 C-12.01 7.495 -12.01 7.495 -11 8 C-9.62657169 8.0689472 -8.24997898 8.08467708 -6.875 8.0625 C-5.59625 8.041875 -4.3175 8.02125 -3 8 C-2.01 5.36 -1.02 2.72 0 0 Z " fill="#EFEFEF" transform="translate(237,90)"/>
<path d="M0 0 C0.33 0.66 0.66 1.32 1 2 C3.64 2 6.28 2 9 2 C9 6.95 9 11.9 9 17 C6.69 17 4.38 17 2 17 C-0.29612756 5.47835991 -0.29612756 5.47835991 0 0 Z " fill="#FDFDFD" transform="translate(321,193)"/>
<path d="M0 0 C1.98 0 3.96 0 6 0 C8.5610544 2.5610544 8.40191222 3.94185713 8.6875 7.5 C8.77386719 8.4796875 8.86023437 9.459375 8.94921875 10.46875 C9 13 9 13 8 15 C5.36 15 2.72 15 0 15 C0 10.05 0 5.1 0 0 Z " fill="#EBEBEB" transform="translate(0,135)"/>
<path d="M0 0 C0 3.3 0 6.6 0 10 C-4.95 10 -9.9 10 -15 10 C-15 8.02 -15 6.04 -15 4 C-12.87607494 3.3299166 -10.75082476 2.66403203 -8.625 2 C-7.44164062 1.62875 -6.25828125 1.2575 -5.0390625 0.875 C-2 0 -2 0 0 0 Z " fill="#FBFBFB" transform="translate(345,65)"/>
<path d="M0 0 C0.33 0 0.66 0 1 0 C1 7.59 1 15.18 1 23 C0.67 23 0.34 23 0 23 C0 21.35 0 19.7 0 18 C-1.98 18 -3.96 18 -6 18 C-6 13.05 -6 8.1 -6 3 C-4.02 3 -2.04 3 0 3 C0 2.01 0 1.02 0 0 Z " fill="#FFFFFF" transform="translate(6,117)"/>
<path d="M0 0 C3.3 0.33 6.6 0.66 10 1 C10 5.95 10 10.9 10 16 C8.68 16.33 7.36 16.66 6 17 C5.18167278 15.10667466 4.37057732 13.21022267 3.5625 11.3125 C3.11003906 10.25675781 2.65757812 9.20101562 2.19140625 8.11328125 C1.14552545 5.38027471 0.46479252 2.87957663 0 0 Z " fill="#FCFCFC" transform="translate(230,74)"/>
<path d="M0 0 C14.85 0 29.7 0 45 0 C45 2.31 45 4.62 45 7 C44.31679688 6.6390625 43.63359375 6.278125 42.9296875 5.90625 C35.43658418 2.45673952 29.00499763 1.4817464 20.8125 1.4375 C19.44230713 1.41623047 19.44230713 1.41623047 18.04443359 1.39453125 C11.33345792 1.49117896 6.04651347 3.13887118 0 6 C0 4.02 0 2.04 0 0 Z " fill="#CDCDCD" transform="translate(225,0)"/>
<path d="M0 0 C2.64 0 5.28 0 8 0 C8 3.96 8 7.92 8 12 C7.34 12 6.68 12 6 12 C6 12.99 6 13.98 6 15 C4.02 15 2.04 15 0 15 C0 10.05 0 5.1 0 0 Z " fill="#EEEEEE" transform="translate(0,105)"/>
<path d="M0 0 C0 4.95 0 9.9 0 15 C-2.97 15 -5.94 15 -9 15 C-9.6592672 9.7258624 -8.06928516 6.90460441 -5.2890625 2.63671875 C-3.63896672 0.54159713 -2.67399322 0 0 0 Z " fill="#FAFAFA" transform="translate(240,15)"/>
<path d="M0 0 C2.31 0 4.62 0 7 0 C7 4.95 7 9.9 7 15 C4.69 15 2.38 15 0 15 C0 10.05 0 5.1 0 0 Z " fill="#EEEEEE" transform="translate(323,210)"/>
<path d="M0 0 C5.66718995 2.26687598 5.66718995 2.26687598 8.3125 5.9375 C8.82425781 6.62714844 9.33601563 7.31679688 9.86328125 8.02734375 C11 10 11 10 11 13 C7.37 13 3.74 13 0 13 C0 8.71 0 4.42 0 0 Z " fill="#E8E8E8" transform="translate(330,17)"/>
<path d="M0 0 C1.98 0 3.96 0 6 0 C6 4.95 6 9.9 6 15 C4.02 15 2.04 15 0 15 C0 10.05 0 5.1 0 0 Z " fill="#EFEFEF" transform="translate(354,210)"/>
<path d="M0 0 C4.65763864 2.32881932 6.0677226 4.31020173 8 9 C8.25 11.9375 8.25 11.9375 8 14 C5.36 14 2.72 14 0 14 C0 9.38 0 4.76 0 0 Z " fill="#F6F6F6" transform="translate(255,16)"/>
<path d="M0 0 C0.33 0 0.66 0 1 0 C1 9.9 1 19.8 1 30 C-1.64 30 -4.28 30 -7 30 C-6.0528759 27.57909983 -5.09354872 25.19415773 -3.96484375 22.8515625 C-0.48736034 15.31481138 -0.21854976 8.195616 0 0 Z " fill="#E0E0E0" transform="translate(359,30)"/>
<path d="M0 0 C0.61746094 0.39832031 1.23492187 0.79664063 1.87109375 1.20703125 C7.42534222 4.68160678 12.67992966 7.25969078 19 9 C19 10.32 19 11.64 19 13 C15.19969805 13.54773035 11.77804903 13.77431816 8 13 C5.20089938 10.38714091 3.63165432 7.43386485 2 4 C1.61972656 3.24203125 1.23945313 2.4840625 0.84765625 1.703125 C0.56792969 1.14109375 0.28820312 0.5790625 0 0 Z " fill="#E2E2E2" transform="translate(221,62)"/>
<path d="M0 0 C2.64 0 5.28 0 8 0 C8 4.95 8 9.9 8 15 C7.01 15 6.02 15 5 15 C4.16260219 12.8765984 3.33019717 10.7512272 2.5 8.625 C1.80390625 6.84996094 1.80390625 6.84996094 1.09375 5.0390625 C0 2 0 2 0 0 Z " fill="#EAEAEA" transform="translate(277,15)"/>
<path d="M0 0 C4.95 0 9.9 0 15 0 C15 1.65 15 3.3 15 5 C10.05 5 5.1 5 0 5 C0 3.35 0 1.7 0 0 Z " fill="#FFFFFF" transform="translate(300,70)"/>
<path d="M0 0 C2.97 0 5.94 0 9 0 C9 3.63 9 7.26 9 11 C4.35451699 9.83862925 3.5666542 8.89423395 1 5 C0.25 2.1875 0.25 2.1875 0 0 Z " fill="#F9F9F9" transform="translate(231,45)"/>
<path d="M0 0 C0.33 0 0.66 0 1 0 C1 3.63 1 7.26 1 11 C-2.96 11 -6.92 11 -11 11 C-9.65515549 6.96546646 -7.51870529 6.27680931 -4 4 C-2.64852862 2.68505488 -1.30887458 1.35735142 0 0 Z " fill="#F9F9F9" transform="translate(224,274)"/>
<path d="M0 0 C1.15904779 2.83625813 1.02282362 3.93684892 -0.0390625 6.875 C-0.56242187 7.90625 -1.08578125 8.9375 -1.625 10 C-2.13289063 11.03125 -2.64078125 12.0625 -3.1640625 13.125 C-5 16 -5 16 -10 20 C-9.67 15.71 -9.34 11.42 -9 7 C-6.69 7 -4.38 7 -2 7 C-1.34 4.69 -0.68 2.38 0 0 Z " fill="#F9F9F9" transform="translate(279,233)"/>
<path d="M0 0 C2.64 0 5.28 0 8 0 C8 3.96 8 7.92 8 12 C3 9 3 9 1 6 C0.60986284 4.0103005 0.26797351 2.00980131 0 0 Z " fill="#EEEEEE" transform="translate(232,150)"/>
<path d="M0 0 C1.98 0 3.96 0 6 0 C5.69255859 1.09054688 5.69255859 1.09054688 5.37890625 2.203125 C3.42795109 9.48420168 2.38686613 16.47612071 2 24 C1.67 24 1.34 24 1 24 C-0.12513633 15.98340366 -0.09579384 8.07861415 0 0 Z " fill="#DCDCDC" transform="translate(210,15)"/>
<path d="M0 0 C1.09054688 0.02320313 2.18109375 0.04640625 3.3046875 0.0703125 C4.40039062 0.08835938 5.49609375 0.10640625 6.625 0.125 C7.46804687 0.14820313 8.31109375 0.17140625 9.1796875 0.1953125 C9.5096875 2.8353125 9.8396875 5.4753125 10.1796875 8.1953125 C4.98324671 6.59640764 0.11356608 4.45393247 -4.8203125 2.1953125 C-2.8203125 0.1953125 -2.8203125 0.1953125 0 0 Z " fill="#F4F4F4" transform="translate(200.8203125,44.8046875)"/>
<path d="M0 0 C3.3 0 6.6 0 10 0 C7.67991637 4.51127372 4.97499121 6.97555016 1 10 C0.67 10 0.34 10 0 10 C0 6.7 0 3.4 0 0 Z " fill="#EAEAEA" transform="translate(330,45)"/>
<path d="M0 0 C4.95 0 9.9 0 15 0 C15 1.32 15 2.64 15 4 C10.05 4 5.1 4 0 4 C0 2.68 0 1.36 0 0 Z " fill="#FAFAFA" transform="translate(240,71)"/>
<path d="M0 0 C4.95 0 9.9 0 15 0 C15 1.98 15 3.96 15 6 C9.7415998 5.32584613 4.97361654 3.75734451 0 2 C0 1.34 0 0.68 0 0 Z " fill="#FAFAFA" transform="translate(330,0)"/>
<path d="M0 0 C2.31 0 4.62 0 7 0 C6.49890042 4.38462134 5.01704885 6.8000997 2 10 C1.34 10 0.68 10 0 10 C0 6.7 0 3.4 0 0 Z " fill="#FDFDFD" transform="translate(255,45)"/>
<path d="M0 0 C2.31 0 4.62 0 7 0 C7.33 0.99 7.66 1.98 8 3 C5.69 4.98 3.38 6.96 1 9 C0 8 0 8 -0.09765625 6.15234375 C-0.06510417 4.1015625 -0.03255208 2.05078125 0 0 Z " fill="#E8E8E8" transform="translate(285,270)"/>
<path d="M0 0 C0.66 0 1.32 0 2 0 C2 3.3 2 6.6 2 10 C0.02 10 -1.96 10 -4 10 C-4.33 9.34 -4.66 8.68 -5 8 C-4.07421875 6.0546875 -4.07421875 6.0546875 -2.6875 3.875 C-2.23761719 3.15054687 -1.78773438 2.42609375 -1.32421875 1.6796875 C-0.88722656 1.12539063 -0.45023437 0.57109375 0 0 Z " fill="#EBEBEB" transform="translate(313,260)"/>
<path d="M0 0 C2.64 0 5.28 0 8 0 C8 2.97 8 5.94 8 9 C3.97777612 6.98888806 2.51685747 5.59551067 0 2 C0 1.34 0 0.68 0 0 Z " fill="#F7F7F7" transform="translate(322,135)"/>
<path d="M0 0 C0 2.64 0 5.28 0 8 C-1.0725 8.12375 -2.145 8.2475 -3.25 8.375 C-6.44666333 8.90777722 -8.24091652 9.49837492 -11 11 C-10.09066991 9.72390677 -9.17217147 8.45434447 -8.25 7.1875 C-7.73953125 6.47980469 -7.2290625 5.77210938 -6.703125 5.04296875 C-2.49904398 0 -2.49904398 0 0 0 Z " fill="#F8F8F8" transform="translate(330,292)"/>
<path d="M0 0 C0.99 0 1.98 0 3 0 C3 4.95 3 9.9 3 15 C2.01 15 1.02 15 0 15 C0 10.05 0 5.1 0 0 Z " fill="#FFFFFF" transform="translate(282,30)"/>
<path d="M0 0 C3.40320742 1.01176437 4.75725331 1.64843582 6.8125 4.625 C7.204375 5.40875 7.59625 6.1925 8 7 C7 8 7 8 3.4375 8.0625 C2.303125 8.041875 1.16875 8.02125 0 8 C0 5.36 0 2.72 0 0 Z " fill="#ECECEC" transform="translate(285,157)"/>
<path d="M0 0 C0.33 0 0.66 0 1 0 C1.20483028 7.99976044 1.13480153 15.26134446 -1 23 C-1.66 23 -2.32 23 -3 23 C-3 19.7 -3 16.4 -3 13 C-2.34 13 -1.68 13 -1 13 C-0.67 8.71 -0.34 4.42 0 0 Z " fill="#F9F9F9" transform="translate(48,242)"/>
<path d="M0 0 C1.98 0 3.96 0 6 0 C6 3.3 6 6.6 6 10 C3 9 3 9 1.3125 6.6875 C0 4 0 4 0 0 Z " fill="#EEEEEE" transform="translate(309,165)"/>
<path d="M0 0 C5.61 0 11.22 0 17 0 C17 0.33 17 0.66 17 1 C16.35933594 1.10957031 15.71867188 1.21914063 15.05859375 1.33203125 C9.6438309 2.32460328 4.96677361 3.62458653 0 6 C0 4.02 0 2.04 0 0 Z " fill="#E3E3E3" transform="translate(225,0)"/>
<path d="M0 0 C2.31777287 2.84453943 3.89118681 5.48875822 5 9 C4.67 9.66 4.34 10.32 4 11 C2.35 11 0.7 11 -1 11 C-1.0270043 9.54176788 -1.04639787 8.08339325 -1.0625 6.625 C-1.07410156 5.81289062 -1.08570312 5.00078125 -1.09765625 4.1640625 C-1 2 -1 2 0 0 Z " fill="#E8E8E8" transform="translate(31,199)"/>
<path d="M0 0 C0.99 0 1.98 0 3 0 C3.99 3.3 4.98 6.6 6 10 C4.02 10 2.04 10 0 10 C0 6.7 0 3.4 0 0 Z " fill="#E9E9E9" transform="translate(330,170)"/>
<path d="M0 0 C0.99 0 1.98 0 3 0 C3.69670416 1.78810766 4.38211189 3.58062052 5.0625 5.375 C5.63677734 6.87160156 5.63677734 6.87160156 6.22265625 8.3984375 C7 11 7 11 6 13 C1.125 9.25 1.125 9.25 0 7 C-0.04022391 4.6670134 -0.04320247 2.33293334 0 0 Z " fill="#DFDFDF" transform="translate(210,45)"/>
<path d="M0 0 C1.65 0 3.3 0 5 0 C5 4.95 5 9.9 5 15 C4.67 15 4.34 15 4 15 C3.51787786 13.43840941 3.03944127 11.87568072 2.5625 10.3125 C2.29566406 9.44238281 2.02882813 8.57226562 1.75390625 7.67578125 C1.03655471 5.12974079 0.482459 2.5996577 0 0 Z " fill="#F9F9F9" transform="translate(355,15)"/>
<path d="M0 0 C2.97 0.495 2.97 0.495 6 1 C4.1011236 7.57303371 4.1011236 7.57303371 1 10 C0.67 10 0.34 10 0 10 C0 6.7 0 3.4 0 0 Z " fill="#EBEBEB" transform="translate(330,255)"/>
<path d="M0 0 C1.79133978 -0.05391993 3.58313899 -0.09275571 5.375 -0.125 C6.37273437 -0.14820312 7.37046875 -0.17140625 8.3984375 -0.1953125 C11 0 11 0 13 2 C8.71 2.99 4.42 3.98 0 5 C0 3.35 0 1.7 0 0 Z " fill="#EDEDED" transform="translate(75,30)"/>
<path d="M0 0 C3 1 3 1 4.6875 4.375 C6 8 6 8 6 11 C4.35 11 2.7 11 1 11 C0.67 7.37 0.34 3.74 0 0 Z " fill="#F5F5F5" transform="translate(14,169)"/>
<path d="M0 0 C1 3 1 3 0.00390625 5.48046875 C-0.47175781 6.37378906 -0.94742187 7.26710938 -1.4375 8.1875 C-1.91058594 9.08855469 -2.38367188 9.98960938 -2.87109375 10.91796875 C-3.24363281 11.60503906 -3.61617187 12.29210937 -4 13 C-5.03159626 9.90521121 -4.97482862 8.47368607 -4.5625 5.3125 C-4.46066406 4.50425781 -4.35882813 3.69601563 -4.25390625 2.86328125 C-4.17011719 2.24839844 -4.08632812 1.63351563 -4 1 C-2.68 0.67 -1.36 0.34 0 0 Z " fill="#F8F8F8" transform="translate(19,74)"/>
<path d="M0 0 C2.125 0.375 2.125 0.375 4 1 C3.360625 1.226875 2.72125 1.45375 2.0625 1.6875 C-0.27193661 2.85250896 -0.27193661 2.85250896 -0.75 5.625 C-0.8325 6.40875 -0.915 7.1925 -1 8 C-0.38125 8.268125 0.2375 8.53625 0.875 8.8125 C3 10 3 10 5 13 C2 13 2 13 -0.75 10.3125 C-2.61322452 7.94570129 -3.00831223 7.36573819 -2.9375 4.25 C-2 2 -2 2 0 0 Z " fill="#444444" transform="translate(266,168)"/>
<path d="M0 0 C2.97 0.99 5.94 1.98 9 3 C9 3.33 9 3.66 9 4 C7.02 4 5.04 4 3 4 C3 5.98 3 7.96 3 10 C1.11608215 6.73454239 0.50712033 3.71888239 0 0 Z " fill="#D2D2D2" transform="translate(224,97)"/>
<path d="M0 0 C0.99 0.33 1.98 0.66 3 1 C3 3.64 3 6.28 3 9 C2.01 8.67 1.02 8.34 0 8 C0 5.36 0 2.72 0 0 Z " fill="#F9F9F9" transform="translate(45,232)"/>
<path d="M0 0 C-4.625 4 -4.625 4 -8 4 C-8 2.68 -8 1.36 -8 0 C-2.25 -1.125 -2.25 -1.125 0 0 Z " fill="#F5F5F5" transform="translate(53,45)"/>
<path d="M0 0 C3.7952131 1.49097658 5.61042731 3.75700849 8 7 C5 7 5 7 2.3125 4.625 C0 2 0 2 0 0 Z " fill="#353535" transform="translate(270,169)"/>
<path d="M0 0 C3.7952131 1.49097658 5.61042731 3.75700849 8 7 C5 7 5 7 2.3125 4.625 C0 2 0 2 0 0 Z " fill="#353535" transform="translate(313,128)"/>
</svg>
